<?xml version="1.0" encoding="UTF-8"?><svg xmlns="http://www.w3.org/2000/svg" xmlns:xlink="http://www.w3.org/1999/xlink" stroke-dasharray="none" shape-rendering="auto" font-family="'Dialog'" width="768" text-rendering="auto" fill-opacity="1" contentScriptType="text/ecmascript" color-interpolation="auto" color-rendering="auto" preserveAspectRatio="xMidYMid meet" font-size="12" fill="black" stroke="black" image-rendering="auto" stroke-miterlimit="10" zoomAndPan="magnify" version="1.0" stroke-linecap="square" stroke-linejoin="miter" contentStyleType="text/css" font-style="normal" height="576" stroke-width="1" stroke-dashoffset="0" font-weight="normal" stroke-opacity="1">
<!--Generated by the Batik Graphics2D SVG Generator-->
<defs id="genericDefs"/>
<g>
<defs id="defs1">
<clipPath clipPathUnits="userSpaceOnUse" id="clipPath1">
<path d="M31 25 L737 25 L737 453 L31 453 L31 25 Z"/>
</clipPath>
<clipPath clipPathUnits="userSpaceOnUse" id="clipPath2">
<path d="M-1 -1 L769 -1 L769 577 L-1 577 L-1 -1 Z"/>
</clipPath>
<clipPath clipPathUnits="userSpaceOnUse" id="clipPath3">
<path d="M31 451 L737 451 L737 577 L31 577 L31 451 Z"/>
</clipPath>
</defs>
<g fill="white" text-rendering="geometricPrecision" font-family="'Segoe UI'" stroke-linejoin="round" stroke="white" stroke-width="0" stroke-miterlimit="0">
<rect x="32" y="26" clip-path="url(#clipPath1)" width="704" height="426" stroke="none"/>
</g>
<g stroke-linecap="butt" fill="rgb(204,204,204)" text-rendering="geometricPrecision" font-family="'Segoe UI'" stroke-dasharray="3,3" stroke="rgb(204,204,204)">
<line clip-path="url(#clipPath1)" fill="none" x1="32" x2="736" y1="452" y2="452"/>
<line clip-path="url(#clipPath1)" fill="none" x1="32" x2="736" y1="398" y2="398"/>
<line clip-path="url(#clipPath1)" fill="none" x1="32" x2="736" y1="345" y2="345"/>
<line clip-path="url(#clipPath1)" fill="none" x1="32" x2="736" y1="292" y2="292"/>
<line clip-path="url(#clipPath1)" fill="none" x1="32" x2="736" y1="239" y2="239"/>
<line clip-path="url(#clipPath1)" fill="none" x1="32" x2="736" y1="185" y2="185"/>
<line clip-path="url(#clipPath1)" fill="none" x1="32" x2="736" y1="132" y2="132"/>
<line clip-path="url(#clipPath1)" fill="none" x1="32" x2="736" y1="79" y2="79"/>
<rect x="708" y="423" clip-path="url(#clipPath1)" fill="rgb(0,100,0)" width="13" height="28" stroke="none"/>
<rect x="708" y="423" clip-path="url(#clipPath1)" fill="none" width="13" stroke-dasharray="none" height="28"/>
<rect x="687" y="431" clip-path="url(#clipPath1)" fill="rgb(238,0,0)" width="13" stroke-dasharray="none" height="20" stroke="none"/>
<rect x="687" y="431" clip-path="url(#clipPath1)" fill="none" width="13" stroke-dasharray="none" height="20"/>
<rect x="666" y="425" clip-path="url(#clipPath1)" fill="rgb(0,0,139)" width="13" stroke-dasharray="none" height="26" stroke="none"/>
<rect x="666" y="425" clip-path="url(#clipPath1)" fill="none" width="13" stroke-dasharray="none" height="26"/>
<rect x="639" y="383" clip-path="url(#clipPath1)" fill="rgb(0,100,0)" width="13" stroke-dasharray="none" height="68" stroke="none"/>
<rect x="639" y="383" clip-path="url(#clipPath1)" fill="none" width="13" stroke-dasharray="none" height="68"/>
<rect x="618" y="384" clip-path="url(#clipPath1)" fill="rgb(238,0,0)" width="13" stroke-dasharray="none" height="67" stroke="none"/>
<rect x="618" y="384" clip-path="url(#clipPath1)" fill="none" width="13" stroke-dasharray="none" height="67"/>
<rect x="597" y="398" clip-path="url(#clipPath1)" fill="rgb(0,0,139)" width="13" stroke-dasharray="none" height="53" stroke="none"/>
<rect x="597" y="398" clip-path="url(#clipPath1)" fill="none" width="13" stroke-dasharray="none" height="53"/>
<rect x="570" y="387" clip-path="url(#clipPath1)" fill="rgb(0,100,0)" width="13" stroke-dasharray="none" height="64" stroke="none"/>
<rect x="570" y="387" clip-path="url(#clipPath1)" fill="none" width="13" stroke-dasharray="none" height="64"/>
<rect x="549" y="387" clip-path="url(#clipPath1)" fill="rgb(238,0,0)" width="13" stroke-dasharray="none" height="64" stroke="none"/>
<rect x="549" y="387" clip-path="url(#clipPath1)" fill="none" width="13" stroke-dasharray="none" height="64"/>
<rect x="528" y="377" clip-path="url(#clipPath1)" fill="rgb(0,0,139)" width="13" stroke-dasharray="none" height="74" stroke="none"/>
<rect x="528" y="377" clip-path="url(#clipPath1)" fill="none" width="13" stroke-dasharray="none" height="74"/>
<rect x="501" y="389" clip-path="url(#clipPath1)" fill="rgb(0,100,0)" width="13" stroke-dasharray="none" height="62" stroke="none"/>
<rect x="501" y="389" clip-path="url(#clipPath1)" fill="none" width="13" stroke-dasharray="none" height="62"/>
<rect x="480" y="390" clip-path="url(#clipPath1)" fill="rgb(238,0,0)" width="13" stroke-dasharray="none" height="61" stroke="none"/>
<rect x="480" y="390" clip-path="url(#clipPath1)" fill="none" width="13" stroke-dasharray="none" height="61"/>
<rect x="459" y="389" clip-path="url(#clipPath1)" fill="rgb(0,0,139)" width="13" stroke-dasharray="none" height="62" stroke="none"/>
<rect x="459" y="389" clip-path="url(#clipPath1)" fill="none" width="13" stroke-dasharray="none" height="62"/>
<rect x="432" y="394" clip-path="url(#clipPath1)" fill="rgb(0,100,0)" width="13" stroke-dasharray="none" height="57" stroke="none"/>
<rect x="432" y="394" clip-path="url(#clipPath1)" fill="none" width="13" stroke-dasharray="none" height="57"/>
<rect x="411" y="410" clip-path="url(#clipPath1)" fill="rgb(238,0,0)" width="13" stroke-dasharray="none" height="41" stroke="none"/>
<rect x="411" y="410" clip-path="url(#clipPath1)" fill="none" width="13" stroke-dasharray="none" height="41"/>
<rect x="390" y="401" clip-path="url(#clipPath1)" fill="rgb(0,0,139)" width="13" stroke-dasharray="none" height="50" stroke="none"/>
<rect x="390" y="401" clip-path="url(#clipPath1)" fill="none" width="13" stroke-dasharray="none" height="50"/>
<rect x="363" y="381" clip-path="url(#clipPath1)" fill="rgb(0,100,0)" width="13" stroke-dasharray="none" height="70" stroke="none"/>
<rect x="363" y="381" clip-path="url(#clipPath1)" fill="none" width="13" stroke-dasharray="none" height="70"/>
<rect x="342" y="368" clip-path="url(#clipPath1)" fill="rgb(238,0,0)" width="13" stroke-dasharray="none" height="83" stroke="none"/>
<rect x="342" y="368" clip-path="url(#clipPath1)" fill="none" width="13" stroke-dasharray="none" height="83"/>
<rect x="321" y="384" clip-path="url(#clipPath1)" fill="rgb(0,0,139)" width="13" stroke-dasharray="none" height="67" stroke="none"/>
<rect x="321" y="384" clip-path="url(#clipPath1)" fill="none" width="13" stroke-dasharray="none" height="67"/>
<rect x="294" y="391" clip-path="url(#clipPath1)" fill="rgb(0,100,0)" width="13" stroke-dasharray="none" height="60" stroke="none"/>
<rect x="294" y="391" clip-path="url(#clipPath1)" fill="none" width="13" stroke-dasharray="none" height="60"/>
<rect x="273" y="375" clip-path="url(#clipPath1)" fill="rgb(238,0,0)" width="13" stroke-dasharray="none" height="76" stroke="none"/>
<rect x="273" y="375" clip-path="url(#clipPath1)" fill="none" width="13" stroke-dasharray="none" height="76"/>
<rect x="252" y="345" clip-path="url(#clipPath1)" fill="rgb(0,0,139)" width="13" stroke-dasharray="none" height="106" stroke="none"/>
<rect x="252" y="345" clip-path="url(#clipPath1)" fill="none" width="13" stroke-dasharray="none" height="106"/>
<rect x="225" y="371" clip-path="url(#clipPath1)" fill="rgb(0,100,0)" width="13" stroke-dasharray="none" height="80" stroke="none"/>
<rect x="225" y="371" clip-path="url(#clipPath1)" fill="none" width="13" stroke-dasharray="none" height="80"/>
<rect x="204" y="362" clip-path="url(#clipPath1)" fill="rgb(238,0,0)" width="13" stroke-dasharray="none" height="89" stroke="none"/>
<rect x="204" y="362" clip-path="url(#clipPath1)" fill="none" width="13" stroke-dasharray="none" height="89"/>
<rect x="183" y="376" clip-path="url(#clipPath1)" fill="rgb(0,0,139)" width="13" stroke-dasharray="none" height="75" stroke="none"/>
<rect x="183" y="376" clip-path="url(#clipPath1)" fill="none" width="13" stroke-dasharray="none" height="75"/>
<rect x="156" y="379" clip-path="url(#clipPath1)" fill="rgb(0,100,0)" width="13" stroke-dasharray="none" height="72" stroke="none"/>
<rect x="156" y="379" clip-path="url(#clipPath1)" fill="none" width="13" stroke-dasharray="none" height="72"/>
<rect x="135" y="391" clip-path="url(#clipPath1)" fill="rgb(238,0,0)" width="13" stroke-dasharray="none" height="60" stroke="none"/>
<rect x="135" y="391" clip-path="url(#clipPath1)" fill="none" width="13" stroke-dasharray="none" height="60"/>
<rect x="114" y="388" clip-path="url(#clipPath1)" fill="rgb(0,0,139)" width="13" stroke-dasharray="none" height="63" stroke="none"/>
<rect x="114" y="388" clip-path="url(#clipPath1)" fill="none" width="13" stroke-dasharray="none" height="63"/>
<rect x="87" y="388" clip-path="url(#clipPath1)" fill="rgb(0,100,0)" width="13" stroke-dasharray="none" height="63" stroke="none"/>
<rect x="87" y="388" clip-path="url(#clipPath1)" fill="none" width="13" stroke-dasharray="none" height="63"/>
<rect x="66" y="382" clip-path="url(#clipPath1)" fill="rgb(238,0,0)" width="13" stroke-dasharray="none" height="69" stroke="none"/>
<rect x="66" y="382" clip-path="url(#clipPath1)" fill="none" width="13" stroke-dasharray="none" height="69"/>
<rect x="45" y="395" clip-path="url(#clipPath1)" fill="rgb(0,0,139)" width="13" stroke-dasharray="none" height="56" stroke="none"/>
<rect x="45" y="395" clip-path="url(#clipPath1)" fill="none" width="13" stroke-dasharray="none" height="56"/>
<rect x="32" y="26" clip-path="url(#clipPath2)" fill="none" width="704" stroke-dasharray="none" height="426" stroke="black"/>
<line clip-path="url(#clipPath2)" fill="none" x1="33" x2="735" y1="452" y2="452" stroke-dasharray="none"/>
</g>
<g text-rendering="geometricPrecision" font-size="13" font-family="'Arial'" stroke-linecap="butt">
<text xml:space="preserve" x="346" y="12" clip-path="url(#clipPath2)" stroke="none">10mps 0.36s</text>
<line clip-path="url(#clipPath2)" fill="none" x1="30" x2="30" y1="26" y2="452"/>
<line clip-path="url(#clipPath2)" fill="none" x1="738" x2="738" y1="26" y2="452"/>
<line clip-path="url(#clipPath2)" fill="none" x1="26" x2="30" y1="452" y2="452"/>
<line clip-path="url(#clipPath2)" fill="none" x1="742" x2="738" y1="452" y2="452"/>
<text x="20" font-size="10" y="455" clip-path="url(#clipPath2)" stroke="none" xml:space="preserve">0</text>
<text x="745" font-size="10" y="455" clip-path="url(#clipPath2)" stroke="none" xml:space="preserve">0</text>
<line clip-path="url(#clipPath2)" fill="none" x1="28" x2="30" y1="441" y2="441"/>
<line clip-path="url(#clipPath2)" fill="none" x1="740" x2="738" y1="441" y2="441"/>
<line clip-path="url(#clipPath2)" fill="none" x1="28" x2="30" y1="430" y2="430"/>
<line clip-path="url(#clipPath2)" fill="none" x1="740" x2="738" y1="430" y2="430"/>
<line clip-path="url(#clipPath2)" fill="none" x1="28" x2="30" y1="420" y2="420"/>
<line clip-path="url(#clipPath2)" fill="none" x1="740" x2="738" y1="420" y2="420"/>
<line clip-path="url(#clipPath2)" fill="none" x1="28" x2="30" y1="409" y2="409"/>
<line clip-path="url(#clipPath2)" fill="none" x1="740" x2="738" y1="409" y2="409"/>
<line clip-path="url(#clipPath2)" fill="none" x1="26" x2="30" y1="398" y2="398"/>
<line clip-path="url(#clipPath2)" fill="none" x1="742" x2="738" y1="398" y2="398"/>
<text x="15" font-size="10" y="401" clip-path="url(#clipPath2)" stroke="none" xml:space="preserve">50</text>
<text x="745" font-size="10" y="401" clip-path="url(#clipPath2)" stroke="none" xml:space="preserve">50</text>
<line clip-path="url(#clipPath2)" fill="none" x1="28" x2="30" y1="388" y2="388"/>
<line clip-path="url(#clipPath2)" fill="none" x1="740" x2="738" y1="388" y2="388"/>
<line clip-path="url(#clipPath2)" fill="none" x1="28" x2="30" y1="377" y2="377"/>
<line clip-path="url(#clipPath2)" fill="none" x1="740" x2="738" y1="377" y2="377"/>
<line clip-path="url(#clipPath2)" fill="none" x1="28" x2="30" y1="366" y2="366"/>
<line clip-path="url(#clipPath2)" fill="none" x1="740" x2="738" y1="366" y2="366"/>
<line clip-path="url(#clipPath2)" fill="none" x1="28" x2="30" y1="356" y2="356"/>
<line clip-path="url(#clipPath2)" fill="none" x1="740" x2="738" y1="356" y2="356"/>
<line clip-path="url(#clipPath2)" fill="none" x1="26" x2="30" y1="345" y2="345"/>
<line clip-path="url(#clipPath2)" fill="none" x1="742" x2="738" y1="345" y2="345"/>
<text x="10" font-size="10" y="348" clip-path="url(#clipPath2)" stroke="none" xml:space="preserve">100</text>
<text x="745" font-size="10" y="348" clip-path="url(#clipPath2)" stroke="none" xml:space="preserve">100</text>
<line clip-path="url(#clipPath2)" fill="none" x1="28" x2="30" y1="334" y2="334"/>
<line clip-path="url(#clipPath2)" fill="none" x1="740" x2="738" y1="334" y2="334"/>
<line clip-path="url(#clipPath2)" fill="none" x1="28" x2="30" y1="324" y2="324"/>
<line clip-path="url(#clipPath2)" fill="none" x1="740" x2="738" y1="324" y2="324"/>
<line clip-path="url(#clipPath2)" fill="none" x1="28" x2="30" y1="313" y2="313"/>
<line clip-path="url(#clipPath2)" fill="none" x1="740" x2="738" y1="313" y2="313"/>
<line clip-path="url(#clipPath2)" fill="none" x1="28" x2="30" y1="302" y2="302"/>
<line clip-path="url(#clipPath2)" fill="none" x1="740" x2="738" y1="302" y2="302"/>
<line clip-path="url(#clipPath2)" fill="none" x1="26" x2="30" y1="292" y2="292"/>
<line clip-path="url(#clipPath2)" fill="none" x1="742" x2="738" y1="292" y2="292"/>
<text x="10" font-size="10" y="295" clip-path="url(#clipPath2)" stroke="none" xml:space="preserve">150</text>
<text x="745" font-size="10" y="295" clip-path="url(#clipPath2)" stroke="none" xml:space="preserve">150</text>
<line clip-path="url(#clipPath2)" fill="none" x1="28" x2="30" y1="281" y2="281"/>
<line clip-path="url(#clipPath2)" fill="none" x1="740" x2="738" y1="281" y2="281"/>
<line clip-path="url(#clipPath2)" fill="none" x1="28" x2="30" y1="270" y2="270"/>
<line clip-path="url(#clipPath2)" fill="none" x1="740" x2="738" y1="270" y2="270"/>
<line clip-path="url(#clipPath2)" fill="none" x1="28" x2="30" y1="260" y2="260"/>
<line clip-path="url(#clipPath2)" fill="none" x1="740" x2="738" y1="260" y2="260"/>
<line clip-path="url(#clipPath2)" fill="none" x1="28" x2="30" y1="249" y2="249"/>
<line clip-path="url(#clipPath2)" fill="none" x1="740" x2="738" y1="249" y2="249"/>
<line clip-path="url(#clipPath2)" fill="none" x1="26" x2="30" y1="239" y2="239"/>
<line clip-path="url(#clipPath2)" fill="none" x1="742" x2="738" y1="239" y2="239"/>
<text x="10" font-size="10" y="242" clip-path="url(#clipPath2)" stroke="none" xml:space="preserve">200</text>
<text x="745" font-size="10" y="242" clip-path="url(#clipPath2)" stroke="none" xml:space="preserve">200</text>
<line clip-path="url(#clipPath2)" fill="none" x1="28" x2="30" y1="228" y2="228"/>
<line clip-path="url(#clipPath2)" fill="none" x1="740" x2="738" y1="228" y2="228"/>
<line clip-path="url(#clipPath2)" fill="none" x1="28" x2="30" y1="217" y2="217"/>
<line clip-path="url(#clipPath2)" fill="none" x1="740" x2="738" y1="217" y2="217"/>
<line clip-path="url(#clipPath2)" fill="none" x1="28" x2="30" y1="207" y2="207"/>
<line clip-path="url(#clipPath2)" fill="none" x1="740" x2="738" y1="207" y2="207"/>
<line clip-path="url(#clipPath2)" fill="none" x1="28" x2="30" y1="196" y2="196"/>
<line clip-path="url(#clipPath2)" fill="none" x1="740" x2="738" y1="196" y2="196"/>
<line clip-path="url(#clipPath2)" fill="none" x1="26" x2="30" y1="185" y2="185"/>
<line clip-path="url(#clipPath2)" fill="none" x1="742" x2="738" y1="185" y2="185"/>
<text x="10" font-size="10" y="188" clip-path="url(#clipPath2)" stroke="none" xml:space="preserve">250</text>
<text x="745" font-size="10" y="188" clip-path="url(#clipPath2)" stroke="none" xml:space="preserve">250</text>
<line clip-path="url(#clipPath2)" fill="none" x1="28" x2="30" y1="175" y2="175"/>
<line clip-path="url(#clipPath2)" fill="none" x1="740" x2="738" y1="175" y2="175"/>
<line clip-path="url(#clipPath2)" fill="none" x1="28" x2="30" y1="164" y2="164"/>
<line clip-path="url(#clipPath2)" fill="none" x1="740" x2="738" y1="164" y2="164"/>
<line clip-path="url(#clipPath2)" fill="none" x1="28" x2="30" y1="153" y2="153"/>
<line clip-path="url(#clipPath2)" fill="none" x1="740" x2="738" y1="153" y2="153"/>
<line clip-path="url(#clipPath2)" fill="none" x1="28" x2="30" y1="143" y2="143"/>
<line clip-path="url(#clipPath2)" fill="none" x1="740" x2="738" y1="143" y2="143"/>
<line clip-path="url(#clipPath2)" fill="none" x1="26" x2="30" y1="132" y2="132"/>
<line clip-path="url(#clipPath2)" fill="none" x1="742" x2="738" y1="132" y2="132"/>
<text x="10" font-size="10" y="135" clip-path="url(#clipPath2)" stroke="none" xml:space="preserve">300</text>
<text x="745" font-size="10" y="135" clip-path="url(#clipPath2)" stroke="none" xml:space="preserve">300</text>
<line clip-path="url(#clipPath2)" fill="none" x1="28" x2="30" y1="121" y2="121"/>
<line clip-path="url(#clipPath2)" fill="none" x1="740" x2="738" y1="121" y2="121"/>
<line clip-path="url(#clipPath2)" fill="none" x1="28" x2="30" y1="111" y2="111"/>
<line clip-path="url(#clipPath2)" fill="none" x1="740" x2="738" y1="111" y2="111"/>
<line clip-path="url(#clipPath2)" fill="none" x1="28" x2="30" y1="100" y2="100"/>
<line clip-path="url(#clipPath2)" fill="none" x1="740" x2="738" y1="100" y2="100"/>
<line clip-path="url(#clipPath2)" fill="none" x1="28" x2="30" y1="89" y2="89"/>
<line clip-path="url(#clipPath2)" fill="none" x1="740" x2="738" y1="89" y2="89"/>
<line clip-path="url(#clipPath2)" fill="none" x1="26" x2="30" y1="79" y2="79"/>
<line clip-path="url(#clipPath2)" fill="none" x1="742" x2="738" y1="79" y2="79"/>
<text x="10" font-size="10" y="82" clip-path="url(#clipPath2)" stroke="none" xml:space="preserve">350</text>
<text x="745" font-size="10" y="82" clip-path="url(#clipPath2)" stroke="none" xml:space="preserve">350</text>
<line clip-path="url(#clipPath2)" fill="none" x1="28" x2="30" y1="68" y2="68"/>
<line clip-path="url(#clipPath2)" fill="none" x1="740" x2="738" y1="68" y2="68"/>
<line clip-path="url(#clipPath2)" fill="none" x1="28" x2="30" y1="57" y2="57"/>
<line clip-path="url(#clipPath2)" fill="none" x1="740" x2="738" y1="57" y2="57"/>
<line clip-path="url(#clipPath2)" fill="none" x1="28" x2="30" y1="47" y2="47"/>
<line clip-path="url(#clipPath2)" fill="none" x1="740" x2="738" y1="47" y2="47"/>
<line clip-path="url(#clipPath2)" fill="none" x1="28" x2="30" y1="36" y2="36"/>
<line clip-path="url(#clipPath2)" fill="none" x1="740" x2="738" y1="36" y2="36"/>
<line clip-path="url(#clipPath3)" fill="none" x1="45" x2="100" y1="456" y2="456"/>
<line clip-path="url(#clipPath3)" fill="none" x1="114" x2="169" y1="456" y2="456"/>
<line clip-path="url(#clipPath3)" fill="none" x1="183" x2="238" y1="456" y2="456"/>
<line clip-path="url(#clipPath3)" fill="none" x1="252" x2="307" y1="456" y2="456"/>
<line clip-path="url(#clipPath3)" fill="none" x1="321" x2="376" y1="456" y2="456"/>
<line clip-path="url(#clipPath3)" fill="none" x1="390" x2="445" y1="456" y2="456"/>
<line clip-path="url(#clipPath3)" fill="none" x1="459" x2="514" y1="456" y2="456"/>
<line clip-path="url(#clipPath3)" fill="none" x1="528" x2="583" y1="456" y2="456"/>
<line clip-path="url(#clipPath3)" fill="none" x1="597" x2="652" y1="456" y2="456"/>
<line clip-path="url(#clipPath3)" fill="none" x1="666" x2="721" y1="456" y2="456"/>
<text x="67" font-size="10" y="467" clip-path="url(#clipPath3)" stroke="none" xml:space="preserve">sensors[0]</text>
<text x="136" font-size="10" y="467" clip-path="url(#clipPath3)" stroke="none" xml:space="preserve">sensors[1]</text>
<text x="205" font-size="10" y="467" clip-path="url(#clipPath3)" stroke="none" xml:space="preserve">sensors[2]</text>
<text x="274" font-size="10" y="467" clip-path="url(#clipPath3)" stroke="none" xml:space="preserve">sensors[3]</text>
<text x="343" font-size="10" y="467" clip-path="url(#clipPath3)" stroke="none" xml:space="preserve">sensors[4]</text>
<text x="412" font-size="10" y="467" clip-path="url(#clipPath3)" stroke="none" xml:space="preserve">sensors[5]</text>
<text x="481" font-size="10" y="467" clip-path="url(#clipPath3)" stroke="none" xml:space="preserve">sensors[6]</text>
<text x="550" font-size="10" y="467" clip-path="url(#clipPath3)" stroke="none" xml:space="preserve">sensors[7]</text>
<text x="619" font-size="10" y="467" clip-path="url(#clipPath3)" stroke="none" xml:space="preserve">sensors[8]</text>
<text x="688" font-size="10" y="467" clip-path="url(#clipPath3)" stroke="none" xml:space="preserve">sensors[9]</text>
</g>
</g>
</svg>
