<?xml version="1.0" encoding="UTF-8"?><svg xmlns="http://www.w3.org/2000/svg" xmlns:xlink="http://www.w3.org/1999/xlink" stroke-dasharray="none" shape-rendering="auto" font-family="'Dialog'" width="768" text-rendering="auto" fill-opacity="1" contentScriptType="text/ecmascript" color-interpolation="auto" color-rendering="auto" preserveAspectRatio="xMidYMid meet" font-size="12" fill="black" stroke="black" image-rendering="auto" stroke-miterlimit="10" zoomAndPan="magnify" version="1.0" stroke-linecap="square" stroke-linejoin="miter" contentStyleType="text/css" font-style="normal" height="576" stroke-width="1" stroke-dashoffset="0" font-weight="normal" stroke-opacity="1">
<!--Generated by the Batik Graphics2D SVG Generator-->
<defs id="genericDefs"/>
<g>
<defs id="defs1">
<clipPath clipPathUnits="userSpaceOnUse" id="clipPath1">
<path d="M25 25 L743 25 L743 453 L25 453 L25 25 Z"/>
</clipPath>
<clipPath clipPathUnits="userSpaceOnUse" id="clipPath2">
<path d="M-1 -1 L769 -1 L769 577 L-1 577 L-1 -1 Z"/>
</clipPath>
<clipPath clipPathUnits="userSpaceOnUse" id="clipPath3">
<path d="M25 451 L743 451 L743 577 L25 577 L25 451 Z"/>
</clipPath>
</defs>
<g fill="white" text-rendering="geometricPrecision" font-family="'Segoe UI'" stroke-linejoin="round" stroke="white" stroke-width="0" stroke-miterlimit="0">
<rect x="26" y="26" clip-path="url(#clipPath1)" width="716" height="426" stroke="none"/>
</g>
<g stroke-linecap="butt" fill="rgb(204,204,204)" text-rendering="geometricPrecision" font-family="'Segoe UI'" stroke-dasharray="3,3" stroke="rgb(204,204,204)">
<line clip-path="url(#clipPath1)" fill="none" x1="26" x2="742" y1="452" y2="452"/>
<line clip-path="url(#clipPath1)" fill="none" x1="26" x2="742" y1="398" y2="398"/>
<line clip-path="url(#clipPath1)" fill="none" x1="26" x2="742" y1="345" y2="345"/>
<line clip-path="url(#clipPath1)" fill="none" x1="26" x2="742" y1="292" y2="292"/>
<line clip-path="url(#clipPath1)" fill="none" x1="26" x2="742" y1="239" y2="239"/>
<line clip-path="url(#clipPath1)" fill="none" x1="26" x2="742" y1="185" y2="185"/>
<line clip-path="url(#clipPath1)" fill="none" x1="26" x2="742" y1="132" y2="132"/>
<line clip-path="url(#clipPath1)" fill="none" x1="26" x2="742" y1="79" y2="79"/>
<rect x="713" y="239" clip-path="url(#clipPath1)" fill="rgb(0,100,0)" width="14" height="213" stroke="none"/>
<rect x="713" y="239" clip-path="url(#clipPath1)" fill="none" width="14" stroke-dasharray="none" height="213"/>
<rect x="692" y="281" clip-path="url(#clipPath1)" fill="rgb(238,0,0)" width="14" stroke-dasharray="none" height="170" stroke="none"/>
<rect x="692" y="281" clip-path="url(#clipPath1)" fill="none" width="14" stroke-dasharray="none" height="170"/>
<rect x="671" y="302" clip-path="url(#clipPath1)" fill="rgb(0,0,139)" width="14" stroke-dasharray="none" height="149" stroke="none"/>
<rect x="671" y="302" clip-path="url(#clipPath1)" fill="none" width="14" stroke-dasharray="none" height="149"/>
<rect x="643" y="233" clip-path="url(#clipPath1)" fill="rgb(0,100,0)" width="14" stroke-dasharray="none" height="218" stroke="none"/>
<rect x="643" y="233" clip-path="url(#clipPath1)" fill="none" width="14" stroke-dasharray="none" height="218"/>
<rect x="622" y="207" clip-path="url(#clipPath1)" fill="rgb(238,0,0)" width="14" stroke-dasharray="none" height="244" stroke="none"/>
<rect x="622" y="207" clip-path="url(#clipPath1)" fill="none" width="14" stroke-dasharray="none" height="244"/>
<rect x="601" y="228" clip-path="url(#clipPath1)" fill="rgb(0,0,139)" width="14" stroke-dasharray="none" height="223" stroke="none"/>
<rect x="601" y="228" clip-path="url(#clipPath1)" fill="none" width="14" stroke-dasharray="none" height="223"/>
<rect x="573" y="212" clip-path="url(#clipPath1)" fill="rgb(0,100,0)" width="14" stroke-dasharray="none" height="239" stroke="none"/>
<rect x="573" y="212" clip-path="url(#clipPath1)" fill="none" width="14" stroke-dasharray="none" height="239"/>
<rect x="552" y="223" clip-path="url(#clipPath1)" fill="rgb(238,0,0)" width="14" stroke-dasharray="none" height="228" stroke="none"/>
<rect x="552" y="223" clip-path="url(#clipPath1)" fill="none" width="14" stroke-dasharray="none" height="228"/>
<rect x="531" y="175" clip-path="url(#clipPath1)" fill="rgb(0,0,139)" width="14" stroke-dasharray="none" height="276" stroke="none"/>
<rect x="531" y="175" clip-path="url(#clipPath1)" fill="none" width="14" stroke-dasharray="none" height="276"/>
<rect x="503" y="228" clip-path="url(#clipPath1)" fill="rgb(0,100,0)" width="14" stroke-dasharray="none" height="223" stroke="none"/>
<rect x="503" y="228" clip-path="url(#clipPath1)" fill="none" width="14" stroke-dasharray="none" height="223"/>
<rect x="482" y="249" clip-path="url(#clipPath1)" fill="rgb(238,0,0)" width="14" stroke-dasharray="none" height="202" stroke="none"/>
<rect x="482" y="249" clip-path="url(#clipPath1)" fill="none" width="14" stroke-dasharray="none" height="202"/>
<rect x="461" y="223" clip-path="url(#clipPath1)" fill="rgb(0,0,139)" width="14" stroke-dasharray="none" height="228" stroke="none"/>
<rect x="461" y="223" clip-path="url(#clipPath1)" fill="none" width="14" stroke-dasharray="none" height="228"/>
<rect x="433" y="329" clip-path="url(#clipPath1)" fill="rgb(0,100,0)" width="14" stroke-dasharray="none" height="122" stroke="none"/>
<rect x="433" y="329" clip-path="url(#clipPath1)" fill="none" width="14" stroke-dasharray="none" height="122"/>
<rect x="412" y="286" clip-path="url(#clipPath1)" fill="rgb(238,0,0)" width="14" stroke-dasharray="none" height="165" stroke="none"/>
<rect x="412" y="286" clip-path="url(#clipPath1)" fill="none" width="14" stroke-dasharray="none" height="165"/>
<rect x="391" y="324" clip-path="url(#clipPath1)" fill="rgb(0,0,139)" width="14" stroke-dasharray="none" height="127" stroke="none"/>
<rect x="391" y="324" clip-path="url(#clipPath1)" fill="none" width="14" stroke-dasharray="none" height="127"/>
<rect x="362" y="212" clip-path="url(#clipPath1)" fill="rgb(0,100,0)" width="14" stroke-dasharray="none" height="239" stroke="none"/>
<rect x="362" y="212" clip-path="url(#clipPath1)" fill="none" width="14" stroke-dasharray="none" height="239"/>
<rect x="341" y="212" clip-path="url(#clipPath1)" fill="rgb(238,0,0)" width="14" stroke-dasharray="none" height="239" stroke="none"/>
<rect x="341" y="212" clip-path="url(#clipPath1)" fill="none" width="14" stroke-dasharray="none" height="239"/>
<rect x="320" y="159" clip-path="url(#clipPath1)" fill="rgb(0,0,139)" width="14" stroke-dasharray="none" height="292" stroke="none"/>
<rect x="320" y="159" clip-path="url(#clipPath1)" fill="none" width="14" stroke-dasharray="none" height="292"/>
<rect x="292" y="57" clip-path="url(#clipPath1)" fill="rgb(0,100,0)" width="14" stroke-dasharray="none" height="394" stroke="none"/>
<rect x="292" y="57" clip-path="url(#clipPath1)" fill="none" width="14" stroke-dasharray="none" height="394"/>
<rect x="271" y="31" clip-path="url(#clipPath1)" fill="rgb(238,0,0)" width="14" stroke-dasharray="none" height="420" stroke="none"/>
<rect x="271" y="31" clip-path="url(#clipPath1)" fill="none" width="14" stroke-dasharray="none" height="420"/>
<rect x="250" y="68" clip-path="url(#clipPath1)" fill="rgb(0,0,139)" width="14" stroke-dasharray="none" height="383" stroke="none"/>
<rect x="250" y="68" clip-path="url(#clipPath1)" fill="none" width="14" stroke-dasharray="none" height="383"/>
<rect x="222" y="132" clip-path="url(#clipPath1)" fill="rgb(0,100,0)" width="14" stroke-dasharray="none" height="319" stroke="none"/>
<rect x="222" y="132" clip-path="url(#clipPath1)" fill="none" width="14" stroke-dasharray="none" height="319"/>
<rect x="201" y="169" clip-path="url(#clipPath1)" fill="rgb(238,0,0)" width="14" stroke-dasharray="none" height="282" stroke="none"/>
<rect x="201" y="169" clip-path="url(#clipPath1)" fill="none" width="14" stroke-dasharray="none" height="282"/>
<rect x="180" y="137" clip-path="url(#clipPath1)" fill="rgb(0,0,139)" width="14" stroke-dasharray="none" height="314" stroke="none"/>
<rect x="180" y="137" clip-path="url(#clipPath1)" fill="none" width="14" stroke-dasharray="none" height="314"/>
<rect x="152" y="201" clip-path="url(#clipPath1)" fill="rgb(0,100,0)" width="14" stroke-dasharray="none" height="250" stroke="none"/>
<rect x="152" y="201" clip-path="url(#clipPath1)" fill="none" width="14" stroke-dasharray="none" height="250"/>
<rect x="131" y="207" clip-path="url(#clipPath1)" fill="rgb(238,0,0)" width="14" stroke-dasharray="none" height="244" stroke="none"/>
<rect x="131" y="207" clip-path="url(#clipPath1)" fill="none" width="14" stroke-dasharray="none" height="244"/>
<rect x="110" y="254" clip-path="url(#clipPath1)" fill="rgb(0,0,139)" width="14" stroke-dasharray="none" height="197" stroke="none"/>
<rect x="110" y="254" clip-path="url(#clipPath1)" fill="none" width="14" stroke-dasharray="none" height="197"/>
<rect x="82" y="302" clip-path="url(#clipPath1)" fill="rgb(0,100,0)" width="14" stroke-dasharray="none" height="149" stroke="none"/>
<rect x="82" y="302" clip-path="url(#clipPath1)" fill="none" width="14" stroke-dasharray="none" height="149"/>
<rect x="61" y="260" clip-path="url(#clipPath1)" fill="rgb(238,0,0)" width="14" stroke-dasharray="none" height="191" stroke="none"/>
<rect x="61" y="260" clip-path="url(#clipPath1)" fill="none" width="14" stroke-dasharray="none" height="191"/>
<rect x="40" y="249" clip-path="url(#clipPath1)" fill="rgb(0,0,139)" width="14" stroke-dasharray="none" height="202" stroke="none"/>
<rect x="40" y="249" clip-path="url(#clipPath1)" fill="none" width="14" stroke-dasharray="none" height="202"/>
<rect x="26" y="26" clip-path="url(#clipPath2)" fill="none" width="716" stroke-dasharray="none" height="426" stroke="black"/>
<line clip-path="url(#clipPath2)" fill="none" x1="27" x2="741" y1="452" y2="452" stroke-dasharray="none"/>
</g>
<g text-rendering="geometricPrecision" font-size="13" font-family="'Arial'" stroke-linecap="butt">
<text xml:space="preserve" x="368" y="12" clip-path="url(#clipPath2)" stroke="none">5mps</text>
<line clip-path="url(#clipPath2)" fill="none" x1="24" x2="24" y1="26" y2="452"/>
<line clip-path="url(#clipPath2)" fill="none" x1="744" x2="744" y1="26" y2="452"/>
<line clip-path="url(#clipPath2)" fill="none" x1="20" x2="24" y1="452" y2="452"/>
<line clip-path="url(#clipPath2)" fill="none" x1="748" x2="744" y1="452" y2="452"/>
<text x="14" font-size="10" y="455" clip-path="url(#clipPath2)" stroke="none" xml:space="preserve">0</text>
<text x="751" font-size="10" y="455" clip-path="url(#clipPath2)" stroke="none" xml:space="preserve">0</text>
<line clip-path="url(#clipPath2)" fill="none" x1="22" x2="24" y1="441" y2="441"/>
<line clip-path="url(#clipPath2)" fill="none" x1="746" x2="744" y1="441" y2="441"/>
<line clip-path="url(#clipPath2)" fill="none" x1="22" x2="24" y1="430" y2="430"/>
<line clip-path="url(#clipPath2)" fill="none" x1="746" x2="744" y1="430" y2="430"/>
<line clip-path="url(#clipPath2)" fill="none" x1="22" x2="24" y1="420" y2="420"/>
<line clip-path="url(#clipPath2)" fill="none" x1="746" x2="744" y1="420" y2="420"/>
<line clip-path="url(#clipPath2)" fill="none" x1="22" x2="24" y1="409" y2="409"/>
<line clip-path="url(#clipPath2)" fill="none" x1="746" x2="744" y1="409" y2="409"/>
<line clip-path="url(#clipPath2)" fill="none" x1="20" x2="24" y1="398" y2="398"/>
<line clip-path="url(#clipPath2)" fill="none" x1="748" x2="744" y1="398" y2="398"/>
<text x="9" font-size="10" y="401" clip-path="url(#clipPath2)" stroke="none" xml:space="preserve">10</text>
<text x="751" font-size="10" y="401" clip-path="url(#clipPath2)" stroke="none" xml:space="preserve">10</text>
<line clip-path="url(#clipPath2)" fill="none" x1="22" x2="24" y1="388" y2="388"/>
<line clip-path="url(#clipPath2)" fill="none" x1="746" x2="744" y1="388" y2="388"/>
<line clip-path="url(#clipPath2)" fill="none" x1="22" x2="24" y1="377" y2="377"/>
<line clip-path="url(#clipPath2)" fill="none" x1="746" x2="744" y1="377" y2="377"/>
<line clip-path="url(#clipPath2)" fill="none" x1="22" x2="24" y1="366" y2="366"/>
<line clip-path="url(#clipPath2)" fill="none" x1="746" x2="744" y1="366" y2="366"/>
<line clip-path="url(#clipPath2)" fill="none" x1="22" x2="24" y1="356" y2="356"/>
<line clip-path="url(#clipPath2)" fill="none" x1="746" x2="744" y1="356" y2="356"/>
<line clip-path="url(#clipPath2)" fill="none" x1="20" x2="24" y1="345" y2="345"/>
<line clip-path="url(#clipPath2)" fill="none" x1="748" x2="744" y1="345" y2="345"/>
<text x="9" font-size="10" y="348" clip-path="url(#clipPath2)" stroke="none" xml:space="preserve">20</text>
<text x="751" font-size="10" y="348" clip-path="url(#clipPath2)" stroke="none" xml:space="preserve">20</text>
<line clip-path="url(#clipPath2)" fill="none" x1="22" x2="24" y1="334" y2="334"/>
<line clip-path="url(#clipPath2)" fill="none" x1="746" x2="744" y1="334" y2="334"/>
<line clip-path="url(#clipPath2)" fill="none" x1="22" x2="24" y1="324" y2="324"/>
<line clip-path="url(#clipPath2)" fill="none" x1="746" x2="744" y1="324" y2="324"/>
<line clip-path="url(#clipPath2)" fill="none" x1="22" x2="24" y1="313" y2="313"/>
<line clip-path="url(#clipPath2)" fill="none" x1="746" x2="744" y1="313" y2="313"/>
<line clip-path="url(#clipPath2)" fill="none" x1="22" x2="24" y1="302" y2="302"/>
<line clip-path="url(#clipPath2)" fill="none" x1="746" x2="744" y1="302" y2="302"/>
<line clip-path="url(#clipPath2)" fill="none" x1="20" x2="24" y1="292" y2="292"/>
<line clip-path="url(#clipPath2)" fill="none" x1="748" x2="744" y1="292" y2="292"/>
<text x="9" font-size="10" y="295" clip-path="url(#clipPath2)" stroke="none" xml:space="preserve">30</text>
<text x="751" font-size="10" y="295" clip-path="url(#clipPath2)" stroke="none" xml:space="preserve">30</text>
<line clip-path="url(#clipPath2)" fill="none" x1="22" x2="24" y1="281" y2="281"/>
<line clip-path="url(#clipPath2)" fill="none" x1="746" x2="744" y1="281" y2="281"/>
<line clip-path="url(#clipPath2)" fill="none" x1="22" x2="24" y1="270" y2="270"/>
<line clip-path="url(#clipPath2)" fill="none" x1="746" x2="744" y1="270" y2="270"/>
<line clip-path="url(#clipPath2)" fill="none" x1="22" x2="24" y1="260" y2="260"/>
<line clip-path="url(#clipPath2)" fill="none" x1="746" x2="744" y1="260" y2="260"/>
<line clip-path="url(#clipPath2)" fill="none" x1="22" x2="24" y1="249" y2="249"/>
<line clip-path="url(#clipPath2)" fill="none" x1="746" x2="744" y1="249" y2="249"/>
<line clip-path="url(#clipPath2)" fill="none" x1="20" x2="24" y1="239" y2="239"/>
<line clip-path="url(#clipPath2)" fill="none" x1="748" x2="744" y1="239" y2="239"/>
<text x="9" font-size="10" y="242" clip-path="url(#clipPath2)" stroke="none" xml:space="preserve">40</text>
<text x="751" font-size="10" y="242" clip-path="url(#clipPath2)" stroke="none" xml:space="preserve">40</text>
<line clip-path="url(#clipPath2)" fill="none" x1="22" x2="24" y1="228" y2="228"/>
<line clip-path="url(#clipPath2)" fill="none" x1="746" x2="744" y1="228" y2="228"/>
<line clip-path="url(#clipPath2)" fill="none" x1="22" x2="24" y1="217" y2="217"/>
<line clip-path="url(#clipPath2)" fill="none" x1="746" x2="744" y1="217" y2="217"/>
<line clip-path="url(#clipPath2)" fill="none" x1="22" x2="24" y1="207" y2="207"/>
<line clip-path="url(#clipPath2)" fill="none" x1="746" x2="744" y1="207" y2="207"/>
<line clip-path="url(#clipPath2)" fill="none" x1="22" x2="24" y1="196" y2="196"/>
<line clip-path="url(#clipPath2)" fill="none" x1="746" x2="744" y1="196" y2="196"/>
<line clip-path="url(#clipPath2)" fill="none" x1="20" x2="24" y1="185" y2="185"/>
<line clip-path="url(#clipPath2)" fill="none" x1="748" x2="744" y1="185" y2="185"/>
<text x="9" font-size="10" y="188" clip-path="url(#clipPath2)" stroke="none" xml:space="preserve">50</text>
<text x="751" font-size="10" y="188" clip-path="url(#clipPath2)" stroke="none" xml:space="preserve">50</text>
<line clip-path="url(#clipPath2)" fill="none" x1="22" x2="24" y1="175" y2="175"/>
<line clip-path="url(#clipPath2)" fill="none" x1="746" x2="744" y1="175" y2="175"/>
<line clip-path="url(#clipPath2)" fill="none" x1="22" x2="24" y1="164" y2="164"/>
<line clip-path="url(#clipPath2)" fill="none" x1="746" x2="744" y1="164" y2="164"/>
<line clip-path="url(#clipPath2)" fill="none" x1="22" x2="24" y1="153" y2="153"/>
<line clip-path="url(#clipPath2)" fill="none" x1="746" x2="744" y1="153" y2="153"/>
<line clip-path="url(#clipPath2)" fill="none" x1="22" x2="24" y1="143" y2="143"/>
<line clip-path="url(#clipPath2)" fill="none" x1="746" x2="744" y1="143" y2="143"/>
<line clip-path="url(#clipPath2)" fill="none" x1="20" x2="24" y1="132" y2="132"/>
<line clip-path="url(#clipPath2)" fill="none" x1="748" x2="744" y1="132" y2="132"/>
<text x="9" font-size="10" y="135" clip-path="url(#clipPath2)" stroke="none" xml:space="preserve">60</text>
<text x="751" font-size="10" y="135" clip-path="url(#clipPath2)" stroke="none" xml:space="preserve">60</text>
<line clip-path="url(#clipPath2)" fill="none" x1="22" x2="24" y1="121" y2="121"/>
<line clip-path="url(#clipPath2)" fill="none" x1="746" x2="744" y1="121" y2="121"/>
<line clip-path="url(#clipPath2)" fill="none" x1="22" x2="24" y1="111" y2="111"/>
<line clip-path="url(#clipPath2)" fill="none" x1="746" x2="744" y1="111" y2="111"/>
<line clip-path="url(#clipPath2)" fill="none" x1="22" x2="24" y1="100" y2="100"/>
<line clip-path="url(#clipPath2)" fill="none" x1="746" x2="744" y1="100" y2="100"/>
<line clip-path="url(#clipPath2)" fill="none" x1="22" x2="24" y1="89" y2="89"/>
<line clip-path="url(#clipPath2)" fill="none" x1="746" x2="744" y1="89" y2="89"/>
<line clip-path="url(#clipPath2)" fill="none" x1="20" x2="24" y1="79" y2="79"/>
<line clip-path="url(#clipPath2)" fill="none" x1="748" x2="744" y1="79" y2="79"/>
<text x="9" font-size="10" y="82" clip-path="url(#clipPath2)" stroke="none" xml:space="preserve">70</text>
<text x="751" font-size="10" y="82" clip-path="url(#clipPath2)" stroke="none" xml:space="preserve">70</text>
<line clip-path="url(#clipPath2)" fill="none" x1="22" x2="24" y1="68" y2="68"/>
<line clip-path="url(#clipPath2)" fill="none" x1="746" x2="744" y1="68" y2="68"/>
<line clip-path="url(#clipPath2)" fill="none" x1="22" x2="24" y1="57" y2="57"/>
<line clip-path="url(#clipPath2)" fill="none" x1="746" x2="744" y1="57" y2="57"/>
<line clip-path="url(#clipPath2)" fill="none" x1="22" x2="24" y1="47" y2="47"/>
<line clip-path="url(#clipPath2)" fill="none" x1="746" x2="744" y1="47" y2="47"/>
<line clip-path="url(#clipPath2)" fill="none" x1="22" x2="24" y1="36" y2="36"/>
<line clip-path="url(#clipPath2)" fill="none" x1="746" x2="744" y1="36" y2="36"/>
<line clip-path="url(#clipPath3)" fill="none" x1="40" x2="96" y1="456" y2="456"/>
<line clip-path="url(#clipPath3)" fill="none" x1="110" x2="166" y1="456" y2="456"/>
<line clip-path="url(#clipPath3)" fill="none" x1="180" x2="236" y1="456" y2="456"/>
<line clip-path="url(#clipPath3)" fill="none" x1="250" x2="306" y1="456" y2="456"/>
<line clip-path="url(#clipPath3)" fill="none" x1="320" x2="376" y1="456" y2="456"/>
<line clip-path="url(#clipPath3)" fill="none" x1="391" x2="447" y1="456" y2="456"/>
<line clip-path="url(#clipPath3)" fill="none" x1="461" x2="517" y1="456" y2="456"/>
<line clip-path="url(#clipPath3)" fill="none" x1="531" x2="587" y1="456" y2="456"/>
<line clip-path="url(#clipPath3)" fill="none" x1="601" x2="657" y1="456" y2="456"/>
<line clip-path="url(#clipPath3)" fill="none" x1="671" x2="727" y1="456" y2="456"/>
<text x="63" font-size="10" y="467" clip-path="url(#clipPath3)" stroke="none" xml:space="preserve">sensors[0]</text>
<text x="133" font-size="10" y="467" clip-path="url(#clipPath3)" stroke="none" xml:space="preserve">sensors[1]</text>
<text x="203" font-size="10" y="467" clip-path="url(#clipPath3)" stroke="none" xml:space="preserve">sensors[2]</text>
<text x="273" font-size="10" y="467" clip-path="url(#clipPath3)" stroke="none" xml:space="preserve">sensors[3]</text>
<text x="343" font-size="10" y="467" clip-path="url(#clipPath3)" stroke="none" xml:space="preserve">sensors[4]</text>
<text x="414" font-size="10" y="467" clip-path="url(#clipPath3)" stroke="none" xml:space="preserve">sensors[5]</text>
<text x="484" font-size="10" y="467" clip-path="url(#clipPath3)" stroke="none" xml:space="preserve">sensors[6]</text>
<text x="554" font-size="10" y="467" clip-path="url(#clipPath3)" stroke="none" xml:space="preserve">sensors[7]</text>
<text x="624" font-size="10" y="467" clip-path="url(#clipPath3)" stroke="none" xml:space="preserve">sensors[8]</text>
<text x="694" font-size="10" y="467" clip-path="url(#clipPath3)" stroke="none" xml:space="preserve">sensors[9]</text>
</g>
</g>
</svg>
