<?xml version="1.0" encoding="UTF-8"?><svg xmlns="http://www.w3.org/2000/svg" xmlns:xlink="http://www.w3.org/1999/xlink" stroke-dasharray="none" shape-rendering="auto" font-family="'Dialog'" width="768" text-rendering="auto" fill-opacity="1" contentScriptType="text/ecmascript" color-interpolation="auto" color-rendering="auto" preserveAspectRatio="xMidYMid meet" font-size="12" fill="black" stroke="black" image-rendering="auto" stroke-miterlimit="10" zoomAndPan="magnify" version="1.0" stroke-linecap="square" stroke-linejoin="miter" contentStyleType="text/css" font-style="normal" height="576" stroke-width="1" stroke-dashoffset="0" font-weight="normal" stroke-opacity="1">
<!--Generated by the Batik Graphics2D SVG Generator-->
<defs id="genericDefs"/>
<g>
<defs id="defs1">
<clipPath clipPathUnits="userSpaceOnUse" id="clipPath1">
<path d="M31 25 L737 25 L737 285 L31 285 L31 25 Z"/>
</clipPath>
<clipPath clipPathUnits="userSpaceOnUse" id="clipPath2">
<path d="M-1 -1 L769 -1 L769 577 L-1 577 L-1 -1 Z"/>
</clipPath>
<clipPath clipPathUnits="userSpaceOnUse" id="clipPath3">
<path d="M31 283 L737 283 L737 577 L31 577 L31 283 Z"/>
</clipPath>
</defs>
<g fill="white" text-rendering="geometricPrecision" font-family="'Segoe UI'" stroke-linejoin="round" stroke="white" stroke-width="0" stroke-miterlimit="0">
<rect x="32" y="26" clip-path="url(#clipPath1)" width="704" height="258" stroke="none"/>
</g>
<g stroke-linecap="butt" fill="rgb(204,204,204)" text-rendering="geometricPrecision" font-family="'Segoe UI'" stroke-dasharray="3,3" stroke="rgb(204,204,204)">
<line clip-path="url(#clipPath1)" fill="none" x1="32" x2="736" y1="284" y2="284"/>
<line clip-path="url(#clipPath1)" fill="none" x1="32" x2="736" y1="219" y2="219"/>
<line clip-path="url(#clipPath1)" fill="none" x1="32" x2="736" y1="155" y2="155"/>
<line clip-path="url(#clipPath1)" fill="none" x1="32" x2="736" y1="90" y2="90"/>
<line clip-path="url(#clipPath1)" fill="none" x1="32" x2="736" y1="26" y2="26"/>
<rect x="648" y="140" clip-path="url(#clipPath1)" fill="rgb(0,100,0)" width="44" height="143" stroke="none"/>
<rect x="648" y="140" clip-path="url(#clipPath1)" fill="none" width="44" stroke-dasharray="none" height="143"/>
<rect x="582" y="284" clip-path="url(#clipPath1)" fill="rgb(238,0,0)" width="44" stroke-dasharray="none" height="1" stroke="none"/>
<rect x="516" y="284" clip-path="url(#clipPath1)" fill="rgb(0,0,139)" width="44" stroke-dasharray="none" height="1" stroke="none"/>
<rect x="428" y="284" clip-path="url(#clipPath1)" fill="rgb(0,100,0)" width="44" stroke-dasharray="none" height="1" stroke="none"/>
<rect x="362" y="139" clip-path="url(#clipPath1)" fill="rgb(238,0,0)" width="44" stroke-dasharray="none" height="144" stroke="none"/>
<rect x="362" y="139" clip-path="url(#clipPath1)" fill="none" width="44" stroke-dasharray="none" height="144"/>
<rect x="296" y="284" clip-path="url(#clipPath1)" fill="rgb(0,0,139)" width="44" stroke-dasharray="none" height="1" stroke="none"/>
<rect x="208" y="284" clip-path="url(#clipPath1)" fill="rgb(0,100,0)" width="44" stroke-dasharray="none" height="1" stroke="none"/>
<rect x="142" y="284" clip-path="url(#clipPath1)" fill="rgb(238,0,0)" width="44" stroke-dasharray="none" height="1" stroke="none"/>
<rect x="76" y="138" clip-path="url(#clipPath1)" fill="rgb(0,0,139)" width="44" stroke-dasharray="none" height="145" stroke="none"/>
<rect x="76" y="138" clip-path="url(#clipPath1)" fill="none" width="44" stroke-dasharray="none" height="145"/>
<rect x="32" y="26" clip-path="url(#clipPath2)" fill="none" width="704" stroke-dasharray="none" height="258" stroke="black"/>
<line clip-path="url(#clipPath2)" fill="none" x1="33" x2="735" y1="284" y2="284" stroke-dasharray="none"/>
</g>
<g text-rendering="geometricPrecision" font-size="13" font-family="'Arial'" stroke-linecap="butt">
<text xml:space="preserve" x="332" y="12" clip-path="url(#clipPath2)" stroke="none">5mps Aglomerado</text>
<line clip-path="url(#clipPath2)" fill="none" x1="30" x2="30" y1="26" y2="284"/>
<line clip-path="url(#clipPath2)" fill="none" x1="738" x2="738" y1="26" y2="284"/>
<line clip-path="url(#clipPath2)" fill="none" x1="26" x2="30" y1="284" y2="284"/>
<line clip-path="url(#clipPath2)" fill="none" x1="742" x2="738" y1="284" y2="284"/>
<text x="20" font-size="10" y="287" clip-path="url(#clipPath2)" stroke="none" xml:space="preserve">0</text>
<text x="745" font-size="10" y="287" clip-path="url(#clipPath2)" stroke="none" xml:space="preserve">0</text>
<line clip-path="url(#clipPath2)" fill="none" x1="28" x2="30" y1="251" y2="251"/>
<line clip-path="url(#clipPath2)" fill="none" x1="740" x2="738" y1="251" y2="251"/>
<line clip-path="url(#clipPath2)" fill="none" x1="26" x2="30" y1="219" y2="219"/>
<line clip-path="url(#clipPath2)" fill="none" x1="742" x2="738" y1="219" y2="219"/>
<text x="15" font-size="10" y="222" clip-path="url(#clipPath2)" stroke="none" xml:space="preserve">20</text>
<text x="745" font-size="10" y="222" clip-path="url(#clipPath2)" stroke="none" xml:space="preserve">20</text>
<line clip-path="url(#clipPath2)" fill="none" x1="28" x2="30" y1="187" y2="187"/>
<line clip-path="url(#clipPath2)" fill="none" x1="740" x2="738" y1="187" y2="187"/>
<line clip-path="url(#clipPath2)" fill="none" x1="26" x2="30" y1="155" y2="155"/>
<line clip-path="url(#clipPath2)" fill="none" x1="742" x2="738" y1="155" y2="155"/>
<text x="15" font-size="10" y="158" clip-path="url(#clipPath2)" stroke="none" xml:space="preserve">40</text>
<text x="745" font-size="10" y="158" clip-path="url(#clipPath2)" stroke="none" xml:space="preserve">40</text>
<line clip-path="url(#clipPath2)" fill="none" x1="28" x2="30" y1="122" y2="122"/>
<line clip-path="url(#clipPath2)" fill="none" x1="740" x2="738" y1="122" y2="122"/>
<line clip-path="url(#clipPath2)" fill="none" x1="26" x2="30" y1="90" y2="90"/>
<line clip-path="url(#clipPath2)" fill="none" x1="742" x2="738" y1="90" y2="90"/>
<text x="15" font-size="10" y="93" clip-path="url(#clipPath2)" stroke="none" xml:space="preserve">60</text>
<text x="745" font-size="10" y="93" clip-path="url(#clipPath2)" stroke="none" xml:space="preserve">60</text>
<line clip-path="url(#clipPath2)" fill="none" x1="28" x2="30" y1="58" y2="58"/>
<line clip-path="url(#clipPath2)" fill="none" x1="740" x2="738" y1="58" y2="58"/>
<line clip-path="url(#clipPath2)" fill="none" x1="26" x2="30" y1="26" y2="26"/>
<line clip-path="url(#clipPath2)" fill="none" x1="742" x2="738" y1="26" y2="26"/>
<text x="15" font-size="10" y="29" clip-path="url(#clipPath2)" stroke="none" xml:space="preserve">80</text>
<text x="745" font-size="10" y="29" clip-path="url(#clipPath2)" stroke="none" xml:space="preserve">80</text>
<line clip-path="url(#clipPath3)" fill="none" x1="76" x2="252" y1="288" y2="288"/>
<line clip-path="url(#clipPath3)" fill="none" x1="296" x2="472" y1="288" y2="288"/>
<line clip-path="url(#clipPath3)" fill="none" x1="516" x2="692" y1="288" y2="288"/>
<text x="159" font-size="10" y="299" clip-path="url(#clipPath3)" stroke="none" xml:space="preserve">"paths/voo_mapa_novo20.waypoints" at 5mps</text>
<text x="379" font-size="10" y="299" clip-path="url(#clipPath3)" stroke="none" xml:space="preserve">"paths/voo_mapa_novo35.waypoints" at 5mps</text>
<text x="599" font-size="10" y="299" clip-path="url(#clipPath3)" stroke="none" xml:space="preserve">"paths/voo_mapa_novo50.waypoints" at 5mps</text>
</g>
</g>
</svg>
