<?xml version="1.0" encoding="UTF-8"?><svg xmlns="http://www.w3.org/2000/svg" xmlns:xlink="http://www.w3.org/1999/xlink" stroke-dasharray="none" shape-rendering="auto" font-family="'Dialog'" width="768" text-rendering="auto" fill-opacity="1" contentScriptType="text/ecmascript" color-interpolation="auto" color-rendering="auto" preserveAspectRatio="xMidYMid meet" font-size="12" fill="black" stroke="black" image-rendering="auto" stroke-miterlimit="10" zoomAndPan="magnify" version="1.0" stroke-linecap="square" stroke-linejoin="miter" contentStyleType="text/css" font-style="normal" height="576" stroke-width="1" stroke-dashoffset="0" font-weight="normal" stroke-opacity="1">
<!--Generated by the Batik Graphics2D SVG Generator-->
<defs id="genericDefs"/>
<g>
<defs id="defs1">
<clipPath clipPathUnits="userSpaceOnUse" id="clipPath1">
<path d="M31 25 L737 25 L737 453 L31 453 L31 25 Z"/>
</clipPath>
<clipPath clipPathUnits="userSpaceOnUse" id="clipPath2">
<path d="M-1 -1 L769 -1 L769 577 L-1 577 L-1 -1 Z"/>
</clipPath>
<clipPath clipPathUnits="userSpaceOnUse" id="clipPath3">
<path d="M31 451 L737 451 L737 577 L31 577 L31 451 Z"/>
</clipPath>
</defs>
<g fill="white" text-rendering="geometricPrecision" font-family="'Segoe UI'" stroke-linejoin="round" stroke="white" stroke-width="0" stroke-miterlimit="0">
<rect x="32" y="26" clip-path="url(#clipPath1)" width="704" height="426" stroke="none"/>
</g>
<g stroke-linecap="butt" fill="rgb(204,204,204)" text-rendering="geometricPrecision" font-family="'Segoe UI'" stroke-dasharray="3,3" stroke="rgb(204,204,204)">
<line clip-path="url(#clipPath1)" fill="none" x1="32" x2="736" y1="452" y2="452"/>
<line clip-path="url(#clipPath1)" fill="none" x1="32" x2="736" y1="361" y2="361"/>
<line clip-path="url(#clipPath1)" fill="none" x1="32" x2="736" y1="271" y2="271"/>
<line clip-path="url(#clipPath1)" fill="none" x1="32" x2="736" y1="180" y2="180"/>
<line clip-path="url(#clipPath1)" fill="none" x1="32" x2="736" y1="90" y2="90"/>
<rect x="708" y="233" clip-path="url(#clipPath1)" fill="rgb(0,100,0)" width="13" height="218" stroke="none"/>
<rect x="708" y="233" clip-path="url(#clipPath1)" fill="none" width="13" stroke-dasharray="none" height="218"/>
<rect x="687" y="285" clip-path="url(#clipPath1)" fill="rgb(238,0,0)" width="13" stroke-dasharray="none" height="166" stroke="none"/>
<rect x="687" y="285" clip-path="url(#clipPath1)" fill="none" width="13" stroke-dasharray="none" height="166"/>
<rect x="666" y="359" clip-path="url(#clipPath1)" fill="rgb(0,0,139)" width="13" stroke-dasharray="none" height="92" stroke="none"/>
<rect x="666" y="359" clip-path="url(#clipPath1)" fill="none" width="13" stroke-dasharray="none" height="92"/>
<rect x="639" y="234" clip-path="url(#clipPath1)" fill="rgb(0,100,0)" width="13" stroke-dasharray="none" height="217" stroke="none"/>
<rect x="639" y="234" clip-path="url(#clipPath1)" fill="none" width="13" stroke-dasharray="none" height="217"/>
<rect x="618" y="196" clip-path="url(#clipPath1)" fill="rgb(238,0,0)" width="13" stroke-dasharray="none" height="255" stroke="none"/>
<rect x="618" y="196" clip-path="url(#clipPath1)" fill="none" width="13" stroke-dasharray="none" height="255"/>
<rect x="597" y="187" clip-path="url(#clipPath1)" fill="rgb(0,0,139)" width="13" stroke-dasharray="none" height="264" stroke="none"/>
<rect x="597" y="187" clip-path="url(#clipPath1)" fill="none" width="13" stroke-dasharray="none" height="264"/>
<rect x="570" y="247" clip-path="url(#clipPath1)" fill="rgb(0,100,0)" width="13" stroke-dasharray="none" height="204" stroke="none"/>
<rect x="570" y="247" clip-path="url(#clipPath1)" fill="none" width="13" stroke-dasharray="none" height="204"/>
<rect x="549" y="218" clip-path="url(#clipPath1)" fill="rgb(238,0,0)" width="13" stroke-dasharray="none" height="233" stroke="none"/>
<rect x="549" y="218" clip-path="url(#clipPath1)" fill="none" width="13" stroke-dasharray="none" height="233"/>
<rect x="528" y="214" clip-path="url(#clipPath1)" fill="rgb(0,0,139)" width="13" stroke-dasharray="none" height="237" stroke="none"/>
<rect x="528" y="214" clip-path="url(#clipPath1)" fill="none" width="13" stroke-dasharray="none" height="237"/>
<rect x="501" y="233" clip-path="url(#clipPath1)" fill="rgb(0,100,0)" width="13" stroke-dasharray="none" height="218" stroke="none"/>
<rect x="501" y="233" clip-path="url(#clipPath1)" fill="none" width="13" stroke-dasharray="none" height="218"/>
<rect x="480" y="256" clip-path="url(#clipPath1)" fill="rgb(238,0,0)" width="13" stroke-dasharray="none" height="195" stroke="none"/>
<rect x="480" y="256" clip-path="url(#clipPath1)" fill="none" width="13" stroke-dasharray="none" height="195"/>
<rect x="459" y="216" clip-path="url(#clipPath1)" fill="rgb(0,0,139)" width="13" stroke-dasharray="none" height="235" stroke="none"/>
<rect x="459" y="216" clip-path="url(#clipPath1)" fill="none" width="13" stroke-dasharray="none" height="235"/>
<rect x="432" y="258" clip-path="url(#clipPath1)" fill="rgb(0,100,0)" width="13" stroke-dasharray="none" height="193" stroke="none"/>
<rect x="432" y="258" clip-path="url(#clipPath1)" fill="none" width="13" stroke-dasharray="none" height="193"/>
<rect x="411" y="278" clip-path="url(#clipPath1)" fill="rgb(238,0,0)" width="13" stroke-dasharray="none" height="173" stroke="none"/>
<rect x="411" y="278" clip-path="url(#clipPath1)" fill="none" width="13" stroke-dasharray="none" height="173"/>
<rect x="390" y="299" clip-path="url(#clipPath1)" fill="rgb(0,0,139)" width="13" stroke-dasharray="none" height="152" stroke="none"/>
<rect x="390" y="299" clip-path="url(#clipPath1)" fill="none" width="13" stroke-dasharray="none" height="152"/>
<rect x="363" y="147" clip-path="url(#clipPath1)" fill="rgb(0,100,0)" width="13" stroke-dasharray="none" height="304" stroke="none"/>
<rect x="363" y="147" clip-path="url(#clipPath1)" fill="none" width="13" stroke-dasharray="none" height="304"/>
<rect x="342" y="187" clip-path="url(#clipPath1)" fill="rgb(238,0,0)" width="13" stroke-dasharray="none" height="264" stroke="none"/>
<rect x="342" y="187" clip-path="url(#clipPath1)" fill="none" width="13" stroke-dasharray="none" height="264"/>
<rect x="321" y="189" clip-path="url(#clipPath1)" fill="rgb(0,0,139)" width="13" stroke-dasharray="none" height="262" stroke="none"/>
<rect x="321" y="189" clip-path="url(#clipPath1)" fill="none" width="13" stroke-dasharray="none" height="262"/>
<rect x="294" y="108" clip-path="url(#clipPath1)" fill="rgb(0,100,0)" width="13" stroke-dasharray="none" height="343" stroke="none"/>
<rect x="294" y="108" clip-path="url(#clipPath1)" fill="none" width="13" stroke-dasharray="none" height="343"/>
<rect x="273" y="64" clip-path="url(#clipPath1)" fill="rgb(238,0,0)" width="13" stroke-dasharray="none" height="387" stroke="none"/>
<rect x="273" y="64" clip-path="url(#clipPath1)" fill="none" width="13" stroke-dasharray="none" height="387"/>
<rect x="252" y="222" clip-path="url(#clipPath1)" fill="rgb(0,0,139)" width="13" stroke-dasharray="none" height="229" stroke="none"/>
<rect x="252" y="222" clip-path="url(#clipPath1)" fill="none" width="13" stroke-dasharray="none" height="229"/>
<rect x="225" y="99" clip-path="url(#clipPath1)" fill="rgb(0,100,0)" width="13" stroke-dasharray="none" height="352" stroke="none"/>
<rect x="225" y="99" clip-path="url(#clipPath1)" fill="none" width="13" stroke-dasharray="none" height="352"/>
<rect x="204" y="128" clip-path="url(#clipPath1)" fill="rgb(238,0,0)" width="13" stroke-dasharray="none" height="323" stroke="none"/>
<rect x="204" y="128" clip-path="url(#clipPath1)" fill="none" width="13" stroke-dasharray="none" height="323"/>
<rect x="183" y="106" clip-path="url(#clipPath1)" fill="rgb(0,0,139)" width="13" stroke-dasharray="none" height="345" stroke="none"/>
<rect x="183" y="106" clip-path="url(#clipPath1)" fill="none" width="13" stroke-dasharray="none" height="345"/>
<rect x="156" y="249" clip-path="url(#clipPath1)" fill="rgb(0,100,0)" width="13" stroke-dasharray="none" height="202" stroke="none"/>
<rect x="156" y="249" clip-path="url(#clipPath1)" fill="none" width="13" stroke-dasharray="none" height="202"/>
<rect x="135" y="247" clip-path="url(#clipPath1)" fill="rgb(238,0,0)" width="13" stroke-dasharray="none" height="204" stroke="none"/>
<rect x="135" y="247" clip-path="url(#clipPath1)" fill="none" width="13" stroke-dasharray="none" height="204"/>
<rect x="114" y="216" clip-path="url(#clipPath1)" fill="rgb(0,0,139)" width="13" stroke-dasharray="none" height="235" stroke="none"/>
<rect x="114" y="216" clip-path="url(#clipPath1)" fill="none" width="13" stroke-dasharray="none" height="235"/>
<rect x="87" y="229" clip-path="url(#clipPath1)" fill="rgb(0,100,0)" width="13" stroke-dasharray="none" height="222" stroke="none"/>
<rect x="87" y="229" clip-path="url(#clipPath1)" fill="none" width="13" stroke-dasharray="none" height="222"/>
<rect x="66" y="229" clip-path="url(#clipPath1)" fill="rgb(238,0,0)" width="13" stroke-dasharray="none" height="222" stroke="none"/>
<rect x="66" y="229" clip-path="url(#clipPath1)" fill="none" width="13" stroke-dasharray="none" height="222"/>
<rect x="45" y="189" clip-path="url(#clipPath1)" fill="rgb(0,0,139)" width="13" stroke-dasharray="none" height="262" stroke="none"/>
<rect x="45" y="189" clip-path="url(#clipPath1)" fill="none" width="13" stroke-dasharray="none" height="262"/>
<rect x="32" y="26" clip-path="url(#clipPath2)" fill="none" width="704" stroke-dasharray="none" height="426" stroke="black"/>
<line clip-path="url(#clipPath2)" fill="none" x1="33" x2="735" y1="452" y2="452" stroke-dasharray="none"/>
</g>
<g text-rendering="geometricPrecision" font-size="13" font-family="'Arial'" stroke-linecap="butt">
<text xml:space="preserve" x="296" y="12" clip-path="url(#clipPath2)" stroke="none">Scalar with Two Ray at 10mps</text>
<line clip-path="url(#clipPath2)" fill="none" x1="30" x2="30" y1="26" y2="452"/>
<line clip-path="url(#clipPath2)" fill="none" x1="738" x2="738" y1="26" y2="452"/>
<line clip-path="url(#clipPath2)" fill="none" x1="26" x2="30" y1="452" y2="452"/>
<line clip-path="url(#clipPath2)" fill="none" x1="742" x2="738" y1="452" y2="452"/>
<text x="20" font-size="10" y="455" clip-path="url(#clipPath2)" stroke="none" xml:space="preserve">0</text>
<text x="745" font-size="10" y="455" clip-path="url(#clipPath2)" stroke="none" xml:space="preserve">0</text>
<line clip-path="url(#clipPath2)" fill="none" x1="28" x2="30" y1="433" y2="433"/>
<line clip-path="url(#clipPath2)" fill="none" x1="740" x2="738" y1="433" y2="433"/>
<line clip-path="url(#clipPath2)" fill="none" x1="28" x2="30" y1="415" y2="415"/>
<line clip-path="url(#clipPath2)" fill="none" x1="740" x2="738" y1="415" y2="415"/>
<line clip-path="url(#clipPath2)" fill="none" x1="28" x2="30" y1="397" y2="397"/>
<line clip-path="url(#clipPath2)" fill="none" x1="740" x2="738" y1="397" y2="397"/>
<line clip-path="url(#clipPath2)" fill="none" x1="28" x2="30" y1="379" y2="379"/>
<line clip-path="url(#clipPath2)" fill="none" x1="740" x2="738" y1="379" y2="379"/>
<line clip-path="url(#clipPath2)" fill="none" x1="26" x2="30" y1="361" y2="361"/>
<line clip-path="url(#clipPath2)" fill="none" x1="742" x2="738" y1="361" y2="361"/>
<text x="15" font-size="10" y="364" clip-path="url(#clipPath2)" stroke="none" xml:space="preserve">50</text>
<text x="745" font-size="10" y="364" clip-path="url(#clipPath2)" stroke="none" xml:space="preserve">50</text>
<line clip-path="url(#clipPath2)" fill="none" x1="28" x2="30" y1="343" y2="343"/>
<line clip-path="url(#clipPath2)" fill="none" x1="740" x2="738" y1="343" y2="343"/>
<line clip-path="url(#clipPath2)" fill="none" x1="28" x2="30" y1="325" y2="325"/>
<line clip-path="url(#clipPath2)" fill="none" x1="740" x2="738" y1="325" y2="325"/>
<line clip-path="url(#clipPath2)" fill="none" x1="28" x2="30" y1="307" y2="307"/>
<line clip-path="url(#clipPath2)" fill="none" x1="740" x2="738" y1="307" y2="307"/>
<line clip-path="url(#clipPath2)" fill="none" x1="28" x2="30" y1="289" y2="289"/>
<line clip-path="url(#clipPath2)" fill="none" x1="740" x2="738" y1="289" y2="289"/>
<line clip-path="url(#clipPath2)" fill="none" x1="26" x2="30" y1="271" y2="271"/>
<line clip-path="url(#clipPath2)" fill="none" x1="742" x2="738" y1="271" y2="271"/>
<text x="10" font-size="10" y="274" clip-path="url(#clipPath2)" stroke="none" xml:space="preserve">100</text>
<text x="745" font-size="10" y="274" clip-path="url(#clipPath2)" stroke="none" xml:space="preserve">100</text>
<line clip-path="url(#clipPath2)" fill="none" x1="28" x2="30" y1="252" y2="252"/>
<line clip-path="url(#clipPath2)" fill="none" x1="740" x2="738" y1="252" y2="252"/>
<line clip-path="url(#clipPath2)" fill="none" x1="28" x2="30" y1="234" y2="234"/>
<line clip-path="url(#clipPath2)" fill="none" x1="740" x2="738" y1="234" y2="234"/>
<line clip-path="url(#clipPath2)" fill="none" x1="28" x2="30" y1="216" y2="216"/>
<line clip-path="url(#clipPath2)" fill="none" x1="740" x2="738" y1="216" y2="216"/>
<line clip-path="url(#clipPath2)" fill="none" x1="28" x2="30" y1="198" y2="198"/>
<line clip-path="url(#clipPath2)" fill="none" x1="740" x2="738" y1="198" y2="198"/>
<line clip-path="url(#clipPath2)" fill="none" x1="26" x2="30" y1="180" y2="180"/>
<line clip-path="url(#clipPath2)" fill="none" x1="742" x2="738" y1="180" y2="180"/>
<text x="10" font-size="10" y="183" clip-path="url(#clipPath2)" stroke="none" xml:space="preserve">150</text>
<text x="745" font-size="10" y="183" clip-path="url(#clipPath2)" stroke="none" xml:space="preserve">150</text>
<line clip-path="url(#clipPath2)" fill="none" x1="28" x2="30" y1="162" y2="162"/>
<line clip-path="url(#clipPath2)" fill="none" x1="740" x2="738" y1="162" y2="162"/>
<line clip-path="url(#clipPath2)" fill="none" x1="28" x2="30" y1="144" y2="144"/>
<line clip-path="url(#clipPath2)" fill="none" x1="740" x2="738" y1="144" y2="144"/>
<line clip-path="url(#clipPath2)" fill="none" x1="28" x2="30" y1="126" y2="126"/>
<line clip-path="url(#clipPath2)" fill="none" x1="740" x2="738" y1="126" y2="126"/>
<line clip-path="url(#clipPath2)" fill="none" x1="28" x2="30" y1="108" y2="108"/>
<line clip-path="url(#clipPath2)" fill="none" x1="740" x2="738" y1="108" y2="108"/>
<line clip-path="url(#clipPath2)" fill="none" x1="26" x2="30" y1="90" y2="90"/>
<line clip-path="url(#clipPath2)" fill="none" x1="742" x2="738" y1="90" y2="90"/>
<text x="10" font-size="10" y="93" clip-path="url(#clipPath2)" stroke="none" xml:space="preserve">200</text>
<text x="745" font-size="10" y="93" clip-path="url(#clipPath2)" stroke="none" xml:space="preserve">200</text>
<line clip-path="url(#clipPath2)" fill="none" x1="28" x2="30" y1="71" y2="71"/>
<line clip-path="url(#clipPath2)" fill="none" x1="740" x2="738" y1="71" y2="71"/>
<line clip-path="url(#clipPath2)" fill="none" x1="28" x2="30" y1="53" y2="53"/>
<line clip-path="url(#clipPath2)" fill="none" x1="740" x2="738" y1="53" y2="53"/>
<line clip-path="url(#clipPath2)" fill="none" x1="28" x2="30" y1="35" y2="35"/>
<line clip-path="url(#clipPath2)" fill="none" x1="740" x2="738" y1="35" y2="35"/>
<line clip-path="url(#clipPath3)" fill="none" x1="45" x2="100" y1="456" y2="456"/>
<line clip-path="url(#clipPath3)" fill="none" x1="114" x2="169" y1="456" y2="456"/>
<line clip-path="url(#clipPath3)" fill="none" x1="183" x2="238" y1="456" y2="456"/>
<line clip-path="url(#clipPath3)" fill="none" x1="252" x2="307" y1="456" y2="456"/>
<line clip-path="url(#clipPath3)" fill="none" x1="321" x2="376" y1="456" y2="456"/>
<line clip-path="url(#clipPath3)" fill="none" x1="390" x2="445" y1="456" y2="456"/>
<line clip-path="url(#clipPath3)" fill="none" x1="459" x2="514" y1="456" y2="456"/>
<line clip-path="url(#clipPath3)" fill="none" x1="528" x2="583" y1="456" y2="456"/>
<line clip-path="url(#clipPath3)" fill="none" x1="597" x2="652" y1="456" y2="456"/>
<line clip-path="url(#clipPath3)" fill="none" x1="666" x2="721" y1="456" y2="456"/>
<text x="67" font-size="10" y="467" clip-path="url(#clipPath3)" stroke="none" xml:space="preserve">sensors[0]</text>
<text x="136" font-size="10" y="467" clip-path="url(#clipPath3)" stroke="none" xml:space="preserve">sensors[1]</text>
<text x="205" font-size="10" y="467" clip-path="url(#clipPath3)" stroke="none" xml:space="preserve">sensors[2]</text>
<text x="274" font-size="10" y="467" clip-path="url(#clipPath3)" stroke="none" xml:space="preserve">sensors[3]</text>
<text x="343" font-size="10" y="467" clip-path="url(#clipPath3)" stroke="none" xml:space="preserve">sensors[4]</text>
<text x="412" font-size="10" y="467" clip-path="url(#clipPath3)" stroke="none" xml:space="preserve">sensors[5]</text>
<text x="481" font-size="10" y="467" clip-path="url(#clipPath3)" stroke="none" xml:space="preserve">sensors[6]</text>
<text x="550" font-size="10" y="467" clip-path="url(#clipPath3)" stroke="none" xml:space="preserve">sensors[7]</text>
<text x="619" font-size="10" y="467" clip-path="url(#clipPath3)" stroke="none" xml:space="preserve">sensors[8]</text>
<text x="688" font-size="10" y="467" clip-path="url(#clipPath3)" stroke="none" xml:space="preserve">sensors[9]</text>
</g>
</g>
</svg>
