<?xml version="1.0" encoding="UTF-8"?><svg xmlns="http://www.w3.org/2000/svg" xmlns:xlink="http://www.w3.org/1999/xlink" stroke-dasharray="none" shape-rendering="auto" font-family="'Dialog'" width="768" text-rendering="auto" fill-opacity="1" contentScriptType="text/ecmascript" color-interpolation="auto" color-rendering="auto" preserveAspectRatio="xMidYMid meet" font-size="12" fill="black" stroke="black" image-rendering="auto" stroke-miterlimit="10" zoomAndPan="magnify" version="1.0" stroke-linecap="square" stroke-linejoin="miter" contentStyleType="text/css" font-style="normal" height="576" stroke-width="1" stroke-dashoffset="0" font-weight="normal" stroke-opacity="1">
<!--Generated by the Batik Graphics2D SVG Generator-->
<defs id="genericDefs"/>
<g>
<defs id="defs1">
<clipPath clipPathUnits="userSpaceOnUse" id="clipPath1">
<path d="M31 25 L737 25 L737 453 L31 453 L31 25 Z"/>
</clipPath>
<clipPath clipPathUnits="userSpaceOnUse" id="clipPath2">
<path d="M-1 -1 L769 -1 L769 577 L-1 577 L-1 -1 Z"/>
</clipPath>
<clipPath clipPathUnits="userSpaceOnUse" id="clipPath3">
<path d="M31 451 L737 451 L737 577 L31 577 L31 451 Z"/>
</clipPath>
</defs>
<g fill="white" text-rendering="geometricPrecision" font-family="'Segoe UI'" stroke-linejoin="round" stroke="white" stroke-width="0" stroke-miterlimit="0">
<rect x="32" y="26" clip-path="url(#clipPath1)" width="704" height="426" stroke="none"/>
</g>
<g stroke-linecap="butt" fill="rgb(204,204,204)" text-rendering="geometricPrecision" font-family="'Segoe UI'" stroke-dasharray="3,3" stroke="rgb(204,204,204)">
<line clip-path="url(#clipPath1)" fill="none" x1="32" x2="736" y1="452" y2="452"/>
<line clip-path="url(#clipPath1)" fill="none" x1="32" x2="736" y1="366" y2="366"/>
<line clip-path="url(#clipPath1)" fill="none" x1="32" x2="736" y1="281" y2="281"/>
<line clip-path="url(#clipPath1)" fill="none" x1="32" x2="736" y1="196" y2="196"/>
<line clip-path="url(#clipPath1)" fill="none" x1="32" x2="736" y1="111" y2="111"/>
<line clip-path="url(#clipPath1)" fill="none" x1="32" x2="736" y1="26" y2="26"/>
<rect x="708" y="380" clip-path="url(#clipPath1)" fill="rgb(0,100,0)" width="13" height="71" stroke="none"/>
<rect x="708" y="380" clip-path="url(#clipPath1)" fill="none" width="13" stroke-dasharray="none" height="71"/>
<rect x="687" y="371" clip-path="url(#clipPath1)" fill="rgb(238,0,0)" width="13" stroke-dasharray="none" height="80" stroke="none"/>
<rect x="687" y="371" clip-path="url(#clipPath1)" fill="none" width="13" stroke-dasharray="none" height="80"/>
<rect x="666" y="380" clip-path="url(#clipPath1)" fill="rgb(0,0,139)" width="13" stroke-dasharray="none" height="71" stroke="none"/>
<rect x="666" y="380" clip-path="url(#clipPath1)" fill="none" width="13" stroke-dasharray="none" height="71"/>
<rect x="639" y="295" clip-path="url(#clipPath1)" fill="rgb(0,100,0)" width="13" stroke-dasharray="none" height="156" stroke="none"/>
<rect x="639" y="295" clip-path="url(#clipPath1)" fill="none" width="13" stroke-dasharray="none" height="156"/>
<rect x="618" y="291" clip-path="url(#clipPath1)" fill="rgb(238,0,0)" width="13" stroke-dasharray="none" height="160" stroke="none"/>
<rect x="618" y="291" clip-path="url(#clipPath1)" fill="none" width="13" stroke-dasharray="none" height="160"/>
<rect x="597" y="237" clip-path="url(#clipPath1)" fill="rgb(0,0,139)" width="13" stroke-dasharray="none" height="214" stroke="none"/>
<rect x="597" y="237" clip-path="url(#clipPath1)" fill="none" width="13" stroke-dasharray="none" height="214"/>
<rect x="570" y="291" clip-path="url(#clipPath1)" fill="rgb(0,100,0)" width="13" stroke-dasharray="none" height="160" stroke="none"/>
<rect x="570" y="291" clip-path="url(#clipPath1)" fill="none" width="13" stroke-dasharray="none" height="160"/>
<rect x="549" y="264" clip-path="url(#clipPath1)" fill="rgb(238,0,0)" width="13" stroke-dasharray="none" height="187" stroke="none"/>
<rect x="549" y="264" clip-path="url(#clipPath1)" fill="none" width="13" stroke-dasharray="none" height="187"/>
<rect x="528" y="298" clip-path="url(#clipPath1)" fill="rgb(0,0,139)" width="13" stroke-dasharray="none" height="153" stroke="none"/>
<rect x="528" y="298" clip-path="url(#clipPath1)" fill="none" width="13" stroke-dasharray="none" height="153"/>
<rect x="501" y="271" clip-path="url(#clipPath1)" fill="rgb(0,100,0)" width="13" stroke-dasharray="none" height="180" stroke="none"/>
<rect x="501" y="271" clip-path="url(#clipPath1)" fill="none" width="13" stroke-dasharray="none" height="180"/>
<rect x="480" y="266" clip-path="url(#clipPath1)" fill="rgb(238,0,0)" width="13" stroke-dasharray="none" height="185" stroke="none"/>
<rect x="480" y="266" clip-path="url(#clipPath1)" fill="none" width="13" stroke-dasharray="none" height="185"/>
<rect x="459" y="259" clip-path="url(#clipPath1)" fill="rgb(0,0,139)" width="13" stroke-dasharray="none" height="192" stroke="none"/>
<rect x="459" y="259" clip-path="url(#clipPath1)" fill="none" width="13" stroke-dasharray="none" height="192"/>
<rect x="432" y="296" clip-path="url(#clipPath1)" fill="rgb(0,100,0)" width="13" stroke-dasharray="none" height="155" stroke="none"/>
<rect x="432" y="296" clip-path="url(#clipPath1)" fill="none" width="13" stroke-dasharray="none" height="155"/>
<rect x="411" y="283" clip-path="url(#clipPath1)" fill="rgb(238,0,0)" width="13" stroke-dasharray="none" height="168" stroke="none"/>
<rect x="411" y="283" clip-path="url(#clipPath1)" fill="none" width="13" stroke-dasharray="none" height="168"/>
<rect x="390" y="261" clip-path="url(#clipPath1)" fill="rgb(0,0,139)" width="13" stroke-dasharray="none" height="190" stroke="none"/>
<rect x="390" y="261" clip-path="url(#clipPath1)" fill="none" width="13" stroke-dasharray="none" height="190"/>
<rect x="363" y="288" clip-path="url(#clipPath1)" fill="rgb(0,100,0)" width="13" stroke-dasharray="none" height="163" stroke="none"/>
<rect x="363" y="288" clip-path="url(#clipPath1)" fill="none" width="13" stroke-dasharray="none" height="163"/>
<rect x="342" y="276" clip-path="url(#clipPath1)" fill="rgb(238,0,0)" width="13" stroke-dasharray="none" height="175" stroke="none"/>
<rect x="342" y="276" clip-path="url(#clipPath1)" fill="none" width="13" stroke-dasharray="none" height="175"/>
<rect x="321" y="261" clip-path="url(#clipPath1)" fill="rgb(0,0,139)" width="13" stroke-dasharray="none" height="190" stroke="none"/>
<rect x="321" y="261" clip-path="url(#clipPath1)" fill="none" width="13" stroke-dasharray="none" height="190"/>
<rect x="294" y="290" clip-path="url(#clipPath1)" fill="rgb(0,100,0)" width="13" stroke-dasharray="none" height="161" stroke="none"/>
<rect x="294" y="290" clip-path="url(#clipPath1)" fill="none" width="13" stroke-dasharray="none" height="161"/>
<rect x="273" y="271" clip-path="url(#clipPath1)" fill="rgb(238,0,0)" width="13" stroke-dasharray="none" height="180" stroke="none"/>
<rect x="273" y="271" clip-path="url(#clipPath1)" fill="none" width="13" stroke-dasharray="none" height="180"/>
<rect x="252" y="269" clip-path="url(#clipPath1)" fill="rgb(0,0,139)" width="13" stroke-dasharray="none" height="182" stroke="none"/>
<rect x="252" y="269" clip-path="url(#clipPath1)" fill="none" width="13" stroke-dasharray="none" height="182"/>
<rect x="225" y="303" clip-path="url(#clipPath1)" fill="rgb(0,100,0)" width="13" stroke-dasharray="none" height="148" stroke="none"/>
<rect x="225" y="303" clip-path="url(#clipPath1)" fill="none" width="13" stroke-dasharray="none" height="148"/>
<rect x="204" y="271" clip-path="url(#clipPath1)" fill="rgb(238,0,0)" width="13" stroke-dasharray="none" height="180" stroke="none"/>
<rect x="204" y="271" clip-path="url(#clipPath1)" fill="none" width="13" stroke-dasharray="none" height="180"/>
<rect x="183" y="273" clip-path="url(#clipPath1)" fill="rgb(0,0,139)" width="13" stroke-dasharray="none" height="178" stroke="none"/>
<rect x="183" y="273" clip-path="url(#clipPath1)" fill="none" width="13" stroke-dasharray="none" height="178"/>
<rect x="156" y="288" clip-path="url(#clipPath1)" fill="rgb(0,100,0)" width="13" stroke-dasharray="none" height="163" stroke="none"/>
<rect x="156" y="288" clip-path="url(#clipPath1)" fill="none" width="13" stroke-dasharray="none" height="163"/>
<rect x="135" y="233" clip-path="url(#clipPath1)" fill="rgb(238,0,0)" width="13" stroke-dasharray="none" height="218" stroke="none"/>
<rect x="135" y="233" clip-path="url(#clipPath1)" fill="none" width="13" stroke-dasharray="none" height="218"/>
<rect x="114" y="216" clip-path="url(#clipPath1)" fill="rgb(0,0,139)" width="13" stroke-dasharray="none" height="235" stroke="none"/>
<rect x="114" y="216" clip-path="url(#clipPath1)" fill="none" width="13" stroke-dasharray="none" height="235"/>
<rect x="87" y="194" clip-path="url(#clipPath1)" fill="rgb(0,100,0)" width="13" stroke-dasharray="none" height="257" stroke="none"/>
<rect x="87" y="194" clip-path="url(#clipPath1)" fill="none" width="13" stroke-dasharray="none" height="257"/>
<rect x="66" y="199" clip-path="url(#clipPath1)" fill="rgb(238,0,0)" width="13" stroke-dasharray="none" height="252" stroke="none"/>
<rect x="66" y="199" clip-path="url(#clipPath1)" fill="none" width="13" stroke-dasharray="none" height="252"/>
<rect x="45" y="215" clip-path="url(#clipPath1)" fill="rgb(0,0,139)" width="13" stroke-dasharray="none" height="236" stroke="none"/>
<rect x="45" y="215" clip-path="url(#clipPath1)" fill="none" width="13" stroke-dasharray="none" height="236"/>
<rect x="32" y="26" clip-path="url(#clipPath2)" fill="none" width="704" stroke-dasharray="none" height="426" stroke="black"/>
<line clip-path="url(#clipPath2)" fill="none" x1="33" x2="735" y1="452" y2="452" stroke-dasharray="none"/>
</g>
<g text-rendering="geometricPrecision" font-size="13" font-family="'Arial'" stroke-linecap="butt">
<text xml:space="preserve" x="267" y="12" clip-path="url(#clipPath2)" stroke="none">Unit Disk with default pathloss at 10mps</text>
<line clip-path="url(#clipPath2)" fill="none" x1="30" x2="30" y1="26" y2="452"/>
<line clip-path="url(#clipPath2)" fill="none" x1="738" x2="738" y1="26" y2="452"/>
<line clip-path="url(#clipPath2)" fill="none" x1="26" x2="30" y1="452" y2="452"/>
<line clip-path="url(#clipPath2)" fill="none" x1="742" x2="738" y1="452" y2="452"/>
<text x="20" font-size="10" y="455" clip-path="url(#clipPath2)" stroke="none" xml:space="preserve">0</text>
<text x="745" font-size="10" y="455" clip-path="url(#clipPath2)" stroke="none" xml:space="preserve">0</text>
<line clip-path="url(#clipPath2)" fill="none" x1="28" x2="30" y1="434" y2="434"/>
<line clip-path="url(#clipPath2)" fill="none" x1="740" x2="738" y1="434" y2="434"/>
<line clip-path="url(#clipPath2)" fill="none" x1="28" x2="30" y1="417" y2="417"/>
<line clip-path="url(#clipPath2)" fill="none" x1="740" x2="738" y1="417" y2="417"/>
<line clip-path="url(#clipPath2)" fill="none" x1="28" x2="30" y1="400" y2="400"/>
<line clip-path="url(#clipPath2)" fill="none" x1="740" x2="738" y1="400" y2="400"/>
<line clip-path="url(#clipPath2)" fill="none" x1="28" x2="30" y1="383" y2="383"/>
<line clip-path="url(#clipPath2)" fill="none" x1="740" x2="738" y1="383" y2="383"/>
<line clip-path="url(#clipPath2)" fill="none" x1="26" x2="30" y1="366" y2="366"/>
<line clip-path="url(#clipPath2)" fill="none" x1="742" x2="738" y1="366" y2="366"/>
<text x="15" font-size="10" y="369" clip-path="url(#clipPath2)" stroke="none" xml:space="preserve">50</text>
<text x="745" font-size="10" y="369" clip-path="url(#clipPath2)" stroke="none" xml:space="preserve">50</text>
<line clip-path="url(#clipPath2)" fill="none" x1="28" x2="30" y1="349" y2="349"/>
<line clip-path="url(#clipPath2)" fill="none" x1="740" x2="738" y1="349" y2="349"/>
<line clip-path="url(#clipPath2)" fill="none" x1="28" x2="30" y1="332" y2="332"/>
<line clip-path="url(#clipPath2)" fill="none" x1="740" x2="738" y1="332" y2="332"/>
<line clip-path="url(#clipPath2)" fill="none" x1="28" x2="30" y1="315" y2="315"/>
<line clip-path="url(#clipPath2)" fill="none" x1="740" x2="738" y1="315" y2="315"/>
<line clip-path="url(#clipPath2)" fill="none" x1="28" x2="30" y1="298" y2="298"/>
<line clip-path="url(#clipPath2)" fill="none" x1="740" x2="738" y1="298" y2="298"/>
<line clip-path="url(#clipPath2)" fill="none" x1="26" x2="30" y1="281" y2="281"/>
<line clip-path="url(#clipPath2)" fill="none" x1="742" x2="738" y1="281" y2="281"/>
<text x="10" font-size="10" y="284" clip-path="url(#clipPath2)" stroke="none" xml:space="preserve">100</text>
<text x="745" font-size="10" y="284" clip-path="url(#clipPath2)" stroke="none" xml:space="preserve">100</text>
<line clip-path="url(#clipPath2)" fill="none" x1="28" x2="30" y1="264" y2="264"/>
<line clip-path="url(#clipPath2)" fill="none" x1="740" x2="738" y1="264" y2="264"/>
<line clip-path="url(#clipPath2)" fill="none" x1="28" x2="30" y1="247" y2="247"/>
<line clip-path="url(#clipPath2)" fill="none" x1="740" x2="738" y1="247" y2="247"/>
<line clip-path="url(#clipPath2)" fill="none" x1="28" x2="30" y1="230" y2="230"/>
<line clip-path="url(#clipPath2)" fill="none" x1="740" x2="738" y1="230" y2="230"/>
<line clip-path="url(#clipPath2)" fill="none" x1="28" x2="30" y1="213" y2="213"/>
<line clip-path="url(#clipPath2)" fill="none" x1="740" x2="738" y1="213" y2="213"/>
<line clip-path="url(#clipPath2)" fill="none" x1="26" x2="30" y1="196" y2="196"/>
<line clip-path="url(#clipPath2)" fill="none" x1="742" x2="738" y1="196" y2="196"/>
<text x="10" font-size="10" y="199" clip-path="url(#clipPath2)" stroke="none" xml:space="preserve">150</text>
<text x="745" font-size="10" y="199" clip-path="url(#clipPath2)" stroke="none" xml:space="preserve">150</text>
<line clip-path="url(#clipPath2)" fill="none" x1="28" x2="30" y1="179" y2="179"/>
<line clip-path="url(#clipPath2)" fill="none" x1="740" x2="738" y1="179" y2="179"/>
<line clip-path="url(#clipPath2)" fill="none" x1="28" x2="30" y1="162" y2="162"/>
<line clip-path="url(#clipPath2)" fill="none" x1="740" x2="738" y1="162" y2="162"/>
<line clip-path="url(#clipPath2)" fill="none" x1="28" x2="30" y1="145" y2="145"/>
<line clip-path="url(#clipPath2)" fill="none" x1="740" x2="738" y1="145" y2="145"/>
<line clip-path="url(#clipPath2)" fill="none" x1="28" x2="30" y1="128" y2="128"/>
<line clip-path="url(#clipPath2)" fill="none" x1="740" x2="738" y1="128" y2="128"/>
<line clip-path="url(#clipPath2)" fill="none" x1="26" x2="30" y1="111" y2="111"/>
<line clip-path="url(#clipPath2)" fill="none" x1="742" x2="738" y1="111" y2="111"/>
<text x="10" font-size="10" y="114" clip-path="url(#clipPath2)" stroke="none" xml:space="preserve">200</text>
<text x="745" font-size="10" y="114" clip-path="url(#clipPath2)" stroke="none" xml:space="preserve">200</text>
<line clip-path="url(#clipPath2)" fill="none" x1="28" x2="30" y1="94" y2="94"/>
<line clip-path="url(#clipPath2)" fill="none" x1="740" x2="738" y1="94" y2="94"/>
<line clip-path="url(#clipPath2)" fill="none" x1="28" x2="30" y1="77" y2="77"/>
<line clip-path="url(#clipPath2)" fill="none" x1="740" x2="738" y1="77" y2="77"/>
<line clip-path="url(#clipPath2)" fill="none" x1="28" x2="30" y1="60" y2="60"/>
<line clip-path="url(#clipPath2)" fill="none" x1="740" x2="738" y1="60" y2="60"/>
<line clip-path="url(#clipPath2)" fill="none" x1="28" x2="30" y1="43" y2="43"/>
<line clip-path="url(#clipPath2)" fill="none" x1="740" x2="738" y1="43" y2="43"/>
<line clip-path="url(#clipPath2)" fill="none" x1="26" x2="30" y1="26" y2="26"/>
<line clip-path="url(#clipPath2)" fill="none" x1="742" x2="738" y1="26" y2="26"/>
<text x="10" font-size="10" y="29" clip-path="url(#clipPath2)" stroke="none" xml:space="preserve">250</text>
<text x="745" font-size="10" y="29" clip-path="url(#clipPath2)" stroke="none" xml:space="preserve">250</text>
<line clip-path="url(#clipPath3)" fill="none" x1="45" x2="100" y1="456" y2="456"/>
<line clip-path="url(#clipPath3)" fill="none" x1="114" x2="169" y1="456" y2="456"/>
<line clip-path="url(#clipPath3)" fill="none" x1="183" x2="238" y1="456" y2="456"/>
<line clip-path="url(#clipPath3)" fill="none" x1="252" x2="307" y1="456" y2="456"/>
<line clip-path="url(#clipPath3)" fill="none" x1="321" x2="376" y1="456" y2="456"/>
<line clip-path="url(#clipPath3)" fill="none" x1="390" x2="445" y1="456" y2="456"/>
<line clip-path="url(#clipPath3)" fill="none" x1="459" x2="514" y1="456" y2="456"/>
<line clip-path="url(#clipPath3)" fill="none" x1="528" x2="583" y1="456" y2="456"/>
<line clip-path="url(#clipPath3)" fill="none" x1="597" x2="652" y1="456" y2="456"/>
<line clip-path="url(#clipPath3)" fill="none" x1="666" x2="721" y1="456" y2="456"/>
<text x="67" font-size="10" y="467" clip-path="url(#clipPath3)" stroke="none" xml:space="preserve">sensors[0]</text>
<text x="136" font-size="10" y="467" clip-path="url(#clipPath3)" stroke="none" xml:space="preserve">sensors[1]</text>
<text x="205" font-size="10" y="467" clip-path="url(#clipPath3)" stroke="none" xml:space="preserve">sensors[2]</text>
<text x="274" font-size="10" y="467" clip-path="url(#clipPath3)" stroke="none" xml:space="preserve">sensors[3]</text>
<text x="343" font-size="10" y="467" clip-path="url(#clipPath3)" stroke="none" xml:space="preserve">sensors[4]</text>
<text x="412" font-size="10" y="467" clip-path="url(#clipPath3)" stroke="none" xml:space="preserve">sensors[5]</text>
<text x="481" font-size="10" y="467" clip-path="url(#clipPath3)" stroke="none" xml:space="preserve">sensors[6]</text>
<text x="550" font-size="10" y="467" clip-path="url(#clipPath3)" stroke="none" xml:space="preserve">sensors[7]</text>
<text x="619" font-size="10" y="467" clip-path="url(#clipPath3)" stroke="none" xml:space="preserve">sensors[8]</text>
<text x="688" font-size="10" y="467" clip-path="url(#clipPath3)" stroke="none" xml:space="preserve">sensors[9]</text>
</g>
</g>
</svg>
