<?xml version="1.0" encoding="UTF-8"?><svg xmlns="http://www.w3.org/2000/svg" xmlns:xlink="http://www.w3.org/1999/xlink" stroke-dasharray="none" shape-rendering="auto" font-family="'Dialog'" width="768" text-rendering="auto" fill-opacity="1" contentScriptType="text/ecmascript" color-interpolation="auto" color-rendering="auto" preserveAspectRatio="xMidYMid meet" font-size="12" fill="black" stroke="black" image-rendering="auto" stroke-miterlimit="10" zoomAndPan="magnify" version="1.0" stroke-linecap="square" stroke-linejoin="miter" contentStyleType="text/css" font-style="normal" height="576" stroke-width="1" stroke-dashoffset="0" font-weight="normal" stroke-opacity="1">
<!--Generated by the Batik Graphics2D SVG Generator-->
<defs id="genericDefs"/>
<g>
<defs id="defs1">
<clipPath clipPathUnits="userSpaceOnUse" id="clipPath1">
<path d="M31 25 L737 25 L737 453 L31 453 L31 25 Z"/>
</clipPath>
<clipPath clipPathUnits="userSpaceOnUse" id="clipPath2">
<path d="M-1 -1 L769 -1 L769 577 L-1 577 L-1 -1 Z"/>
</clipPath>
<clipPath clipPathUnits="userSpaceOnUse" id="clipPath3">
<path d="M31 451 L737 451 L737 577 L31 577 L31 451 Z"/>
</clipPath>
</defs>
<g fill="white" text-rendering="geometricPrecision" font-family="'Segoe UI'" stroke-linejoin="round" stroke="white" stroke-width="0" stroke-miterlimit="0">
<rect x="32" y="26" clip-path="url(#clipPath1)" width="704" height="426" stroke="none"/>
</g>
<g stroke-linecap="butt" fill="rgb(204,204,204)" text-rendering="geometricPrecision" font-family="'Segoe UI'" stroke-dasharray="3,3" stroke="rgb(204,204,204)">
<line clip-path="url(#clipPath1)" fill="none" x1="32" x2="736" y1="452" y2="452"/>
<line clip-path="url(#clipPath1)" fill="none" x1="32" x2="736" y1="381" y2="381"/>
<line clip-path="url(#clipPath1)" fill="none" x1="32" x2="736" y1="310" y2="310"/>
<line clip-path="url(#clipPath1)" fill="none" x1="32" x2="736" y1="239" y2="239"/>
<line clip-path="url(#clipPath1)" fill="none" x1="32" x2="736" y1="168" y2="168"/>
<line clip-path="url(#clipPath1)" fill="none" x1="32" x2="736" y1="97" y2="97"/>
<rect x="708" y="241" clip-path="url(#clipPath1)" fill="rgb(0,100,0)" width="13" height="210" stroke="none"/>
<rect x="708" y="241" clip-path="url(#clipPath1)" fill="none" width="13" stroke-dasharray="none" height="210"/>
<rect x="687" y="199" clip-path="url(#clipPath1)" fill="rgb(238,0,0)" width="13" stroke-dasharray="none" height="252" stroke="none"/>
<rect x="687" y="199" clip-path="url(#clipPath1)" fill="none" width="13" stroke-dasharray="none" height="252"/>
<rect x="666" y="224" clip-path="url(#clipPath1)" fill="rgb(0,0,139)" width="13" stroke-dasharray="none" height="227" stroke="none"/>
<rect x="666" y="224" clip-path="url(#clipPath1)" fill="none" width="13" stroke-dasharray="none" height="227"/>
<rect x="639" y="183" clip-path="url(#clipPath1)" fill="rgb(0,100,0)" width="13" stroke-dasharray="none" height="268" stroke="none"/>
<rect x="639" y="183" clip-path="url(#clipPath1)" fill="none" width="13" stroke-dasharray="none" height="268"/>
<rect x="618" y="224" clip-path="url(#clipPath1)" fill="rgb(238,0,0)" width="13" stroke-dasharray="none" height="227" stroke="none"/>
<rect x="618" y="224" clip-path="url(#clipPath1)" fill="none" width="13" stroke-dasharray="none" height="227"/>
<rect x="597" y="241" clip-path="url(#clipPath1)" fill="rgb(0,0,139)" width="13" stroke-dasharray="none" height="210" stroke="none"/>
<rect x="597" y="241" clip-path="url(#clipPath1)" fill="none" width="13" stroke-dasharray="none" height="210"/>
<rect x="570" y="192" clip-path="url(#clipPath1)" fill="rgb(0,100,0)" width="13" stroke-dasharray="none" height="259" stroke="none"/>
<rect x="570" y="192" clip-path="url(#clipPath1)" fill="none" width="13" stroke-dasharray="none" height="259"/>
<rect x="549" y="221" clip-path="url(#clipPath1)" fill="rgb(238,0,0)" width="13" stroke-dasharray="none" height="230" stroke="none"/>
<rect x="549" y="221" clip-path="url(#clipPath1)" fill="none" width="13" stroke-dasharray="none" height="230"/>
<rect x="528" y="177" clip-path="url(#clipPath1)" fill="rgb(0,0,139)" width="13" stroke-dasharray="none" height="274" stroke="none"/>
<rect x="528" y="177" clip-path="url(#clipPath1)" fill="none" width="13" stroke-dasharray="none" height="274"/>
<rect x="501" y="251" clip-path="url(#clipPath1)" fill="rgb(0,100,0)" width="13" stroke-dasharray="none" height="200" stroke="none"/>
<rect x="501" y="251" clip-path="url(#clipPath1)" fill="none" width="13" stroke-dasharray="none" height="200"/>
<rect x="480" y="203" clip-path="url(#clipPath1)" fill="rgb(238,0,0)" width="13" stroke-dasharray="none" height="248" stroke="none"/>
<rect x="480" y="203" clip-path="url(#clipPath1)" fill="none" width="13" stroke-dasharray="none" height="248"/>
<rect x="459" y="224" clip-path="url(#clipPath1)" fill="rgb(0,0,139)" width="13" stroke-dasharray="none" height="227" stroke="none"/>
<rect x="459" y="224" clip-path="url(#clipPath1)" fill="none" width="13" stroke-dasharray="none" height="227"/>
<rect x="432" y="230" clip-path="url(#clipPath1)" fill="rgb(0,100,0)" width="13" stroke-dasharray="none" height="221" stroke="none"/>
<rect x="432" y="230" clip-path="url(#clipPath1)" fill="none" width="13" stroke-dasharray="none" height="221"/>
<rect x="411" y="189" clip-path="url(#clipPath1)" fill="rgb(238,0,0)" width="13" stroke-dasharray="none" height="262" stroke="none"/>
<rect x="411" y="189" clip-path="url(#clipPath1)" fill="none" width="13" stroke-dasharray="none" height="262"/>
<rect x="390" y="177" clip-path="url(#clipPath1)" fill="rgb(0,0,139)" width="13" stroke-dasharray="none" height="274" stroke="none"/>
<rect x="390" y="177" clip-path="url(#clipPath1)" fill="none" width="13" stroke-dasharray="none" height="274"/>
<rect x="363" y="207" clip-path="url(#clipPath1)" fill="rgb(0,100,0)" width="13" stroke-dasharray="none" height="244" stroke="none"/>
<rect x="363" y="207" clip-path="url(#clipPath1)" fill="none" width="13" stroke-dasharray="none" height="244"/>
<rect x="342" y="229" clip-path="url(#clipPath1)" fill="rgb(238,0,0)" width="13" stroke-dasharray="none" height="222" stroke="none"/>
<rect x="342" y="229" clip-path="url(#clipPath1)" fill="none" width="13" stroke-dasharray="none" height="222"/>
<rect x="321" y="209" clip-path="url(#clipPath1)" fill="rgb(0,0,139)" width="13" stroke-dasharray="none" height="242" stroke="none"/>
<rect x="321" y="209" clip-path="url(#clipPath1)" fill="none" width="13" stroke-dasharray="none" height="242"/>
<rect x="294" y="192" clip-path="url(#clipPath1)" fill="rgb(0,100,0)" width="13" stroke-dasharray="none" height="259" stroke="none"/>
<rect x="294" y="192" clip-path="url(#clipPath1)" fill="none" width="13" stroke-dasharray="none" height="259"/>
<rect x="273" y="230" clip-path="url(#clipPath1)" fill="rgb(238,0,0)" width="13" stroke-dasharray="none" height="221" stroke="none"/>
<rect x="273" y="230" clip-path="url(#clipPath1)" fill="none" width="13" stroke-dasharray="none" height="221"/>
<rect x="252" y="209" clip-path="url(#clipPath1)" fill="rgb(0,0,139)" width="13" stroke-dasharray="none" height="242" stroke="none"/>
<rect x="252" y="209" clip-path="url(#clipPath1)" fill="none" width="13" stroke-dasharray="none" height="242"/>
<rect x="225" y="244" clip-path="url(#clipPath1)" fill="rgb(0,100,0)" width="13" stroke-dasharray="none" height="207" stroke="none"/>
<rect x="225" y="244" clip-path="url(#clipPath1)" fill="none" width="13" stroke-dasharray="none" height="207"/>
<rect x="204" y="194" clip-path="url(#clipPath1)" fill="rgb(238,0,0)" width="13" stroke-dasharray="none" height="257" stroke="none"/>
<rect x="204" y="194" clip-path="url(#clipPath1)" fill="none" width="13" stroke-dasharray="none" height="257"/>
<rect x="183" y="226" clip-path="url(#clipPath1)" fill="rgb(0,0,139)" width="13" stroke-dasharray="none" height="225" stroke="none"/>
<rect x="183" y="226" clip-path="url(#clipPath1)" fill="none" width="13" stroke-dasharray="none" height="225"/>
<rect x="156" y="177" clip-path="url(#clipPath1)" fill="rgb(0,100,0)" width="13" stroke-dasharray="none" height="274" stroke="none"/>
<rect x="156" y="177" clip-path="url(#clipPath1)" fill="none" width="13" stroke-dasharray="none" height="274"/>
<rect x="135" y="200" clip-path="url(#clipPath1)" fill="rgb(238,0,0)" width="13" stroke-dasharray="none" height="251" stroke="none"/>
<rect x="135" y="200" clip-path="url(#clipPath1)" fill="none" width="13" stroke-dasharray="none" height="251"/>
<rect x="114" y="197" clip-path="url(#clipPath1)" fill="rgb(0,0,139)" width="13" stroke-dasharray="none" height="254" stroke="none"/>
<rect x="114" y="197" clip-path="url(#clipPath1)" fill="none" width="13" stroke-dasharray="none" height="254"/>
<rect x="87" y="190" clip-path="url(#clipPath1)" fill="rgb(0,100,0)" width="13" stroke-dasharray="none" height="261" stroke="none"/>
<rect x="87" y="190" clip-path="url(#clipPath1)" fill="none" width="13" stroke-dasharray="none" height="261"/>
<rect x="66" y="217" clip-path="url(#clipPath1)" fill="rgb(238,0,0)" width="13" stroke-dasharray="none" height="234" stroke="none"/>
<rect x="66" y="217" clip-path="url(#clipPath1)" fill="none" width="13" stroke-dasharray="none" height="234"/>
<rect x="45" y="219" clip-path="url(#clipPath1)" fill="rgb(0,0,139)" width="13" stroke-dasharray="none" height="232" stroke="none"/>
<rect x="45" y="219" clip-path="url(#clipPath1)" fill="none" width="13" stroke-dasharray="none" height="232"/>
<rect x="32" y="26" clip-path="url(#clipPath2)" fill="none" width="704" stroke-dasharray="none" height="426" stroke="black"/>
<line clip-path="url(#clipPath2)" fill="none" x1="33" x2="735" y1="452" y2="452" stroke-dasharray="none"/>
</g>
<g text-rendering="geometricPrecision" font-size="13" font-family="'Arial'" stroke-linecap="butt">
<text xml:space="preserve" x="313" y="12" clip-path="url(#clipPath2)" stroke="none">default pathloss at 5mps</text>
<line clip-path="url(#clipPath2)" fill="none" x1="30" x2="30" y1="26" y2="452"/>
<line clip-path="url(#clipPath2)" fill="none" x1="738" x2="738" y1="26" y2="452"/>
<line clip-path="url(#clipPath2)" fill="none" x1="26" x2="30" y1="452" y2="452"/>
<line clip-path="url(#clipPath2)" fill="none" x1="742" x2="738" y1="452" y2="452"/>
<text x="20" font-size="10" y="455" clip-path="url(#clipPath2)" stroke="none" xml:space="preserve">0</text>
<text x="745" font-size="10" y="455" clip-path="url(#clipPath2)" stroke="none" xml:space="preserve">0</text>
<line clip-path="url(#clipPath2)" fill="none" x1="28" x2="30" y1="437" y2="437"/>
<line clip-path="url(#clipPath2)" fill="none" x1="740" x2="738" y1="437" y2="437"/>
<line clip-path="url(#clipPath2)" fill="none" x1="28" x2="30" y1="423" y2="423"/>
<line clip-path="url(#clipPath2)" fill="none" x1="740" x2="738" y1="423" y2="423"/>
<line clip-path="url(#clipPath2)" fill="none" x1="28" x2="30" y1="409" y2="409"/>
<line clip-path="url(#clipPath2)" fill="none" x1="740" x2="738" y1="409" y2="409"/>
<line clip-path="url(#clipPath2)" fill="none" x1="28" x2="30" y1="395" y2="395"/>
<line clip-path="url(#clipPath2)" fill="none" x1="740" x2="738" y1="395" y2="395"/>
<line clip-path="url(#clipPath2)" fill="none" x1="26" x2="30" y1="381" y2="381"/>
<line clip-path="url(#clipPath2)" fill="none" x1="742" x2="738" y1="381" y2="381"/>
<text x="15" font-size="10" y="384" clip-path="url(#clipPath2)" stroke="none" xml:space="preserve">50</text>
<text x="745" font-size="10" y="384" clip-path="url(#clipPath2)" stroke="none" xml:space="preserve">50</text>
<line clip-path="url(#clipPath2)" fill="none" x1="28" x2="30" y1="366" y2="366"/>
<line clip-path="url(#clipPath2)" fill="none" x1="740" x2="738" y1="366" y2="366"/>
<line clip-path="url(#clipPath2)" fill="none" x1="28" x2="30" y1="352" y2="352"/>
<line clip-path="url(#clipPath2)" fill="none" x1="740" x2="738" y1="352" y2="352"/>
<line clip-path="url(#clipPath2)" fill="none" x1="28" x2="30" y1="338" y2="338"/>
<line clip-path="url(#clipPath2)" fill="none" x1="740" x2="738" y1="338" y2="338"/>
<line clip-path="url(#clipPath2)" fill="none" x1="28" x2="30" y1="324" y2="324"/>
<line clip-path="url(#clipPath2)" fill="none" x1="740" x2="738" y1="324" y2="324"/>
<line clip-path="url(#clipPath2)" fill="none" x1="26" x2="30" y1="310" y2="310"/>
<line clip-path="url(#clipPath2)" fill="none" x1="742" x2="738" y1="310" y2="310"/>
<text x="10" font-size="10" y="313" clip-path="url(#clipPath2)" stroke="none" xml:space="preserve">100</text>
<text x="745" font-size="10" y="313" clip-path="url(#clipPath2)" stroke="none" xml:space="preserve">100</text>
<line clip-path="url(#clipPath2)" fill="none" x1="28" x2="30" y1="295" y2="295"/>
<line clip-path="url(#clipPath2)" fill="none" x1="740" x2="738" y1="295" y2="295"/>
<line clip-path="url(#clipPath2)" fill="none" x1="28" x2="30" y1="281" y2="281"/>
<line clip-path="url(#clipPath2)" fill="none" x1="740" x2="738" y1="281" y2="281"/>
<line clip-path="url(#clipPath2)" fill="none" x1="28" x2="30" y1="267" y2="267"/>
<line clip-path="url(#clipPath2)" fill="none" x1="740" x2="738" y1="267" y2="267"/>
<line clip-path="url(#clipPath2)" fill="none" x1="28" x2="30" y1="253" y2="253"/>
<line clip-path="url(#clipPath2)" fill="none" x1="740" x2="738" y1="253" y2="253"/>
<line clip-path="url(#clipPath2)" fill="none" x1="26" x2="30" y1="239" y2="239"/>
<line clip-path="url(#clipPath2)" fill="none" x1="742" x2="738" y1="239" y2="239"/>
<text x="10" font-size="10" y="242" clip-path="url(#clipPath2)" stroke="none" xml:space="preserve">150</text>
<text x="745" font-size="10" y="242" clip-path="url(#clipPath2)" stroke="none" xml:space="preserve">150</text>
<line clip-path="url(#clipPath2)" fill="none" x1="28" x2="30" y1="224" y2="224"/>
<line clip-path="url(#clipPath2)" fill="none" x1="740" x2="738" y1="224" y2="224"/>
<line clip-path="url(#clipPath2)" fill="none" x1="28" x2="30" y1="210" y2="210"/>
<line clip-path="url(#clipPath2)" fill="none" x1="740" x2="738" y1="210" y2="210"/>
<line clip-path="url(#clipPath2)" fill="none" x1="28" x2="30" y1="196" y2="196"/>
<line clip-path="url(#clipPath2)" fill="none" x1="740" x2="738" y1="196" y2="196"/>
<line clip-path="url(#clipPath2)" fill="none" x1="28" x2="30" y1="182" y2="182"/>
<line clip-path="url(#clipPath2)" fill="none" x1="740" x2="738" y1="182" y2="182"/>
<line clip-path="url(#clipPath2)" fill="none" x1="26" x2="30" y1="168" y2="168"/>
<line clip-path="url(#clipPath2)" fill="none" x1="742" x2="738" y1="168" y2="168"/>
<text x="10" font-size="10" y="171" clip-path="url(#clipPath2)" stroke="none" xml:space="preserve">200</text>
<text x="745" font-size="10" y="171" clip-path="url(#clipPath2)" stroke="none" xml:space="preserve">200</text>
<line clip-path="url(#clipPath2)" fill="none" x1="28" x2="30" y1="153" y2="153"/>
<line clip-path="url(#clipPath2)" fill="none" x1="740" x2="738" y1="153" y2="153"/>
<line clip-path="url(#clipPath2)" fill="none" x1="28" x2="30" y1="139" y2="139"/>
<line clip-path="url(#clipPath2)" fill="none" x1="740" x2="738" y1="139" y2="139"/>
<line clip-path="url(#clipPath2)" fill="none" x1="28" x2="30" y1="125" y2="125"/>
<line clip-path="url(#clipPath2)" fill="none" x1="740" x2="738" y1="125" y2="125"/>
<line clip-path="url(#clipPath2)" fill="none" x1="28" x2="30" y1="111" y2="111"/>
<line clip-path="url(#clipPath2)" fill="none" x1="740" x2="738" y1="111" y2="111"/>
<line clip-path="url(#clipPath2)" fill="none" x1="26" x2="30" y1="97" y2="97"/>
<line clip-path="url(#clipPath2)" fill="none" x1="742" x2="738" y1="97" y2="97"/>
<text x="10" font-size="10" y="100" clip-path="url(#clipPath2)" stroke="none" xml:space="preserve">250</text>
<text x="745" font-size="10" y="100" clip-path="url(#clipPath2)" stroke="none" xml:space="preserve">250</text>
<line clip-path="url(#clipPath2)" fill="none" x1="28" x2="30" y1="82" y2="82"/>
<line clip-path="url(#clipPath2)" fill="none" x1="740" x2="738" y1="82" y2="82"/>
<line clip-path="url(#clipPath2)" fill="none" x1="28" x2="30" y1="68" y2="68"/>
<line clip-path="url(#clipPath2)" fill="none" x1="740" x2="738" y1="68" y2="68"/>
<line clip-path="url(#clipPath2)" fill="none" x1="28" x2="30" y1="54" y2="54"/>
<line clip-path="url(#clipPath2)" fill="none" x1="740" x2="738" y1="54" y2="54"/>
<line clip-path="url(#clipPath2)" fill="none" x1="28" x2="30" y1="40" y2="40"/>
<line clip-path="url(#clipPath2)" fill="none" x1="740" x2="738" y1="40" y2="40"/>
<line clip-path="url(#clipPath3)" fill="none" x1="45" x2="100" y1="456" y2="456"/>
<line clip-path="url(#clipPath3)" fill="none" x1="114" x2="169" y1="456" y2="456"/>
<line clip-path="url(#clipPath3)" fill="none" x1="183" x2="238" y1="456" y2="456"/>
<line clip-path="url(#clipPath3)" fill="none" x1="252" x2="307" y1="456" y2="456"/>
<line clip-path="url(#clipPath3)" fill="none" x1="321" x2="376" y1="456" y2="456"/>
<line clip-path="url(#clipPath3)" fill="none" x1="390" x2="445" y1="456" y2="456"/>
<line clip-path="url(#clipPath3)" fill="none" x1="459" x2="514" y1="456" y2="456"/>
<line clip-path="url(#clipPath3)" fill="none" x1="528" x2="583" y1="456" y2="456"/>
<line clip-path="url(#clipPath3)" fill="none" x1="597" x2="652" y1="456" y2="456"/>
<line clip-path="url(#clipPath3)" fill="none" x1="666" x2="721" y1="456" y2="456"/>
<text x="67" font-size="10" y="467" clip-path="url(#clipPath3)" stroke="none" xml:space="preserve">sensors[0]</text>
<text x="136" font-size="10" y="467" clip-path="url(#clipPath3)" stroke="none" xml:space="preserve">sensors[1]</text>
<text x="205" font-size="10" y="467" clip-path="url(#clipPath3)" stroke="none" xml:space="preserve">sensors[2]</text>
<text x="274" font-size="10" y="467" clip-path="url(#clipPath3)" stroke="none" xml:space="preserve">sensors[3]</text>
<text x="343" font-size="10" y="467" clip-path="url(#clipPath3)" stroke="none" xml:space="preserve">sensors[4]</text>
<text x="412" font-size="10" y="467" clip-path="url(#clipPath3)" stroke="none" xml:space="preserve">sensors[5]</text>
<text x="481" font-size="10" y="467" clip-path="url(#clipPath3)" stroke="none" xml:space="preserve">sensors[6]</text>
<text x="550" font-size="10" y="467" clip-path="url(#clipPath3)" stroke="none" xml:space="preserve">sensors[7]</text>
<text x="619" font-size="10" y="467" clip-path="url(#clipPath3)" stroke="none" xml:space="preserve">sensors[8]</text>
<text x="688" font-size="10" y="467" clip-path="url(#clipPath3)" stroke="none" xml:space="preserve">sensors[9]</text>
</g>
</g>
</svg>
