<?xml version="1.0" encoding="UTF-8"?><svg xmlns="http://www.w3.org/2000/svg" xmlns:xlink="http://www.w3.org/1999/xlink" stroke-dasharray="none" shape-rendering="auto" font-family="'Dialog'" width="1233" text-rendering="auto" fill-opacity="1" contentScriptType="text/ecmascript" color-interpolation="auto" color-rendering="auto" preserveAspectRatio="xMidYMid meet" font-size="12" fill="black" stroke="black" image-rendering="auto" stroke-miterlimit="10" zoomAndPan="magnify" version="1.0" stroke-linecap="square" stroke-linejoin="miter" contentStyleType="text/css" font-style="normal" height="593" stroke-width="1" stroke-dashoffset="0" font-weight="normal" stroke-opacity="1">
<!--Generated by the Batik Graphics2D SVG Generator-->
<defs id="genericDefs"/>
<g>
<defs id="defs1">
<clipPath clipPathUnits="userSpaceOnUse" id="clipPath1">
<path d="M37 9 L1196 9 L1196 568 L37 568 L37 9 Z"/>
</clipPath>
<clipPath clipPathUnits="userSpaceOnUse" id="clipPath2">
<path d="M-1 -1 L1234 -1 L1234 594 L-1 594 L-1 -1 Z"/>
</clipPath>
<clipPath clipPathUnits="userSpaceOnUse" id="clipPath3">
<path d="M37 566 L1196 566 L1196 594 L37 594 L37 566 Z"/>
</clipPath>
</defs>
<g fill="white" text-rendering="geometricPrecision" font-family="'Segoe UI'" stroke-linejoin="round" stroke="white" stroke-width="0" stroke-miterlimit="0">
<rect x="38" y="10" clip-path="url(#clipPath1)" width="1157" height="557" stroke="none"/>
</g>
<g stroke-linecap="butt" fill="rgb(204,204,204)" text-rendering="geometricPrecision" font-family="'Segoe UI'" stroke-dasharray="3,3" stroke="rgb(204,204,204)">
<line clip-path="url(#clipPath1)" fill="none" x1="38" x2="1195" y1="567" y2="567"/>
<line clip-path="url(#clipPath1)" fill="none" x1="38" x2="1195" y1="494" y2="494"/>
<line clip-path="url(#clipPath1)" fill="none" x1="38" x2="1195" y1="422" y2="422"/>
<line clip-path="url(#clipPath1)" fill="none" x1="38" x2="1195" y1="350" y2="350"/>
<line clip-path="url(#clipPath1)" fill="none" x1="38" x2="1195" y1="278" y2="278"/>
<line clip-path="url(#clipPath1)" fill="none" x1="38" x2="1195" y1="206" y2="206"/>
<line clip-path="url(#clipPath1)" fill="none" x1="38" x2="1195" y1="134" y2="134"/>
<line clip-path="url(#clipPath1)" fill="none" x1="38" x2="1195" y1="62" y2="62"/>
<rect x="1161" y="407" clip-path="url(#clipPath1)" fill="rgb(255,165,0)" width="16" height="159" stroke="none"/>
<rect x="1161" y="407" clip-path="url(#clipPath1)" fill="none" width="16" stroke-dasharray="none" height="159"/>
<rect x="1136" y="486" clip-path="url(#clipPath1)" fill="rgb(0,100,0)" width="16" stroke-dasharray="none" height="80" stroke="none"/>
<rect x="1136" y="486" clip-path="url(#clipPath1)" fill="none" width="16" stroke-dasharray="none" height="80"/>
<rect x="1111" y="529" clip-path="url(#clipPath1)" fill="rgb(238,0,0)" width="16" stroke-dasharray="none" height="37" stroke="none"/>
<rect x="1111" y="529" clip-path="url(#clipPath1)" fill="none" width="16" stroke-dasharray="none" height="37"/>
<rect x="1086" y="544" clip-path="url(#clipPath1)" fill="rgb(0,0,139)" width="16" stroke-dasharray="none" height="22" stroke="none"/>
<rect x="1086" y="544" clip-path="url(#clipPath1)" fill="none" width="16" stroke-dasharray="none" height="22"/>
<rect x="1046" y="261" clip-path="url(#clipPath1)" fill="rgb(255,165,0)" width="16" stroke-dasharray="none" height="305" stroke="none"/>
<rect x="1046" y="261" clip-path="url(#clipPath1)" fill="none" width="16" stroke-dasharray="none" height="305"/>
<rect x="1021" y="413" clip-path="url(#clipPath1)" fill="rgb(0,100,0)" width="16" stroke-dasharray="none" height="153" stroke="none"/>
<rect x="1021" y="413" clip-path="url(#clipPath1)" fill="none" width="16" stroke-dasharray="none" height="153"/>
<rect x="996" y="485" clip-path="url(#clipPath1)" fill="rgb(238,0,0)" width="16" stroke-dasharray="none" height="81" stroke="none"/>
<rect x="996" y="485" clip-path="url(#clipPath1)" fill="none" width="16" stroke-dasharray="none" height="81"/>
<rect x="971" y="533" clip-path="url(#clipPath1)" fill="rgb(0,0,139)" width="16" stroke-dasharray="none" height="33" stroke="none"/>
<rect x="971" y="533" clip-path="url(#clipPath1)" fill="none" width="16" stroke-dasharray="none" height="33"/>
<rect x="932" y="170" clip-path="url(#clipPath1)" fill="rgb(255,165,0)" width="16" stroke-dasharray="none" height="396" stroke="none"/>
<rect x="932" y="170" clip-path="url(#clipPath1)" fill="none" width="16" stroke-dasharray="none" height="396"/>
<rect x="907" y="382" clip-path="url(#clipPath1)" fill="rgb(0,100,0)" width="16" stroke-dasharray="none" height="184" stroke="none"/>
<rect x="907" y="382" clip-path="url(#clipPath1)" fill="none" width="16" stroke-dasharray="none" height="184"/>
<rect x="882" y="473" clip-path="url(#clipPath1)" fill="rgb(238,0,0)" width="16" stroke-dasharray="none" height="93" stroke="none"/>
<rect x="882" y="473" clip-path="url(#clipPath1)" fill="none" width="16" stroke-dasharray="none" height="93"/>
<rect x="857" y="520" clip-path="url(#clipPath1)" fill="rgb(0,0,139)" width="16" stroke-dasharray="none" height="46" stroke="none"/>
<rect x="857" y="520" clip-path="url(#clipPath1)" fill="none" width="16" stroke-dasharray="none" height="46"/>
<rect x="817" y="187" clip-path="url(#clipPath1)" fill="rgb(255,165,0)" width="16" stroke-dasharray="none" height="379" stroke="none"/>
<rect x="817" y="187" clip-path="url(#clipPath1)" fill="none" width="16" stroke-dasharray="none" height="379"/>
<rect x="792" y="379" clip-path="url(#clipPath1)" fill="rgb(0,100,0)" width="16" stroke-dasharray="none" height="187" stroke="none"/>
<rect x="792" y="379" clip-path="url(#clipPath1)" fill="none" width="16" stroke-dasharray="none" height="187"/>
<rect x="767" y="472" clip-path="url(#clipPath1)" fill="rgb(238,0,0)" width="16" stroke-dasharray="none" height="94" stroke="none"/>
<rect x="767" y="472" clip-path="url(#clipPath1)" fill="none" width="16" stroke-dasharray="none" height="94"/>
<rect x="742" y="518" clip-path="url(#clipPath1)" fill="rgb(0,0,139)" width="16" stroke-dasharray="none" height="48" stroke="none"/>
<rect x="742" y="518" clip-path="url(#clipPath1)" fill="none" width="16" stroke-dasharray="none" height="48"/>
<rect x="703" y="272" clip-path="url(#clipPath1)" fill="rgb(255,165,0)" width="16" stroke-dasharray="none" height="294" stroke="none"/>
<rect x="703" y="272" clip-path="url(#clipPath1)" fill="none" width="16" stroke-dasharray="none" height="294"/>
<rect x="677" y="421" clip-path="url(#clipPath1)" fill="rgb(0,100,0)" width="16" stroke-dasharray="none" height="145" stroke="none"/>
<rect x="677" y="421" clip-path="url(#clipPath1)" fill="none" width="16" stroke-dasharray="none" height="145"/>
<rect x="652" y="492" clip-path="url(#clipPath1)" fill="rgb(238,0,0)" width="16" stroke-dasharray="none" height="74" stroke="none"/>
<rect x="652" y="492" clip-path="url(#clipPath1)" fill="none" width="16" stroke-dasharray="none" height="74"/>
<rect x="627" y="527" clip-path="url(#clipPath1)" fill="rgb(0,0,139)" width="16" stroke-dasharray="none" height="39" stroke="none"/>
<rect x="627" y="527" clip-path="url(#clipPath1)" fill="none" width="16" stroke-dasharray="none" height="39"/>
<rect x="588" y="129" clip-path="url(#clipPath1)" fill="rgb(255,165,0)" width="16" stroke-dasharray="none" height="437" stroke="none"/>
<rect x="588" y="129" clip-path="url(#clipPath1)" fill="none" width="16" stroke-dasharray="none" height="437"/>
<rect x="563" y="337" clip-path="url(#clipPath1)" fill="rgb(0,100,0)" width="16" stroke-dasharray="none" height="229" stroke="none"/>
<rect x="563" y="337" clip-path="url(#clipPath1)" fill="none" width="16" stroke-dasharray="none" height="229"/>
<rect x="538" y="456" clip-path="url(#clipPath1)" fill="rgb(238,0,0)" width="16" stroke-dasharray="none" height="110" stroke="none"/>
<rect x="538" y="456" clip-path="url(#clipPath1)" fill="none" width="16" stroke-dasharray="none" height="110"/>
<rect x="513" y="508" clip-path="url(#clipPath1)" fill="rgb(0,0,139)" width="16" stroke-dasharray="none" height="58" stroke="none"/>
<rect x="513" y="508" clip-path="url(#clipPath1)" fill="none" width="16" stroke-dasharray="none" height="58"/>
<rect x="473" y="209" clip-path="url(#clipPath1)" fill="rgb(255,165,0)" width="16" stroke-dasharray="none" height="357" stroke="none"/>
<rect x="473" y="209" clip-path="url(#clipPath1)" fill="none" width="16" stroke-dasharray="none" height="357"/>
<rect x="448" y="390" clip-path="url(#clipPath1)" fill="rgb(0,100,0)" width="16" stroke-dasharray="none" height="176" stroke="none"/>
<rect x="448" y="390" clip-path="url(#clipPath1)" fill="none" width="16" stroke-dasharray="none" height="176"/>
<rect x="423" y="477" clip-path="url(#clipPath1)" fill="rgb(238,0,0)" width="16" stroke-dasharray="none" height="89" stroke="none"/>
<rect x="423" y="477" clip-path="url(#clipPath1)" fill="none" width="16" stroke-dasharray="none" height="89"/>
<rect x="398" y="524" clip-path="url(#clipPath1)" fill="rgb(0,0,139)" width="16" stroke-dasharray="none" height="42" stroke="none"/>
<rect x="398" y="524" clip-path="url(#clipPath1)" fill="none" width="16" stroke-dasharray="none" height="42"/>
<rect x="359" y="60" clip-path="url(#clipPath1)" fill="rgb(255,165,0)" width="16" stroke-dasharray="none" height="506" stroke="none"/>
<rect x="359" y="60" clip-path="url(#clipPath1)" fill="none" width="16" stroke-dasharray="none" height="506"/>
<rect x="334" y="304" clip-path="url(#clipPath1)" fill="rgb(0,100,0)" width="16" stroke-dasharray="none" height="262" stroke="none"/>
<rect x="334" y="304" clip-path="url(#clipPath1)" fill="none" width="16" stroke-dasharray="none" height="262"/>
<rect x="309" y="437" clip-path="url(#clipPath1)" fill="rgb(238,0,0)" width="16" stroke-dasharray="none" height="129" stroke="none"/>
<rect x="309" y="437" clip-path="url(#clipPath1)" fill="none" width="16" stroke-dasharray="none" height="129"/>
<rect x="283" y="506" clip-path="url(#clipPath1)" fill="rgb(0,0,139)" width="16" stroke-dasharray="none" height="60" stroke="none"/>
<rect x="283" y="506" clip-path="url(#clipPath1)" fill="none" width="16" stroke-dasharray="none" height="60"/>
<rect x="244" y="143" clip-path="url(#clipPath1)" fill="rgb(255,165,0)" width="16" stroke-dasharray="none" height="423" stroke="none"/>
<rect x="244" y="143" clip-path="url(#clipPath1)" fill="none" width="16" stroke-dasharray="none" height="423"/>
<rect x="219" y="357" clip-path="url(#clipPath1)" fill="rgb(0,100,0)" width="16" stroke-dasharray="none" height="209" stroke="none"/>
<rect x="219" y="357" clip-path="url(#clipPath1)" fill="none" width="16" stroke-dasharray="none" height="209"/>
<rect x="194" y="460" clip-path="url(#clipPath1)" fill="rgb(238,0,0)" width="16" stroke-dasharray="none" height="106" stroke="none"/>
<rect x="194" y="460" clip-path="url(#clipPath1)" fill="none" width="16" stroke-dasharray="none" height="106"/>
<rect x="169" y="515" clip-path="url(#clipPath1)" fill="rgb(0,0,139)" width="16" stroke-dasharray="none" height="51" stroke="none"/>
<rect x="169" y="515" clip-path="url(#clipPath1)" fill="none" width="16" stroke-dasharray="none" height="51"/>
<rect x="129" y="99" clip-path="url(#clipPath1)" fill="rgb(255,165,0)" width="16" stroke-dasharray="none" height="467" stroke="none"/>
<rect x="129" y="99" clip-path="url(#clipPath1)" fill="none" width="16" stroke-dasharray="none" height="467"/>
<rect x="104" y="330" clip-path="url(#clipPath1)" fill="rgb(0,100,0)" width="16" stroke-dasharray="none" height="236" stroke="none"/>
<rect x="104" y="330" clip-path="url(#clipPath1)" fill="none" width="16" stroke-dasharray="none" height="236"/>
<rect x="79" y="453" clip-path="url(#clipPath1)" fill="rgb(238,0,0)" width="16" stroke-dasharray="none" height="113" stroke="none"/>
<rect x="79" y="453" clip-path="url(#clipPath1)" fill="none" width="16" stroke-dasharray="none" height="113"/>
<rect x="54" y="507" clip-path="url(#clipPath1)" fill="rgb(0,0,139)" width="16" stroke-dasharray="none" height="59" stroke="none"/>
<rect x="54" y="507" clip-path="url(#clipPath1)" fill="none" width="16" stroke-dasharray="none" height="59"/>
<rect x="38" y="10" clip-path="url(#clipPath2)" fill="none" width="1157" stroke-dasharray="none" height="557" stroke="black"/>
<line clip-path="url(#clipPath2)" fill="none" x1="39" x2="1194" y1="567" y2="567" stroke-dasharray="none"/>
</g>
<g text-rendering="geometricPrecision" font-size="13" font-family="'Arial'" stroke-linecap="butt">
<line clip-path="url(#clipPath2)" fill="none" x1="36" x2="36" y1="10" y2="567"/>
<line clip-path="url(#clipPath2)" fill="none" x1="1197" x2="1197" y1="10" y2="567"/>
<line clip-path="url(#clipPath2)" fill="none" x1="32" x2="36" y1="567" y2="567"/>
<line clip-path="url(#clipPath2)" fill="none" x1="1201" x2="1197" y1="567" y2="567"/>
<text x="26" font-size="10" y="570" clip-path="url(#clipPath2)" stroke="none" xml:space="preserve">0</text>
<text x="1204" font-size="10" y="570" clip-path="url(#clipPath2)" stroke="none" xml:space="preserve">0</text>
<line clip-path="url(#clipPath2)" fill="none" x1="34" x2="36" y1="530" y2="530"/>
<line clip-path="url(#clipPath2)" fill="none" x1="1199" x2="1197" y1="530" y2="530"/>
<line clip-path="url(#clipPath2)" fill="none" x1="32" x2="36" y1="494" y2="494"/>
<line clip-path="url(#clipPath2)" fill="none" x1="1201" x2="1197" y1="494" y2="494"/>
<text x="16" font-size="10" y="497" clip-path="url(#clipPath2)" stroke="none" xml:space="preserve">200</text>
<text x="1204" font-size="10" y="497" clip-path="url(#clipPath2)" stroke="none" xml:space="preserve">200</text>
<line clip-path="url(#clipPath2)" fill="none" x1="34" x2="36" y1="458" y2="458"/>
<line clip-path="url(#clipPath2)" fill="none" x1="1199" x2="1197" y1="458" y2="458"/>
<line clip-path="url(#clipPath2)" fill="none" x1="32" x2="36" y1="422" y2="422"/>
<line clip-path="url(#clipPath2)" fill="none" x1="1201" x2="1197" y1="422" y2="422"/>
<text x="16" font-size="10" y="425" clip-path="url(#clipPath2)" stroke="none" xml:space="preserve">400</text>
<text x="1204" font-size="10" y="425" clip-path="url(#clipPath2)" stroke="none" xml:space="preserve">400</text>
<line clip-path="url(#clipPath2)" fill="none" x1="34" x2="36" y1="386" y2="386"/>
<line clip-path="url(#clipPath2)" fill="none" x1="1199" x2="1197" y1="386" y2="386"/>
<line clip-path="url(#clipPath2)" fill="none" x1="32" x2="36" y1="350" y2="350"/>
<line clip-path="url(#clipPath2)" fill="none" x1="1201" x2="1197" y1="350" y2="350"/>
<text x="16" font-size="10" y="353" clip-path="url(#clipPath2)" stroke="none" xml:space="preserve">600</text>
<text x="1204" font-size="10" y="353" clip-path="url(#clipPath2)" stroke="none" xml:space="preserve">600</text>
<line clip-path="url(#clipPath2)" fill="none" x1="34" x2="36" y1="314" y2="314"/>
<line clip-path="url(#clipPath2)" fill="none" x1="1199" x2="1197" y1="314" y2="314"/>
<line clip-path="url(#clipPath2)" fill="none" x1="32" x2="36" y1="278" y2="278"/>
<line clip-path="url(#clipPath2)" fill="none" x1="1201" x2="1197" y1="278" y2="278"/>
<text x="16" font-size="10" y="281" clip-path="url(#clipPath2)" stroke="none" xml:space="preserve">800</text>
<text x="1204" font-size="10" y="281" clip-path="url(#clipPath2)" stroke="none" xml:space="preserve">800</text>
<line clip-path="url(#clipPath2)" fill="none" x1="34" x2="36" y1="242" y2="242"/>
<line clip-path="url(#clipPath2)" fill="none" x1="1199" x2="1197" y1="242" y2="242"/>
<line clip-path="url(#clipPath2)" fill="none" x1="32" x2="36" y1="206" y2="206"/>
<line clip-path="url(#clipPath2)" fill="none" x1="1201" x2="1197" y1="206" y2="206"/>
<text x="11" font-size="10" y="209" clip-path="url(#clipPath2)" stroke="none" xml:space="preserve">1000</text>
<text x="1204" font-size="10" y="209" clip-path="url(#clipPath2)" stroke="none" xml:space="preserve">1000</text>
<line clip-path="url(#clipPath2)" fill="none" x1="34" x2="36" y1="170" y2="170"/>
<line clip-path="url(#clipPath2)" fill="none" x1="1199" x2="1197" y1="170" y2="170"/>
<line clip-path="url(#clipPath2)" fill="none" x1="32" x2="36" y1="134" y2="134"/>
<line clip-path="url(#clipPath2)" fill="none" x1="1201" x2="1197" y1="134" y2="134"/>
<text x="11" font-size="10" y="137" clip-path="url(#clipPath2)" stroke="none" xml:space="preserve">1200</text>
<text x="1204" font-size="10" y="137" clip-path="url(#clipPath2)" stroke="none" xml:space="preserve">1200</text>
<line clip-path="url(#clipPath2)" fill="none" x1="34" x2="36" y1="98" y2="98"/>
<line clip-path="url(#clipPath2)" fill="none" x1="1199" x2="1197" y1="98" y2="98"/>
<line clip-path="url(#clipPath2)" fill="none" x1="32" x2="36" y1="62" y2="62"/>
<line clip-path="url(#clipPath2)" fill="none" x1="1201" x2="1197" y1="62" y2="62"/>
<text x="11" font-size="10" y="65" clip-path="url(#clipPath2)" stroke="none" xml:space="preserve">1400</text>
<text x="1204" font-size="10" y="65" clip-path="url(#clipPath2)" stroke="none" xml:space="preserve">1400</text>
<line clip-path="url(#clipPath2)" fill="none" x1="34" x2="36" y1="26" y2="26"/>
<line clip-path="url(#clipPath2)" fill="none" x1="1199" x2="1197" y1="26" y2="26"/>
<line clip-path="url(#clipPath3)" fill="none" x1="54" x2="145" y1="571" y2="571"/>
<line clip-path="url(#clipPath3)" fill="none" x1="169" x2="260" y1="571" y2="571"/>
<line clip-path="url(#clipPath3)" fill="none" x1="283" x2="375" y1="571" y2="571"/>
<line clip-path="url(#clipPath3)" fill="none" x1="398" x2="489" y1="571" y2="571"/>
<line clip-path="url(#clipPath3)" fill="none" x1="513" x2="604" y1="571" y2="571"/>
<line clip-path="url(#clipPath3)" fill="none" x1="627" x2="719" y1="571" y2="571"/>
<line clip-path="url(#clipPath3)" fill="none" x1="742" x2="833" y1="571" y2="571"/>
<line clip-path="url(#clipPath3)" fill="none" x1="857" x2="948" y1="571" y2="571"/>
<line clip-path="url(#clipPath3)" fill="none" x1="971" x2="1062" y1="571" y2="571"/>
<line clip-path="url(#clipPath3)" fill="none" x1="1086" x2="1177" y1="571" y2="571"/>
<text x="54" font-size="10" y="582" clip-path="url(#clipPath3)" stroke="none" xml:space="preserve">sensors[0]</text>
<text x="169" font-size="10" y="582" clip-path="url(#clipPath3)" stroke="none" xml:space="preserve">sensors[1]</text>
<text x="283" font-size="10" y="582" clip-path="url(#clipPath3)" stroke="none" xml:space="preserve">sensors[2]</text>
<text x="398" font-size="10" y="582" clip-path="url(#clipPath3)" stroke="none" xml:space="preserve">sensors[3]</text>
<text x="513" font-size="10" y="582" clip-path="url(#clipPath3)" stroke="none" xml:space="preserve">sensors[4]</text>
<text x="627" font-size="10" y="582" clip-path="url(#clipPath3)" stroke="none" xml:space="preserve">sensors[5]</text>
<text x="742" font-size="10" y="582" clip-path="url(#clipPath3)" stroke="none" xml:space="preserve">sensors[6]</text>
<text x="857" font-size="10" y="582" clip-path="url(#clipPath3)" stroke="none" xml:space="preserve">sensors[7]</text>
<text x="971" font-size="10" y="582" clip-path="url(#clipPath3)" stroke="none" xml:space="preserve">sensors[8]</text>
<text x="1086" font-size="10" y="582" clip-path="url(#clipPath3)" stroke="none" xml:space="preserve">sensors[9]</text>
</g>
</g>
</svg>
