<?xml version="1.0" encoding="UTF-8"?><svg xmlns="http://www.w3.org/2000/svg" xmlns:xlink="http://www.w3.org/1999/xlink" stroke-dasharray="none" shape-rendering="auto" font-family="'Dialog'" width="1248" text-rendering="auto" fill-opacity="1" contentScriptType="text/ecmascript" color-interpolation="auto" color-rendering="auto" preserveAspectRatio="xMidYMid meet" font-size="12" fill="black" stroke="black" image-rendering="auto" stroke-miterlimit="10" zoomAndPan="magnify" version="1.0" stroke-linecap="square" stroke-linejoin="miter" contentStyleType="text/css" font-style="normal" height="526" stroke-width="1" stroke-dashoffset="0" font-weight="normal" stroke-opacity="1">
<!--Generated by the Batik Graphics2D SVG Generator-->
<defs id="genericDefs"/>
<g>
<defs id="defs1">
<clipPath clipPathUnits="userSpaceOnUse" id="clipPath1">
<path d="M31 9 L1217 9 L1217 501 L31 501 L31 9 Z"/>
</clipPath>
<clipPath clipPathUnits="userSpaceOnUse" id="clipPath2">
<path d="M-1 -1 L1249 -1 L1249 527 L-1 527 L-1 -1 Z"/>
</clipPath>
<clipPath clipPathUnits="userSpaceOnUse" id="clipPath3">
<path d="M31 499 L1217 499 L1217 527 L31 527 L31 499 Z"/>
</clipPath>
</defs>
<g fill="white" text-rendering="geometricPrecision" font-family="'Segoe UI'" stroke-linejoin="round" stroke="white" stroke-width="0" stroke-miterlimit="0">
<rect x="32" y="10" clip-path="url(#clipPath1)" width="1184" height="490" stroke="none"/>
</g>
<g stroke-linecap="butt" fill="rgb(204,204,204)" text-rendering="geometricPrecision" font-family="'Segoe UI'" stroke-dasharray="3,3" stroke="rgb(204,204,204)">
<line clip-path="url(#clipPath1)" fill="none" x1="32" x2="1216" y1="500" y2="500"/>
<line clip-path="url(#clipPath1)" fill="none" x1="32" x2="1216" y1="402" y2="402"/>
<line clip-path="url(#clipPath1)" fill="none" x1="32" x2="1216" y1="304" y2="304"/>
<line clip-path="url(#clipPath1)" fill="none" x1="32" x2="1216" y1="206" y2="206"/>
<line clip-path="url(#clipPath1)" fill="none" x1="32" x2="1216" y1="108" y2="108"/>
<line clip-path="url(#clipPath1)" fill="none" x1="32" x2="1216" y1="10" y2="10"/>
<rect x="1169" y="396" clip-path="url(#clipPath1)" fill="rgb(0,100,0)" width="23" height="103" stroke="none"/>
<rect x="1169" y="396" clip-path="url(#clipPath1)" fill="none" width="23" stroke-dasharray="none" height="103"/>
<rect x="1134" y="384" clip-path="url(#clipPath1)" fill="rgb(238,0,0)" width="23" stroke-dasharray="none" height="115" stroke="none"/>
<rect x="1134" y="384" clip-path="url(#clipPath1)" fill="none" width="23" stroke-dasharray="none" height="115"/>
<rect x="1099" y="384" clip-path="url(#clipPath1)" fill="rgb(0,0,139)" width="23" stroke-dasharray="none" height="115" stroke="none"/>
<rect x="1099" y="384" clip-path="url(#clipPath1)" fill="none" width="23" stroke-dasharray="none" height="115"/>
<rect x="1053" y="264" clip-path="url(#clipPath1)" fill="rgb(0,100,0)" width="23" stroke-dasharray="none" height="235" stroke="none"/>
<rect x="1053" y="264" clip-path="url(#clipPath1)" fill="none" width="23" stroke-dasharray="none" height="235"/>
<rect x="1018" y="268" clip-path="url(#clipPath1)" fill="rgb(238,0,0)" width="23" stroke-dasharray="none" height="231" stroke="none"/>
<rect x="1018" y="268" clip-path="url(#clipPath1)" fill="none" width="23" stroke-dasharray="none" height="231"/>
<rect x="983" y="262" clip-path="url(#clipPath1)" fill="rgb(0,0,139)" width="23" stroke-dasharray="none" height="237" stroke="none"/>
<rect x="983" y="262" clip-path="url(#clipPath1)" fill="none" width="23" stroke-dasharray="none" height="237"/>
<rect x="937" y="286" clip-path="url(#clipPath1)" fill="rgb(0,100,0)" width="23" stroke-dasharray="none" height="213" stroke="none"/>
<rect x="937" y="286" clip-path="url(#clipPath1)" fill="none" width="23" stroke-dasharray="none" height="213"/>
<rect x="902" y="237" clip-path="url(#clipPath1)" fill="rgb(238,0,0)" width="23" stroke-dasharray="none" height="262" stroke="none"/>
<rect x="902" y="237" clip-path="url(#clipPath1)" fill="none" width="23" stroke-dasharray="none" height="262"/>
<rect x="867" y="227" clip-path="url(#clipPath1)" fill="rgb(0,0,139)" width="23" stroke-dasharray="none" height="272" stroke="none"/>
<rect x="867" y="227" clip-path="url(#clipPath1)" fill="none" width="23" stroke-dasharray="none" height="272"/>
<rect x="821" y="255" clip-path="url(#clipPath1)" fill="rgb(0,100,0)" width="23" stroke-dasharray="none" height="245" stroke="none"/>
<rect x="821" y="255" clip-path="url(#clipPath1)" fill="none" width="23" stroke-dasharray="none" height="245"/>
<rect x="786" y="229" clip-path="url(#clipPath1)" fill="rgb(238,0,0)" width="23" stroke-dasharray="none" height="270" stroke="none"/>
<rect x="786" y="229" clip-path="url(#clipPath1)" fill="none" width="23" stroke-dasharray="none" height="270"/>
<rect x="751" y="229" clip-path="url(#clipPath1)" fill="rgb(0,0,139)" width="23" stroke-dasharray="none" height="270" stroke="none"/>
<rect x="751" y="229" clip-path="url(#clipPath1)" fill="none" width="23" stroke-dasharray="none" height="270"/>
<rect x="705" y="249" clip-path="url(#clipPath1)" fill="rgb(0,100,0)" width="23" stroke-dasharray="none" height="250" stroke="none"/>
<rect x="705" y="249" clip-path="url(#clipPath1)" fill="none" width="23" stroke-dasharray="none" height="250"/>
<rect x="670" y="258" clip-path="url(#clipPath1)" fill="rgb(238,0,0)" width="23" stroke-dasharray="none" height="241" stroke="none"/>
<rect x="670" y="258" clip-path="url(#clipPath1)" fill="none" width="23" stroke-dasharray="none" height="241"/>
<rect x="635" y="298" clip-path="url(#clipPath1)" fill="rgb(0,0,139)" width="23" stroke-dasharray="none" height="201" stroke="none"/>
<rect x="635" y="298" clip-path="url(#clipPath1)" fill="none" width="23" stroke-dasharray="none" height="201"/>
<rect x="589" y="282" clip-path="url(#clipPath1)" fill="rgb(0,100,0)" width="23" stroke-dasharray="none" height="217" stroke="none"/>
<rect x="589" y="282" clip-path="url(#clipPath1)" fill="none" width="23" stroke-dasharray="none" height="217"/>
<rect x="554" y="239" clip-path="url(#clipPath1)" fill="rgb(238,0,0)" width="23" stroke-dasharray="none" height="260" stroke="none"/>
<rect x="554" y="239" clip-path="url(#clipPath1)" fill="none" width="23" stroke-dasharray="none" height="260"/>
<rect x="519" y="192" clip-path="url(#clipPath1)" fill="rgb(0,0,139)" width="23" stroke-dasharray="none" height="307" stroke="none"/>
<rect x="519" y="192" clip-path="url(#clipPath1)" fill="none" width="23" stroke-dasharray="none" height="307"/>
<rect x="473" y="270" clip-path="url(#clipPath1)" fill="rgb(0,100,0)" width="23" stroke-dasharray="none" height="229" stroke="none"/>
<rect x="473" y="270" clip-path="url(#clipPath1)" fill="none" width="23" stroke-dasharray="none" height="229"/>
<rect x="438" y="256" clip-path="url(#clipPath1)" fill="rgb(238,0,0)" width="23" stroke-dasharray="none" height="243" stroke="none"/>
<rect x="438" y="256" clip-path="url(#clipPath1)" fill="none" width="23" stroke-dasharray="none" height="243"/>
<rect x="403" y="249" clip-path="url(#clipPath1)" fill="rgb(0,0,139)" width="23" stroke-dasharray="none" height="250" stroke="none"/>
<rect x="403" y="249" clip-path="url(#clipPath1)" fill="none" width="23" stroke-dasharray="none" height="250"/>
<rect x="357" y="288" clip-path="url(#clipPath1)" fill="rgb(0,100,0)" width="23" stroke-dasharray="none" height="211" stroke="none"/>
<rect x="357" y="288" clip-path="url(#clipPath1)" fill="none" width="23" stroke-dasharray="none" height="211"/>
<rect x="322" y="249" clip-path="url(#clipPath1)" fill="rgb(238,0,0)" width="23" stroke-dasharray="none" height="250" stroke="none"/>
<rect x="322" y="249" clip-path="url(#clipPath1)" fill="none" width="23" stroke-dasharray="none" height="250"/>
<rect x="287" y="209" clip-path="url(#clipPath1)" fill="rgb(0,0,139)" width="23" stroke-dasharray="none" height="290" stroke="none"/>
<rect x="287" y="209" clip-path="url(#clipPath1)" fill="none" width="23" stroke-dasharray="none" height="290"/>
<rect x="240" y="274" clip-path="url(#clipPath1)" fill="rgb(0,100,0)" width="23" stroke-dasharray="none" height="225" stroke="none"/>
<rect x="240" y="274" clip-path="url(#clipPath1)" fill="none" width="23" stroke-dasharray="none" height="225"/>
<rect x="206" y="264" clip-path="url(#clipPath1)" fill="rgb(238,0,0)" width="23" stroke-dasharray="none" height="235" stroke="none"/>
<rect x="206" y="264" clip-path="url(#clipPath1)" fill="none" width="23" stroke-dasharray="none" height="235"/>
<rect x="171" y="272" clip-path="url(#clipPath1)" fill="rgb(0,0,139)" width="23" stroke-dasharray="none" height="227" stroke="none"/>
<rect x="171" y="272" clip-path="url(#clipPath1)" fill="none" width="23" stroke-dasharray="none" height="227"/>
<rect x="124" y="358" clip-path="url(#clipPath1)" fill="rgb(0,100,0)" width="23" stroke-dasharray="none" height="141" stroke="none"/>
<rect x="124" y="358" clip-path="url(#clipPath1)" fill="none" width="23" stroke-dasharray="none" height="141"/>
<rect x="90" y="343" clip-path="url(#clipPath1)" fill="rgb(238,0,0)" width="23" stroke-dasharray="none" height="156" stroke="none"/>
<rect x="90" y="343" clip-path="url(#clipPath1)" fill="none" width="23" stroke-dasharray="none" height="156"/>
<rect x="55" y="370" clip-path="url(#clipPath1)" fill="rgb(0,0,139)" width="23" stroke-dasharray="none" height="129" stroke="none"/>
<rect x="55" y="370" clip-path="url(#clipPath1)" fill="none" width="23" stroke-dasharray="none" height="129"/>
<rect x="32" y="10" clip-path="url(#clipPath2)" fill="none" width="1184" stroke-dasharray="none" height="490" stroke="black"/>
<line clip-path="url(#clipPath2)" fill="none" x1="33" x2="1215" y1="500" y2="500" stroke-dasharray="none"/>
</g>
<g text-rendering="geometricPrecision" font-size="13" font-family="'Arial'" stroke-linecap="butt">
<line clip-path="url(#clipPath2)" fill="none" x1="30" x2="30" y1="10" y2="500"/>
<line clip-path="url(#clipPath2)" fill="none" x1="1218" x2="1218" y1="10" y2="500"/>
<line clip-path="url(#clipPath2)" fill="none" x1="26" x2="30" y1="500" y2="500"/>
<line clip-path="url(#clipPath2)" fill="none" x1="1222" x2="1218" y1="500" y2="500"/>
<text x="20" font-size="10" y="503" clip-path="url(#clipPath2)" stroke="none" xml:space="preserve">0</text>
<text x="1225" font-size="10" y="503" clip-path="url(#clipPath2)" stroke="none" xml:space="preserve">0</text>
<line clip-path="url(#clipPath2)" fill="none" x1="28" x2="30" y1="480" y2="480"/>
<line clip-path="url(#clipPath2)" fill="none" x1="1220" x2="1218" y1="480" y2="480"/>
<line clip-path="url(#clipPath2)" fill="none" x1="28" x2="30" y1="460" y2="460"/>
<line clip-path="url(#clipPath2)" fill="none" x1="1220" x2="1218" y1="460" y2="460"/>
<line clip-path="url(#clipPath2)" fill="none" x1="28" x2="30" y1="441" y2="441"/>
<line clip-path="url(#clipPath2)" fill="none" x1="1220" x2="1218" y1="441" y2="441"/>
<line clip-path="url(#clipPath2)" fill="none" x1="28" x2="30" y1="421" y2="421"/>
<line clip-path="url(#clipPath2)" fill="none" x1="1220" x2="1218" y1="421" y2="421"/>
<line clip-path="url(#clipPath2)" fill="none" x1="26" x2="30" y1="402" y2="402"/>
<line clip-path="url(#clipPath2)" fill="none" x1="1222" x2="1218" y1="402" y2="402"/>
<text x="15" font-size="10" y="405" clip-path="url(#clipPath2)" stroke="none" xml:space="preserve">50</text>
<text x="1225" font-size="10" y="405" clip-path="url(#clipPath2)" stroke="none" xml:space="preserve">50</text>
<line clip-path="url(#clipPath2)" fill="none" x1="28" x2="30" y1="382" y2="382"/>
<line clip-path="url(#clipPath2)" fill="none" x1="1220" x2="1218" y1="382" y2="382"/>
<line clip-path="url(#clipPath2)" fill="none" x1="28" x2="30" y1="362" y2="362"/>
<line clip-path="url(#clipPath2)" fill="none" x1="1220" x2="1218" y1="362" y2="362"/>
<line clip-path="url(#clipPath2)" fill="none" x1="28" x2="30" y1="343" y2="343"/>
<line clip-path="url(#clipPath2)" fill="none" x1="1220" x2="1218" y1="343" y2="343"/>
<line clip-path="url(#clipPath2)" fill="none" x1="28" x2="30" y1="323" y2="323"/>
<line clip-path="url(#clipPath2)" fill="none" x1="1220" x2="1218" y1="323" y2="323"/>
<line clip-path="url(#clipPath2)" fill="none" x1="26" x2="30" y1="304" y2="304"/>
<line clip-path="url(#clipPath2)" fill="none" x1="1222" x2="1218" y1="304" y2="304"/>
<text x="10" font-size="10" y="307" clip-path="url(#clipPath2)" stroke="none" xml:space="preserve">100</text>
<text x="1225" font-size="10" y="307" clip-path="url(#clipPath2)" stroke="none" xml:space="preserve">100</text>
<line clip-path="url(#clipPath2)" fill="none" x1="28" x2="30" y1="284" y2="284"/>
<line clip-path="url(#clipPath2)" fill="none" x1="1220" x2="1218" y1="284" y2="284"/>
<line clip-path="url(#clipPath2)" fill="none" x1="28" x2="30" y1="264" y2="264"/>
<line clip-path="url(#clipPath2)" fill="none" x1="1220" x2="1218" y1="264" y2="264"/>
<line clip-path="url(#clipPath2)" fill="none" x1="28" x2="30" y1="245" y2="245"/>
<line clip-path="url(#clipPath2)" fill="none" x1="1220" x2="1218" y1="245" y2="245"/>
<line clip-path="url(#clipPath2)" fill="none" x1="28" x2="30" y1="225" y2="225"/>
<line clip-path="url(#clipPath2)" fill="none" x1="1220" x2="1218" y1="225" y2="225"/>
<line clip-path="url(#clipPath2)" fill="none" x1="26" x2="30" y1="206" y2="206"/>
<line clip-path="url(#clipPath2)" fill="none" x1="1222" x2="1218" y1="206" y2="206"/>
<text x="10" font-size="10" y="209" clip-path="url(#clipPath2)" stroke="none" xml:space="preserve">150</text>
<text x="1225" font-size="10" y="209" clip-path="url(#clipPath2)" stroke="none" xml:space="preserve">150</text>
<line clip-path="url(#clipPath2)" fill="none" x1="28" x2="30" y1="186" y2="186"/>
<line clip-path="url(#clipPath2)" fill="none" x1="1220" x2="1218" y1="186" y2="186"/>
<line clip-path="url(#clipPath2)" fill="none" x1="28" x2="30" y1="166" y2="166"/>
<line clip-path="url(#clipPath2)" fill="none" x1="1220" x2="1218" y1="166" y2="166"/>
<line clip-path="url(#clipPath2)" fill="none" x1="28" x2="30" y1="147" y2="147"/>
<line clip-path="url(#clipPath2)" fill="none" x1="1220" x2="1218" y1="147" y2="147"/>
<line clip-path="url(#clipPath2)" fill="none" x1="28" x2="30" y1="127" y2="127"/>
<line clip-path="url(#clipPath2)" fill="none" x1="1220" x2="1218" y1="127" y2="127"/>
<line clip-path="url(#clipPath2)" fill="none" x1="26" x2="30" y1="108" y2="108"/>
<line clip-path="url(#clipPath2)" fill="none" x1="1222" x2="1218" y1="108" y2="108"/>
<text x="10" font-size="10" y="111" clip-path="url(#clipPath2)" stroke="none" xml:space="preserve">200</text>
<text x="1225" font-size="10" y="111" clip-path="url(#clipPath2)" stroke="none" xml:space="preserve">200</text>
<line clip-path="url(#clipPath2)" fill="none" x1="28" x2="30" y1="88" y2="88"/>
<line clip-path="url(#clipPath2)" fill="none" x1="1220" x2="1218" y1="88" y2="88"/>
<line clip-path="url(#clipPath2)" fill="none" x1="28" x2="30" y1="68" y2="68"/>
<line clip-path="url(#clipPath2)" fill="none" x1="1220" x2="1218" y1="68" y2="68"/>
<line clip-path="url(#clipPath2)" fill="none" x1="28" x2="30" y1="49" y2="49"/>
<line clip-path="url(#clipPath2)" fill="none" x1="1220" x2="1218" y1="49" y2="49"/>
<line clip-path="url(#clipPath2)" fill="none" x1="28" x2="30" y1="29" y2="29"/>
<line clip-path="url(#clipPath2)" fill="none" x1="1220" x2="1218" y1="29" y2="29"/>
<line clip-path="url(#clipPath2)" fill="none" x1="26" x2="30" y1="10" y2="10"/>
<line clip-path="url(#clipPath2)" fill="none" x1="1222" x2="1218" y1="10" y2="10"/>
<text x="10" font-size="10" y="13" clip-path="url(#clipPath2)" stroke="none" xml:space="preserve">250</text>
<text x="1225" font-size="10" y="13" clip-path="url(#clipPath2)" stroke="none" xml:space="preserve">250</text>
<line clip-path="url(#clipPath3)" fill="none" x1="55" x2="147" y1="504" y2="504"/>
<line clip-path="url(#clipPath3)" fill="none" x1="171" x2="263" y1="504" y2="504"/>
<line clip-path="url(#clipPath3)" fill="none" x1="287" x2="380" y1="504" y2="504"/>
<line clip-path="url(#clipPath3)" fill="none" x1="403" x2="496" y1="504" y2="504"/>
<line clip-path="url(#clipPath3)" fill="none" x1="519" x2="612" y1="504" y2="504"/>
<line clip-path="url(#clipPath3)" fill="none" x1="635" x2="728" y1="504" y2="504"/>
<line clip-path="url(#clipPath3)" fill="none" x1="751" x2="844" y1="504" y2="504"/>
<line clip-path="url(#clipPath3)" fill="none" x1="867" x2="960" y1="504" y2="504"/>
<line clip-path="url(#clipPath3)" fill="none" x1="983" x2="1076" y1="504" y2="504"/>
<line clip-path="url(#clipPath3)" fill="none" x1="1099" x2="1192" y1="504" y2="504"/>
<text x="55" font-size="10" y="515" clip-path="url(#clipPath3)" stroke="none" xml:space="preserve">sensors[0]</text>
<text x="171" font-size="10" y="515" clip-path="url(#clipPath3)" stroke="none" xml:space="preserve">sensors[1]</text>
<text x="287" font-size="10" y="515" clip-path="url(#clipPath3)" stroke="none" xml:space="preserve">sensors[2]</text>
<text x="403" font-size="10" y="515" clip-path="url(#clipPath3)" stroke="none" xml:space="preserve">sensors[3]</text>
<text x="519" font-size="10" y="515" clip-path="url(#clipPath3)" stroke="none" xml:space="preserve">sensors[4]</text>
<text x="635" font-size="10" y="515" clip-path="url(#clipPath3)" stroke="none" xml:space="preserve">sensors[5]</text>
<text x="751" font-size="10" y="515" clip-path="url(#clipPath3)" stroke="none" xml:space="preserve">sensors[6]</text>
<text x="867" font-size="10" y="515" clip-path="url(#clipPath3)" stroke="none" xml:space="preserve">sensors[7]</text>
<text x="983" font-size="10" y="515" clip-path="url(#clipPath3)" stroke="none" xml:space="preserve">sensors[8]</text>
<text x="1099" font-size="10" y="515" clip-path="url(#clipPath3)" stroke="none" xml:space="preserve">sensors[9]</text>
</g>
</g>
</svg>
