<?xml version="1.0" encoding="UTF-8"?><svg xmlns="http://www.w3.org/2000/svg" xmlns:xlink="http://www.w3.org/1999/xlink" stroke-dasharray="none" shape-rendering="auto" font-family="'Dialog'" width="768" text-rendering="auto" fill-opacity="1" contentScriptType="text/ecmascript" color-interpolation="auto" color-rendering="auto" preserveAspectRatio="xMidYMid meet" font-size="12" fill="black" stroke="black" image-rendering="auto" stroke-miterlimit="10" zoomAndPan="magnify" version="1.0" stroke-linecap="square" stroke-linejoin="miter" contentStyleType="text/css" font-style="normal" height="576" stroke-width="1" stroke-dashoffset="0" font-weight="normal" stroke-opacity="1">
<!--Generated by the Batik Graphics2D SVG Generator-->
<defs id="genericDefs"/>
<g>
<defs id="defs1">
<clipPath clipPathUnits="userSpaceOnUse" id="clipPath1">
<path d="M31 25 L737 25 L737 453 L31 453 L31 25 Z"/>
</clipPath>
<clipPath clipPathUnits="userSpaceOnUse" id="clipPath2">
<path d="M-1 -1 L769 -1 L769 577 L-1 577 L-1 -1 Z"/>
</clipPath>
<clipPath clipPathUnits="userSpaceOnUse" id="clipPath3">
<path d="M31 451 L737 451 L737 577 L31 577 L31 451 Z"/>
</clipPath>
</defs>
<g fill="white" text-rendering="geometricPrecision" font-family="'Segoe UI'" stroke-linejoin="round" stroke="white" stroke-width="0" stroke-miterlimit="0">
<rect x="32" y="26" clip-path="url(#clipPath1)" width="704" height="426" stroke="none"/>
</g>
<g stroke-linecap="butt" fill="rgb(204,204,204)" text-rendering="geometricPrecision" font-family="'Segoe UI'" stroke-dasharray="3,3" stroke="rgb(204,204,204)">
<line clip-path="url(#clipPath1)" fill="none" x1="32" x2="736" y1="452" y2="452"/>
<line clip-path="url(#clipPath1)" fill="none" x1="32" x2="736" y1="333" y2="333"/>
<line clip-path="url(#clipPath1)" fill="none" x1="32" x2="736" y1="214" y2="214"/>
<line clip-path="url(#clipPath1)" fill="none" x1="32" x2="736" y1="95" y2="95"/>
<rect x="708" y="316" clip-path="url(#clipPath1)" fill="rgb(0,100,0)" width="13" height="135" stroke="none"/>
<rect x="708" y="316" clip-path="url(#clipPath1)" fill="none" width="13" stroke-dasharray="none" height="135"/>
<rect x="687" y="352" clip-path="url(#clipPath1)" fill="rgb(238,0,0)" width="13" stroke-dasharray="none" height="99" stroke="none"/>
<rect x="687" y="352" clip-path="url(#clipPath1)" fill="none" width="13" stroke-dasharray="none" height="99"/>
<rect x="666" y="326" clip-path="url(#clipPath1)" fill="rgb(0,0,139)" width="13" stroke-dasharray="none" height="125" stroke="none"/>
<rect x="666" y="326" clip-path="url(#clipPath1)" fill="none" width="13" stroke-dasharray="none" height="125"/>
<rect x="639" y="221" clip-path="url(#clipPath1)" fill="rgb(0,100,0)" width="13" stroke-dasharray="none" height="230" stroke="none"/>
<rect x="639" y="221" clip-path="url(#clipPath1)" fill="none" width="13" stroke-dasharray="none" height="230"/>
<rect x="618" y="159" clip-path="url(#clipPath1)" fill="rgb(238,0,0)" width="13" stroke-dasharray="none" height="292" stroke="none"/>
<rect x="618" y="159" clip-path="url(#clipPath1)" fill="none" width="13" stroke-dasharray="none" height="292"/>
<rect x="597" y="185" clip-path="url(#clipPath1)" fill="rgb(0,0,139)" width="13" stroke-dasharray="none" height="266" stroke="none"/>
<rect x="597" y="185" clip-path="url(#clipPath1)" fill="none" width="13" stroke-dasharray="none" height="266"/>
<rect x="570" y="223" clip-path="url(#clipPath1)" fill="rgb(0,100,0)" width="13" stroke-dasharray="none" height="228" stroke="none"/>
<rect x="570" y="223" clip-path="url(#clipPath1)" fill="none" width="13" stroke-dasharray="none" height="228"/>
<rect x="549" y="216" clip-path="url(#clipPath1)" fill="rgb(238,0,0)" width="13" stroke-dasharray="none" height="235" stroke="none"/>
<rect x="549" y="216" clip-path="url(#clipPath1)" fill="none" width="13" stroke-dasharray="none" height="235"/>
<rect x="528" y="212" clip-path="url(#clipPath1)" fill="rgb(0,0,139)" width="13" stroke-dasharray="none" height="239" stroke="none"/>
<rect x="528" y="212" clip-path="url(#clipPath1)" fill="none" width="13" stroke-dasharray="none" height="239"/>
<rect x="501" y="214" clip-path="url(#clipPath1)" fill="rgb(0,100,0)" width="13" stroke-dasharray="none" height="237" stroke="none"/>
<rect x="501" y="214" clip-path="url(#clipPath1)" fill="none" width="13" stroke-dasharray="none" height="237"/>
<rect x="480" y="171" clip-path="url(#clipPath1)" fill="rgb(238,0,0)" width="13" stroke-dasharray="none" height="280" stroke="none"/>
<rect x="480" y="171" clip-path="url(#clipPath1)" fill="none" width="13" stroke-dasharray="none" height="280"/>
<rect x="459" y="174" clip-path="url(#clipPath1)" fill="rgb(0,0,139)" width="13" stroke-dasharray="none" height="277" stroke="none"/>
<rect x="459" y="174" clip-path="url(#clipPath1)" fill="none" width="13" stroke-dasharray="none" height="277"/>
<rect x="432" y="207" clip-path="url(#clipPath1)" fill="rgb(0,100,0)" width="13" stroke-dasharray="none" height="244" stroke="none"/>
<rect x="432" y="207" clip-path="url(#clipPath1)" fill="none" width="13" stroke-dasharray="none" height="244"/>
<rect x="411" y="200" clip-path="url(#clipPath1)" fill="rgb(238,0,0)" width="13" stroke-dasharray="none" height="251" stroke="none"/>
<rect x="411" y="200" clip-path="url(#clipPath1)" fill="none" width="13" stroke-dasharray="none" height="251"/>
<rect x="390" y="202" clip-path="url(#clipPath1)" fill="rgb(0,0,139)" width="13" stroke-dasharray="none" height="249" stroke="none"/>
<rect x="390" y="202" clip-path="url(#clipPath1)" fill="none" width="13" stroke-dasharray="none" height="249"/>
<rect x="363" y="209" clip-path="url(#clipPath1)" fill="rgb(0,100,0)" width="13" stroke-dasharray="none" height="242" stroke="none"/>
<rect x="363" y="209" clip-path="url(#clipPath1)" fill="none" width="13" stroke-dasharray="none" height="242"/>
<rect x="342" y="193" clip-path="url(#clipPath1)" fill="rgb(238,0,0)" width="13" stroke-dasharray="none" height="258" stroke="none"/>
<rect x="342" y="193" clip-path="url(#clipPath1)" fill="none" width="13" stroke-dasharray="none" height="258"/>
<rect x="321" y="150" clip-path="url(#clipPath1)" fill="rgb(0,0,139)" width="13" stroke-dasharray="none" height="301" stroke="none"/>
<rect x="321" y="150" clip-path="url(#clipPath1)" fill="none" width="13" stroke-dasharray="none" height="301"/>
<rect x="294" y="200" clip-path="url(#clipPath1)" fill="rgb(0,100,0)" width="13" stroke-dasharray="none" height="251" stroke="none"/>
<rect x="294" y="200" clip-path="url(#clipPath1)" fill="none" width="13" stroke-dasharray="none" height="251"/>
<rect x="273" y="166" clip-path="url(#clipPath1)" fill="rgb(238,0,0)" width="13" stroke-dasharray="none" height="285" stroke="none"/>
<rect x="273" y="166" clip-path="url(#clipPath1)" fill="none" width="13" stroke-dasharray="none" height="285"/>
<rect x="252" y="181" clip-path="url(#clipPath1)" fill="rgb(0,0,139)" width="13" stroke-dasharray="none" height="270" stroke="none"/>
<rect x="252" y="181" clip-path="url(#clipPath1)" fill="none" width="13" stroke-dasharray="none" height="270"/>
<rect x="225" y="212" clip-path="url(#clipPath1)" fill="rgb(0,100,0)" width="13" stroke-dasharray="none" height="239" stroke="none"/>
<rect x="225" y="212" clip-path="url(#clipPath1)" fill="none" width="13" stroke-dasharray="none" height="239"/>
<rect x="204" y="155" clip-path="url(#clipPath1)" fill="rgb(238,0,0)" width="13" stroke-dasharray="none" height="296" stroke="none"/>
<rect x="204" y="155" clip-path="url(#clipPath1)" fill="none" width="13" stroke-dasharray="none" height="296"/>
<rect x="183" y="145" clip-path="url(#clipPath1)" fill="rgb(0,0,139)" width="13" stroke-dasharray="none" height="306" stroke="none"/>
<rect x="183" y="145" clip-path="url(#clipPath1)" fill="none" width="13" stroke-dasharray="none" height="306"/>
<rect x="156" y="200" clip-path="url(#clipPath1)" fill="rgb(0,100,0)" width="13" stroke-dasharray="none" height="251" stroke="none"/>
<rect x="156" y="200" clip-path="url(#clipPath1)" fill="none" width="13" stroke-dasharray="none" height="251"/>
<rect x="135" y="195" clip-path="url(#clipPath1)" fill="rgb(238,0,0)" width="13" stroke-dasharray="none" height="256" stroke="none"/>
<rect x="135" y="195" clip-path="url(#clipPath1)" fill="none" width="13" stroke-dasharray="none" height="256"/>
<rect x="114" y="159" clip-path="url(#clipPath1)" fill="rgb(0,0,139)" width="13" stroke-dasharray="none" height="292" stroke="none"/>
<rect x="114" y="159" clip-path="url(#clipPath1)" fill="none" width="13" stroke-dasharray="none" height="292"/>
<rect x="87" y="64" clip-path="url(#clipPath1)" fill="rgb(0,100,0)" width="13" stroke-dasharray="none" height="387" stroke="none"/>
<rect x="87" y="64" clip-path="url(#clipPath1)" fill="none" width="13" stroke-dasharray="none" height="387"/>
<rect x="66" y="69" clip-path="url(#clipPath1)" fill="rgb(238,0,0)" width="13" stroke-dasharray="none" height="382" stroke="none"/>
<rect x="66" y="69" clip-path="url(#clipPath1)" fill="none" width="13" stroke-dasharray="none" height="382"/>
<rect x="45" y="78" clip-path="url(#clipPath1)" fill="rgb(0,0,139)" width="13" stroke-dasharray="none" height="373" stroke="none"/>
<rect x="45" y="78" clip-path="url(#clipPath1)" fill="none" width="13" stroke-dasharray="none" height="373"/>
<rect x="32" y="26" clip-path="url(#clipPath2)" fill="none" width="704" stroke-dasharray="none" height="426" stroke="black"/>
<line clip-path="url(#clipPath2)" fill="none" x1="33" x2="735" y1="452" y2="452" stroke-dasharray="none"/>
</g>
<g text-rendering="geometricPrecision" font-size="13" font-family="'Arial'" stroke-linecap="butt">
<text xml:space="preserve" x="318" y="12" clip-path="url(#clipPath2)" stroke="none">Scalar default pathloss</text>
<line clip-path="url(#clipPath2)" fill="none" x1="30" x2="30" y1="26" y2="452"/>
<line clip-path="url(#clipPath2)" fill="none" x1="738" x2="738" y1="26" y2="452"/>
<line clip-path="url(#clipPath2)" fill="none" x1="26" x2="30" y1="452" y2="452"/>
<line clip-path="url(#clipPath2)" fill="none" x1="742" x2="738" y1="452" y2="452"/>
<text x="20" font-size="10" y="455" clip-path="url(#clipPath2)" stroke="none" xml:space="preserve">0</text>
<text x="745" font-size="10" y="455" clip-path="url(#clipPath2)" stroke="none" xml:space="preserve">0</text>
<line clip-path="url(#clipPath2)" fill="none" x1="28" x2="30" y1="428" y2="428"/>
<line clip-path="url(#clipPath2)" fill="none" x1="740" x2="738" y1="428" y2="428"/>
<line clip-path="url(#clipPath2)" fill="none" x1="28" x2="30" y1="404" y2="404"/>
<line clip-path="url(#clipPath2)" fill="none" x1="740" x2="738" y1="404" y2="404"/>
<line clip-path="url(#clipPath2)" fill="none" x1="28" x2="30" y1="380" y2="380"/>
<line clip-path="url(#clipPath2)" fill="none" x1="740" x2="738" y1="380" y2="380"/>
<line clip-path="url(#clipPath2)" fill="none" x1="28" x2="30" y1="356" y2="356"/>
<line clip-path="url(#clipPath2)" fill="none" x1="740" x2="738" y1="356" y2="356"/>
<line clip-path="url(#clipPath2)" fill="none" x1="26" x2="30" y1="333" y2="333"/>
<line clip-path="url(#clipPath2)" fill="none" x1="742" x2="738" y1="333" y2="333"/>
<text x="15" font-size="10" y="336" clip-path="url(#clipPath2)" stroke="none" xml:space="preserve">50</text>
<text x="745" font-size="10" y="336" clip-path="url(#clipPath2)" stroke="none" xml:space="preserve">50</text>
<line clip-path="url(#clipPath2)" fill="none" x1="28" x2="30" y1="309" y2="309"/>
<line clip-path="url(#clipPath2)" fill="none" x1="740" x2="738" y1="309" y2="309"/>
<line clip-path="url(#clipPath2)" fill="none" x1="28" x2="30" y1="285" y2="285"/>
<line clip-path="url(#clipPath2)" fill="none" x1="740" x2="738" y1="285" y2="285"/>
<line clip-path="url(#clipPath2)" fill="none" x1="28" x2="30" y1="261" y2="261"/>
<line clip-path="url(#clipPath2)" fill="none" x1="740" x2="738" y1="261" y2="261"/>
<line clip-path="url(#clipPath2)" fill="none" x1="28" x2="30" y1="238" y2="238"/>
<line clip-path="url(#clipPath2)" fill="none" x1="740" x2="738" y1="238" y2="238"/>
<line clip-path="url(#clipPath2)" fill="none" x1="26" x2="30" y1="214" y2="214"/>
<line clip-path="url(#clipPath2)" fill="none" x1="742" x2="738" y1="214" y2="214"/>
<text x="10" font-size="10" y="217" clip-path="url(#clipPath2)" stroke="none" xml:space="preserve">100</text>
<text x="745" font-size="10" y="217" clip-path="url(#clipPath2)" stroke="none" xml:space="preserve">100</text>
<line clip-path="url(#clipPath2)" fill="none" x1="28" x2="30" y1="190" y2="190"/>
<line clip-path="url(#clipPath2)" fill="none" x1="740" x2="738" y1="190" y2="190"/>
<line clip-path="url(#clipPath2)" fill="none" x1="28" x2="30" y1="166" y2="166"/>
<line clip-path="url(#clipPath2)" fill="none" x1="740" x2="738" y1="166" y2="166"/>
<line clip-path="url(#clipPath2)" fill="none" x1="28" x2="30" y1="143" y2="143"/>
<line clip-path="url(#clipPath2)" fill="none" x1="740" x2="738" y1="143" y2="143"/>
<line clip-path="url(#clipPath2)" fill="none" x1="28" x2="30" y1="119" y2="119"/>
<line clip-path="url(#clipPath2)" fill="none" x1="740" x2="738" y1="119" y2="119"/>
<line clip-path="url(#clipPath2)" fill="none" x1="26" x2="30" y1="95" y2="95"/>
<line clip-path="url(#clipPath2)" fill="none" x1="742" x2="738" y1="95" y2="95"/>
<text x="10" font-size="10" y="98" clip-path="url(#clipPath2)" stroke="none" xml:space="preserve">150</text>
<text x="745" font-size="10" y="98" clip-path="url(#clipPath2)" stroke="none" xml:space="preserve">150</text>
<line clip-path="url(#clipPath2)" fill="none" x1="28" x2="30" y1="71" y2="71"/>
<line clip-path="url(#clipPath2)" fill="none" x1="740" x2="738" y1="71" y2="71"/>
<line clip-path="url(#clipPath2)" fill="none" x1="28" x2="30" y1="48" y2="48"/>
<line clip-path="url(#clipPath2)" fill="none" x1="740" x2="738" y1="48" y2="48"/>
<line clip-path="url(#clipPath3)" fill="none" x1="45" x2="100" y1="456" y2="456"/>
<line clip-path="url(#clipPath3)" fill="none" x1="114" x2="169" y1="456" y2="456"/>
<line clip-path="url(#clipPath3)" fill="none" x1="183" x2="238" y1="456" y2="456"/>
<line clip-path="url(#clipPath3)" fill="none" x1="252" x2="307" y1="456" y2="456"/>
<line clip-path="url(#clipPath3)" fill="none" x1="321" x2="376" y1="456" y2="456"/>
<line clip-path="url(#clipPath3)" fill="none" x1="390" x2="445" y1="456" y2="456"/>
<line clip-path="url(#clipPath3)" fill="none" x1="459" x2="514" y1="456" y2="456"/>
<line clip-path="url(#clipPath3)" fill="none" x1="528" x2="583" y1="456" y2="456"/>
<line clip-path="url(#clipPath3)" fill="none" x1="597" x2="652" y1="456" y2="456"/>
<line clip-path="url(#clipPath3)" fill="none" x1="666" x2="721" y1="456" y2="456"/>
<text x="67" font-size="10" y="467" clip-path="url(#clipPath3)" stroke="none" xml:space="preserve">sensors[0]</text>
<text x="136" font-size="10" y="467" clip-path="url(#clipPath3)" stroke="none" xml:space="preserve">sensors[1]</text>
<text x="205" font-size="10" y="467" clip-path="url(#clipPath3)" stroke="none" xml:space="preserve">sensors[2]</text>
<text x="274" font-size="10" y="467" clip-path="url(#clipPath3)" stroke="none" xml:space="preserve">sensors[3]</text>
<text x="343" font-size="10" y="467" clip-path="url(#clipPath3)" stroke="none" xml:space="preserve">sensors[4]</text>
<text x="412" font-size="10" y="467" clip-path="url(#clipPath3)" stroke="none" xml:space="preserve">sensors[5]</text>
<text x="481" font-size="10" y="467" clip-path="url(#clipPath3)" stroke="none" xml:space="preserve">sensors[6]</text>
<text x="550" font-size="10" y="467" clip-path="url(#clipPath3)" stroke="none" xml:space="preserve">sensors[7]</text>
<text x="619" font-size="10" y="467" clip-path="url(#clipPath3)" stroke="none" xml:space="preserve">sensors[8]</text>
<text x="688" font-size="10" y="467" clip-path="url(#clipPath3)" stroke="none" xml:space="preserve">sensors[9]</text>
</g>
</g>
</svg>
