<?xml version="1.0" encoding="UTF-8"?><svg xmlns="http://www.w3.org/2000/svg" xmlns:xlink="http://www.w3.org/1999/xlink" stroke-dasharray="none" shape-rendering="auto" font-family="'Dialog'" width="768" text-rendering="auto" fill-opacity="1" contentScriptType="text/ecmascript" color-interpolation="auto" color-rendering="auto" preserveAspectRatio="xMidYMid meet" font-size="12" fill="black" stroke="black" image-rendering="auto" stroke-miterlimit="10" zoomAndPan="magnify" version="1.0" stroke-linecap="square" stroke-linejoin="miter" contentStyleType="text/css" font-style="normal" height="576" stroke-width="1" stroke-dashoffset="0" font-weight="normal" stroke-opacity="1">
<!--Generated by the Batik Graphics2D SVG Generator-->
<defs id="genericDefs"/>
<g>
<defs id="defs1">
<clipPath clipPathUnits="userSpaceOnUse" id="clipPath1">
<path d="M28 25 L740 25 L740 565 L28 565 L28 25 Z"/>
</clipPath>
<clipPath clipPathUnits="userSpaceOnUse" id="clipPath2">
<path d="M-1 -1 L769 -1 L769 577 L-1 577 L-1 -1 Z"/>
</clipPath>
</defs>
<g fill="white" text-rendering="geometricPrecision" font-family="'Segoe UI'" stroke-linejoin="round" stroke="white" stroke-width="0" stroke-miterlimit="0">
<rect x="29" y="26" clip-path="url(#clipPath1)" width="710" height="538" stroke="none"/>
</g>
<g stroke-linecap="butt" fill="rgb(204,204,204)" text-rendering="geometricPrecision" font-family="'Segoe UI'" stroke-dasharray="3,3" stroke="rgb(204,204,204)">
<line clip-path="url(#clipPath1)" fill="none" x1="29" x2="739" y1="564" y2="564"/>
<line clip-path="url(#clipPath1)" fill="none" x1="29" x2="739" y1="474" y2="474"/>
<line clip-path="url(#clipPath1)" fill="none" x1="29" x2="739" y1="384" y2="384"/>
<line clip-path="url(#clipPath1)" fill="none" x1="29" x2="739" y1="295" y2="295"/>
<line clip-path="url(#clipPath1)" fill="none" x1="29" x2="739" y1="205" y2="205"/>
<line clip-path="url(#clipPath1)" fill="none" x1="29" x2="739" y1="115" y2="115"/>
<line clip-path="url(#clipPath1)" fill="none" x1="29" x2="739" y1="26" y2="26"/>
<rect x="29" y="26" clip-path="url(#clipPath2)" fill="none" width="710" stroke-dasharray="none" height="538" stroke="black"/>
<line clip-path="url(#clipPath2)" fill="none" x1="30" x2="738" y1="295" y2="295" stroke-dasharray="none"/>
</g>
<g text-rendering="geometricPrecision" font-size="13" font-family="'Arial'" stroke-linecap="butt">
<text xml:space="preserve" x="313" y="12" clip-path="url(#clipPath2)" stroke="none">Unitdisk default pathloss</text>
<line clip-path="url(#clipPath2)" fill="none" x1="27" x2="27" y1="26" y2="564"/>
<line clip-path="url(#clipPath2)" fill="none" x1="741" x2="741" y1="26" y2="564"/>
<line clip-path="url(#clipPath2)" fill="none" x1="23" x2="27" y1="564" y2="564"/>
<line clip-path="url(#clipPath2)" fill="none" x1="745" x2="741" y1="564" y2="564"/>
<text x="2" font-size="10" y="567" clip-path="url(#clipPath2)" stroke="none" xml:space="preserve">-0.6</text>
<text x="748" font-size="10" y="567" clip-path="url(#clipPath2)" stroke="none" xml:space="preserve">-0.6</text>
<line clip-path="url(#clipPath2)" fill="none" x1="25" x2="27" y1="519" y2="519"/>
<line clip-path="url(#clipPath2)" fill="none" x1="743" x2="741" y1="519" y2="519"/>
<line clip-path="url(#clipPath2)" fill="none" x1="23" x2="27" y1="474" y2="474"/>
<line clip-path="url(#clipPath2)" fill="none" x1="745" x2="741" y1="474" y2="474"/>
<text x="2" font-size="10" y="477" clip-path="url(#clipPath2)" stroke="none" xml:space="preserve">-0.4</text>
<text x="748" font-size="10" y="477" clip-path="url(#clipPath2)" stroke="none" xml:space="preserve">-0.4</text>
<line clip-path="url(#clipPath2)" fill="none" x1="25" x2="27" y1="429" y2="429"/>
<line clip-path="url(#clipPath2)" fill="none" x1="743" x2="741" y1="429" y2="429"/>
<line clip-path="url(#clipPath2)" fill="none" x1="23" x2="27" y1="384" y2="384"/>
<line clip-path="url(#clipPath2)" fill="none" x1="745" x2="741" y1="384" y2="384"/>
<text x="2" font-size="10" y="387" clip-path="url(#clipPath2)" stroke="none" xml:space="preserve">-0.2</text>
<text x="748" font-size="10" y="387" clip-path="url(#clipPath2)" stroke="none" xml:space="preserve">-0.2</text>
<line clip-path="url(#clipPath2)" fill="none" x1="25" x2="27" y1="339" y2="339"/>
<line clip-path="url(#clipPath2)" fill="none" x1="743" x2="741" y1="339" y2="339"/>
<line clip-path="url(#clipPath2)" fill="none" x1="23" x2="27" y1="295" y2="295"/>
<line clip-path="url(#clipPath2)" fill="none" x1="745" x2="741" y1="295" y2="295"/>
<text x="7" font-size="10" y="298" clip-path="url(#clipPath2)" stroke="none" xml:space="preserve">0.0</text>
<text x="748" font-size="10" y="298" clip-path="url(#clipPath2)" stroke="none" xml:space="preserve">0.0</text>
<line clip-path="url(#clipPath2)" fill="none" x1="25" x2="27" y1="250" y2="250"/>
<line clip-path="url(#clipPath2)" fill="none" x1="743" x2="741" y1="250" y2="250"/>
<line clip-path="url(#clipPath2)" fill="none" x1="23" x2="27" y1="205" y2="205"/>
<line clip-path="url(#clipPath2)" fill="none" x1="745" x2="741" y1="205" y2="205"/>
<text x="7" font-size="10" y="208" clip-path="url(#clipPath2)" stroke="none" xml:space="preserve">0.2</text>
<text x="748" font-size="10" y="208" clip-path="url(#clipPath2)" stroke="none" xml:space="preserve">0.2</text>
<line clip-path="url(#clipPath2)" fill="none" x1="25" x2="27" y1="160" y2="160"/>
<line clip-path="url(#clipPath2)" fill="none" x1="743" x2="741" y1="160" y2="160"/>
<line clip-path="url(#clipPath2)" fill="none" x1="23" x2="27" y1="115" y2="115"/>
<line clip-path="url(#clipPath2)" fill="none" x1="745" x2="741" y1="115" y2="115"/>
<text x="7" font-size="10" y="118" clip-path="url(#clipPath2)" stroke="none" xml:space="preserve">0.4</text>
<text x="748" font-size="10" y="118" clip-path="url(#clipPath2)" stroke="none" xml:space="preserve">0.4</text>
<line clip-path="url(#clipPath2)" fill="none" x1="25" x2="27" y1="70" y2="70"/>
<line clip-path="url(#clipPath2)" fill="none" x1="743" x2="741" y1="70" y2="70"/>
<line clip-path="url(#clipPath2)" fill="none" x1="23" x2="27" y1="26" y2="26"/>
<line clip-path="url(#clipPath2)" fill="none" x1="745" x2="741" y1="26" y2="26"/>
<text x="7" font-size="10" y="29" clip-path="url(#clipPath2)" stroke="none" xml:space="preserve">0.6</text>
<text x="748" font-size="10" y="29" clip-path="url(#clipPath2)" stroke="none" xml:space="preserve">0.6</text>
</g>
</g>
</svg>
