<?xml version="1.0" encoding="UTF-8"?><svg xmlns="http://www.w3.org/2000/svg" xmlns:xlink="http://www.w3.org/1999/xlink" stroke-dasharray="none" shape-rendering="auto" font-family="'Dialog'" width="768" text-rendering="auto" fill-opacity="1" contentScriptType="text/ecmascript" color-interpolation="auto" color-rendering="auto" preserveAspectRatio="xMidYMid meet" font-size="12" fill="black" stroke="black" image-rendering="auto" stroke-miterlimit="10" zoomAndPan="magnify" version="1.0" stroke-linecap="square" stroke-linejoin="miter" contentStyleType="text/css" font-style="normal" height="576" stroke-width="1" stroke-dashoffset="0" font-weight="normal" stroke-opacity="1">
<!--Generated by the Batik Graphics2D SVG Generator-->
<defs id="genericDefs"/>
<g>
<defs id="defs1">
<clipPath clipPathUnits="userSpaceOnUse" id="clipPath1">
<path d="M31 25 L737 25 L737 453 L31 453 L31 25 Z"/>
</clipPath>
<clipPath clipPathUnits="userSpaceOnUse" id="clipPath2">
<path d="M-1 -1 L769 -1 L769 577 L-1 577 L-1 -1 Z"/>
</clipPath>
<clipPath clipPathUnits="userSpaceOnUse" id="clipPath3">
<path d="M31 451 L737 451 L737 577 L31 577 L31 451 Z"/>
</clipPath>
</defs>
<g fill="white" text-rendering="geometricPrecision" font-family="'Segoe UI'" stroke-linejoin="round" stroke="white" stroke-width="0" stroke-miterlimit="0">
<rect x="32" y="26" clip-path="url(#clipPath1)" width="704" height="426" stroke="none"/>
</g>
<g stroke-linecap="butt" fill="rgb(204,204,204)" text-rendering="geometricPrecision" font-family="'Segoe UI'" stroke-dasharray="3,3" stroke="rgb(204,204,204)">
<line clip-path="url(#clipPath1)" fill="none" x1="32" x2="736" y1="452" y2="452"/>
<line clip-path="url(#clipPath1)" fill="none" x1="32" x2="736" y1="362" y2="362"/>
<line clip-path="url(#clipPath1)" fill="none" x1="32" x2="736" y1="273" y2="273"/>
<line clip-path="url(#clipPath1)" fill="none" x1="32" x2="736" y1="184" y2="184"/>
<line clip-path="url(#clipPath1)" fill="none" x1="32" x2="736" y1="95" y2="95"/>
<rect x="708" y="236" clip-path="url(#clipPath1)" fill="rgb(0,100,0)" width="13" height="215" stroke="none"/>
<rect x="708" y="236" clip-path="url(#clipPath1)" fill="none" width="13" stroke-dasharray="none" height="215"/>
<rect x="687" y="278" clip-path="url(#clipPath1)" fill="rgb(238,0,0)" width="13" stroke-dasharray="none" height="173" stroke="none"/>
<rect x="687" y="278" clip-path="url(#clipPath1)" fill="none" width="13" stroke-dasharray="none" height="173"/>
<rect x="666" y="339" clip-path="url(#clipPath1)" fill="rgb(0,0,139)" width="13" stroke-dasharray="none" height="112" stroke="none"/>
<rect x="666" y="339" clip-path="url(#clipPath1)" fill="none" width="13" stroke-dasharray="none" height="112"/>
<rect x="639" y="271" clip-path="url(#clipPath1)" fill="rgb(0,100,0)" width="13" stroke-dasharray="none" height="180" stroke="none"/>
<rect x="639" y="271" clip-path="url(#clipPath1)" fill="none" width="13" stroke-dasharray="none" height="180"/>
<rect x="618" y="184" clip-path="url(#clipPath1)" fill="rgb(238,0,0)" width="13" stroke-dasharray="none" height="267" stroke="none"/>
<rect x="618" y="184" clip-path="url(#clipPath1)" fill="none" width="13" stroke-dasharray="none" height="267"/>
<rect x="597" y="266" clip-path="url(#clipPath1)" fill="rgb(0,0,139)" width="13" stroke-dasharray="none" height="185" stroke="none"/>
<rect x="597" y="266" clip-path="url(#clipPath1)" fill="none" width="13" stroke-dasharray="none" height="185"/>
<rect x="570" y="241" clip-path="url(#clipPath1)" fill="rgb(0,100,0)" width="13" stroke-dasharray="none" height="210" stroke="none"/>
<rect x="570" y="241" clip-path="url(#clipPath1)" fill="none" width="13" stroke-dasharray="none" height="210"/>
<rect x="549" y="255" clip-path="url(#clipPath1)" fill="rgb(238,0,0)" width="13" stroke-dasharray="none" height="196" stroke="none"/>
<rect x="549" y="255" clip-path="url(#clipPath1)" fill="none" width="13" stroke-dasharray="none" height="196"/>
<rect x="528" y="196" clip-path="url(#clipPath1)" fill="rgb(0,0,139)" width="13" stroke-dasharray="none" height="255" stroke="none"/>
<rect x="528" y="196" clip-path="url(#clipPath1)" fill="none" width="13" stroke-dasharray="none" height="255"/>
<rect x="501" y="248" clip-path="url(#clipPath1)" fill="rgb(0,100,0)" width="13" stroke-dasharray="none" height="203" stroke="none"/>
<rect x="501" y="248" clip-path="url(#clipPath1)" fill="none" width="13" stroke-dasharray="none" height="203"/>
<rect x="480" y="223" clip-path="url(#clipPath1)" fill="rgb(238,0,0)" width="13" stroke-dasharray="none" height="228" stroke="none"/>
<rect x="480" y="223" clip-path="url(#clipPath1)" fill="none" width="13" stroke-dasharray="none" height="228"/>
<rect x="459" y="225" clip-path="url(#clipPath1)" fill="rgb(0,0,139)" width="13" stroke-dasharray="none" height="226" stroke="none"/>
<rect x="459" y="225" clip-path="url(#clipPath1)" fill="none" width="13" stroke-dasharray="none" height="226"/>
<rect x="432" y="271" clip-path="url(#clipPath1)" fill="rgb(0,100,0)" width="13" stroke-dasharray="none" height="180" stroke="none"/>
<rect x="432" y="271" clip-path="url(#clipPath1)" fill="none" width="13" stroke-dasharray="none" height="180"/>
<rect x="411" y="298" clip-path="url(#clipPath1)" fill="rgb(238,0,0)" width="13" stroke-dasharray="none" height="153" stroke="none"/>
<rect x="411" y="298" clip-path="url(#clipPath1)" fill="none" width="13" stroke-dasharray="none" height="153"/>
<rect x="390" y="296" clip-path="url(#clipPath1)" fill="rgb(0,0,139)" width="13" stroke-dasharray="none" height="155" stroke="none"/>
<rect x="390" y="296" clip-path="url(#clipPath1)" fill="none" width="13" stroke-dasharray="none" height="155"/>
<rect x="363" y="128" clip-path="url(#clipPath1)" fill="rgb(0,100,0)" width="13" stroke-dasharray="none" height="323" stroke="none"/>
<rect x="363" y="128" clip-path="url(#clipPath1)" fill="none" width="13" stroke-dasharray="none" height="323"/>
<rect x="342" y="182" clip-path="url(#clipPath1)" fill="rgb(238,0,0)" width="13" stroke-dasharray="none" height="269" stroke="none"/>
<rect x="342" y="182" clip-path="url(#clipPath1)" fill="none" width="13" stroke-dasharray="none" height="269"/>
<rect x="321" y="164" clip-path="url(#clipPath1)" fill="rgb(0,0,139)" width="13" stroke-dasharray="none" height="287" stroke="none"/>
<rect x="321" y="164" clip-path="url(#clipPath1)" fill="none" width="13" stroke-dasharray="none" height="287"/>
<rect x="294" y="159" clip-path="url(#clipPath1)" fill="rgb(0,100,0)" width="13" stroke-dasharray="none" height="292" stroke="none"/>
<rect x="294" y="159" clip-path="url(#clipPath1)" fill="none" width="13" stroke-dasharray="none" height="292"/>
<rect x="273" y="64" clip-path="url(#clipPath1)" fill="rgb(238,0,0)" width="13" stroke-dasharray="none" height="387" stroke="none"/>
<rect x="273" y="64" clip-path="url(#clipPath1)" fill="none" width="13" stroke-dasharray="none" height="387"/>
<rect x="252" y="257" clip-path="url(#clipPath1)" fill="rgb(0,0,139)" width="13" stroke-dasharray="none" height="194" stroke="none"/>
<rect x="252" y="257" clip-path="url(#clipPath1)" fill="none" width="13" stroke-dasharray="none" height="194"/>
<rect x="225" y="96" clip-path="url(#clipPath1)" fill="rgb(0,100,0)" width="13" stroke-dasharray="none" height="355" stroke="none"/>
<rect x="225" y="96" clip-path="url(#clipPath1)" fill="none" width="13" stroke-dasharray="none" height="355"/>
<rect x="204" y="196" clip-path="url(#clipPath1)" fill="rgb(238,0,0)" width="13" stroke-dasharray="none" height="255" stroke="none"/>
<rect x="204" y="196" clip-path="url(#clipPath1)" fill="none" width="13" stroke-dasharray="none" height="255"/>
<rect x="183" y="128" clip-path="url(#clipPath1)" fill="rgb(0,0,139)" width="13" stroke-dasharray="none" height="323" stroke="none"/>
<rect x="183" y="128" clip-path="url(#clipPath1)" fill="none" width="13" stroke-dasharray="none" height="323"/>
<rect x="156" y="216" clip-path="url(#clipPath1)" fill="rgb(0,100,0)" width="13" stroke-dasharray="none" height="235" stroke="none"/>
<rect x="156" y="216" clip-path="url(#clipPath1)" fill="none" width="13" stroke-dasharray="none" height="235"/>
<rect x="135" y="237" clip-path="url(#clipPath1)" fill="rgb(238,0,0)" width="13" stroke-dasharray="none" height="214" stroke="none"/>
<rect x="135" y="237" clip-path="url(#clipPath1)" fill="none" width="13" stroke-dasharray="none" height="214"/>
<rect x="114" y="209" clip-path="url(#clipPath1)" fill="rgb(0,0,139)" width="13" stroke-dasharray="none" height="242" stroke="none"/>
<rect x="114" y="209" clip-path="url(#clipPath1)" fill="none" width="13" stroke-dasharray="none" height="242"/>
<rect x="87" y="248" clip-path="url(#clipPath1)" fill="rgb(0,100,0)" width="13" stroke-dasharray="none" height="203" stroke="none"/>
<rect x="87" y="248" clip-path="url(#clipPath1)" fill="none" width="13" stroke-dasharray="none" height="203"/>
<rect x="66" y="227" clip-path="url(#clipPath1)" fill="rgb(238,0,0)" width="13" stroke-dasharray="none" height="224" stroke="none"/>
<rect x="66" y="227" clip-path="url(#clipPath1)" fill="none" width="13" stroke-dasharray="none" height="224"/>
<rect x="45" y="187" clip-path="url(#clipPath1)" fill="rgb(0,0,139)" width="13" stroke-dasharray="none" height="264" stroke="none"/>
<rect x="45" y="187" clip-path="url(#clipPath1)" fill="none" width="13" stroke-dasharray="none" height="264"/>
<rect x="32" y="26" clip-path="url(#clipPath2)" fill="none" width="704" stroke-dasharray="none" height="426" stroke="black"/>
<line clip-path="url(#clipPath2)" fill="none" x1="33" x2="735" y1="452" y2="452" stroke-dasharray="none"/>
</g>
<g text-rendering="geometricPrecision" font-size="13" font-family="'Arial'" stroke-linecap="butt">
<text xml:space="preserve" x="313" y="12" clip-path="url(#clipPath2)" stroke="none">Unitdisk tworay pathloss</text>
<line clip-path="url(#clipPath2)" fill="none" x1="30" x2="30" y1="26" y2="452"/>
<line clip-path="url(#clipPath2)" fill="none" x1="738" x2="738" y1="26" y2="452"/>
<line clip-path="url(#clipPath2)" fill="none" x1="26" x2="30" y1="452" y2="452"/>
<line clip-path="url(#clipPath2)" fill="none" x1="742" x2="738" y1="452" y2="452"/>
<text x="20" font-size="10" y="455" clip-path="url(#clipPath2)" stroke="none" xml:space="preserve">0</text>
<text x="745" font-size="10" y="455" clip-path="url(#clipPath2)" stroke="none" xml:space="preserve">0</text>
<line clip-path="url(#clipPath2)" fill="none" x1="28" x2="30" y1="434" y2="434"/>
<line clip-path="url(#clipPath2)" fill="none" x1="740" x2="738" y1="434" y2="434"/>
<line clip-path="url(#clipPath2)" fill="none" x1="28" x2="30" y1="416" y2="416"/>
<line clip-path="url(#clipPath2)" fill="none" x1="740" x2="738" y1="416" y2="416"/>
<line clip-path="url(#clipPath2)" fill="none" x1="28" x2="30" y1="398" y2="398"/>
<line clip-path="url(#clipPath2)" fill="none" x1="740" x2="738" y1="398" y2="398"/>
<line clip-path="url(#clipPath2)" fill="none" x1="28" x2="30" y1="380" y2="380"/>
<line clip-path="url(#clipPath2)" fill="none" x1="740" x2="738" y1="380" y2="380"/>
<line clip-path="url(#clipPath2)" fill="none" x1="26" x2="30" y1="362" y2="362"/>
<line clip-path="url(#clipPath2)" fill="none" x1="742" x2="738" y1="362" y2="362"/>
<text x="15" font-size="10" y="365" clip-path="url(#clipPath2)" stroke="none" xml:space="preserve">50</text>
<text x="745" font-size="10" y="365" clip-path="url(#clipPath2)" stroke="none" xml:space="preserve">50</text>
<line clip-path="url(#clipPath2)" fill="none" x1="28" x2="30" y1="344" y2="344"/>
<line clip-path="url(#clipPath2)" fill="none" x1="740" x2="738" y1="344" y2="344"/>
<line clip-path="url(#clipPath2)" fill="none" x1="28" x2="30" y1="327" y2="327"/>
<line clip-path="url(#clipPath2)" fill="none" x1="740" x2="738" y1="327" y2="327"/>
<line clip-path="url(#clipPath2)" fill="none" x1="28" x2="30" y1="309" y2="309"/>
<line clip-path="url(#clipPath2)" fill="none" x1="740" x2="738" y1="309" y2="309"/>
<line clip-path="url(#clipPath2)" fill="none" x1="28" x2="30" y1="291" y2="291"/>
<line clip-path="url(#clipPath2)" fill="none" x1="740" x2="738" y1="291" y2="291"/>
<line clip-path="url(#clipPath2)" fill="none" x1="26" x2="30" y1="273" y2="273"/>
<line clip-path="url(#clipPath2)" fill="none" x1="742" x2="738" y1="273" y2="273"/>
<text x="10" font-size="10" y="276" clip-path="url(#clipPath2)" stroke="none" xml:space="preserve">100</text>
<text x="745" font-size="10" y="276" clip-path="url(#clipPath2)" stroke="none" xml:space="preserve">100</text>
<line clip-path="url(#clipPath2)" fill="none" x1="28" x2="30" y1="255" y2="255"/>
<line clip-path="url(#clipPath2)" fill="none" x1="740" x2="738" y1="255" y2="255"/>
<line clip-path="url(#clipPath2)" fill="none" x1="28" x2="30" y1="237" y2="237"/>
<line clip-path="url(#clipPath2)" fill="none" x1="740" x2="738" y1="237" y2="237"/>
<line clip-path="url(#clipPath2)" fill="none" x1="28" x2="30" y1="219" y2="219"/>
<line clip-path="url(#clipPath2)" fill="none" x1="740" x2="738" y1="219" y2="219"/>
<line clip-path="url(#clipPath2)" fill="none" x1="28" x2="30" y1="202" y2="202"/>
<line clip-path="url(#clipPath2)" fill="none" x1="740" x2="738" y1="202" y2="202"/>
<line clip-path="url(#clipPath2)" fill="none" x1="26" x2="30" y1="184" y2="184"/>
<line clip-path="url(#clipPath2)" fill="none" x1="742" x2="738" y1="184" y2="184"/>
<text x="10" font-size="10" y="187" clip-path="url(#clipPath2)" stroke="none" xml:space="preserve">150</text>
<text x="745" font-size="10" y="187" clip-path="url(#clipPath2)" stroke="none" xml:space="preserve">150</text>
<line clip-path="url(#clipPath2)" fill="none" x1="28" x2="30" y1="166" y2="166"/>
<line clip-path="url(#clipPath2)" fill="none" x1="740" x2="738" y1="166" y2="166"/>
<line clip-path="url(#clipPath2)" fill="none" x1="28" x2="30" y1="148" y2="148"/>
<line clip-path="url(#clipPath2)" fill="none" x1="740" x2="738" y1="148" y2="148"/>
<line clip-path="url(#clipPath2)" fill="none" x1="28" x2="30" y1="130" y2="130"/>
<line clip-path="url(#clipPath2)" fill="none" x1="740" x2="738" y1="130" y2="130"/>
<line clip-path="url(#clipPath2)" fill="none" x1="28" x2="30" y1="112" y2="112"/>
<line clip-path="url(#clipPath2)" fill="none" x1="740" x2="738" y1="112" y2="112"/>
<line clip-path="url(#clipPath2)" fill="none" x1="26" x2="30" y1="95" y2="95"/>
<line clip-path="url(#clipPath2)" fill="none" x1="742" x2="738" y1="95" y2="95"/>
<text x="10" font-size="10" y="98" clip-path="url(#clipPath2)" stroke="none" xml:space="preserve">200</text>
<text x="745" font-size="10" y="98" clip-path="url(#clipPath2)" stroke="none" xml:space="preserve">200</text>
<line clip-path="url(#clipPath2)" fill="none" x1="28" x2="30" y1="77" y2="77"/>
<line clip-path="url(#clipPath2)" fill="none" x1="740" x2="738" y1="77" y2="77"/>
<line clip-path="url(#clipPath2)" fill="none" x1="28" x2="30" y1="59" y2="59"/>
<line clip-path="url(#clipPath2)" fill="none" x1="740" x2="738" y1="59" y2="59"/>
<line clip-path="url(#clipPath2)" fill="none" x1="28" x2="30" y1="41" y2="41"/>
<line clip-path="url(#clipPath2)" fill="none" x1="740" x2="738" y1="41" y2="41"/>
<line clip-path="url(#clipPath3)" fill="none" x1="45" x2="100" y1="456" y2="456"/>
<line clip-path="url(#clipPath3)" fill="none" x1="114" x2="169" y1="456" y2="456"/>
<line clip-path="url(#clipPath3)" fill="none" x1="183" x2="238" y1="456" y2="456"/>
<line clip-path="url(#clipPath3)" fill="none" x1="252" x2="307" y1="456" y2="456"/>
<line clip-path="url(#clipPath3)" fill="none" x1="321" x2="376" y1="456" y2="456"/>
<line clip-path="url(#clipPath3)" fill="none" x1="390" x2="445" y1="456" y2="456"/>
<line clip-path="url(#clipPath3)" fill="none" x1="459" x2="514" y1="456" y2="456"/>
<line clip-path="url(#clipPath3)" fill="none" x1="528" x2="583" y1="456" y2="456"/>
<line clip-path="url(#clipPath3)" fill="none" x1="597" x2="652" y1="456" y2="456"/>
<line clip-path="url(#clipPath3)" fill="none" x1="666" x2="721" y1="456" y2="456"/>
<text x="67" font-size="10" y="467" clip-path="url(#clipPath3)" stroke="none" xml:space="preserve">sensors[0]</text>
<text x="136" font-size="10" y="467" clip-path="url(#clipPath3)" stroke="none" xml:space="preserve">sensors[1]</text>
<text x="205" font-size="10" y="467" clip-path="url(#clipPath3)" stroke="none" xml:space="preserve">sensors[2]</text>
<text x="274" font-size="10" y="467" clip-path="url(#clipPath3)" stroke="none" xml:space="preserve">sensors[3]</text>
<text x="343" font-size="10" y="467" clip-path="url(#clipPath3)" stroke="none" xml:space="preserve">sensors[4]</text>
<text x="412" font-size="10" y="467" clip-path="url(#clipPath3)" stroke="none" xml:space="preserve">sensors[5]</text>
<text x="481" font-size="10" y="467" clip-path="url(#clipPath3)" stroke="none" xml:space="preserve">sensors[6]</text>
<text x="550" font-size="10" y="467" clip-path="url(#clipPath3)" stroke="none" xml:space="preserve">sensors[7]</text>
<text x="619" font-size="10" y="467" clip-path="url(#clipPath3)" stroke="none" xml:space="preserve">sensors[8]</text>
<text x="688" font-size="10" y="467" clip-path="url(#clipPath3)" stroke="none" xml:space="preserve">sensors[9]</text>
</g>
</g>
</svg>
